%TF.GenerationSoftware,KiCad,Pcbnew,8.0.7*%
%TF.CreationDate,2025-06-05T13:27:20+09:00*%
%TF.ProjectId,ACT_Base_board_v2,4143545f-4261-4736-955f-626f6172645f,rev?*%
%TF.SameCoordinates,PX2faf080PY2faf080*%
%TF.FileFunction,Paste,Top*%
%TF.FilePolarity,Positive*%
%FSLAX46Y46*%
G04 Gerber Fmt 4.6, Leading zero omitted, Abs format (unit mm)*
G04 Created by KiCad (PCBNEW 8.0.7) date 2025-06-05 13:27:20*
%MOMM*%
%LPD*%
G01*
G04 APERTURE LIST*
G04 Aperture macros list*
%AMRoundRect*
0 Rectangle with rounded corners*
0 $1 Rounding radius*
0 $2 $3 $4 $5 $6 $7 $8 $9 X,Y pos of 4 corners*
0 Add a 4 corners polygon primitive as box body*
4,1,4,$2,$3,$4,$5,$6,$7,$8,$9,$2,$3,0*
0 Add four circle primitives for the rounded corners*
1,1,$1+$1,$2,$3*
1,1,$1+$1,$4,$5*
1,1,$1+$1,$6,$7*
1,1,$1+$1,$8,$9*
0 Add four rect primitives between the rounded corners*
20,1,$1+$1,$2,$3,$4,$5,0*
20,1,$1+$1,$4,$5,$6,$7,0*
20,1,$1+$1,$6,$7,$8,$9,0*
20,1,$1+$1,$8,$9,$2,$3,0*%
G04 Aperture macros list end*
%ADD10RoundRect,0.200000X0.275000X-0.200000X0.275000X0.200000X-0.275000X0.200000X-0.275000X-0.200000X0*%
%ADD11RoundRect,0.200000X0.200000X0.275000X-0.200000X0.275000X-0.200000X-0.275000X0.200000X-0.275000X0*%
%ADD12RoundRect,0.225000X0.225000X0.250000X-0.225000X0.250000X-0.225000X-0.250000X0.225000X-0.250000X0*%
%ADD13RoundRect,0.250000X-0.850000X-0.350000X0.850000X-0.350000X0.850000X0.350000X-0.850000X0.350000X0*%
%ADD14RoundRect,0.250000X-1.275000X-1.125000X1.275000X-1.125000X1.275000X1.125000X-1.275000X1.125000X0*%
%ADD15RoundRect,0.225000X-0.225000X-0.250000X0.225000X-0.250000X0.225000X0.250000X-0.225000X0.250000X0*%
%ADD16RoundRect,0.250000X0.595000X1.080000X-0.595000X1.080000X-0.595000X-1.080000X0.595000X-1.080000X0*%
%ADD17RoundRect,0.150000X0.687500X0.150000X-0.687500X0.150000X-0.687500X-0.150000X0.687500X-0.150000X0*%
%ADD18RoundRect,0.200000X-0.275000X0.200000X-0.275000X-0.200000X0.275000X-0.200000X0.275000X0.200000X0*%
%ADD19RoundRect,0.225000X-0.250000X0.225000X-0.250000X-0.225000X0.250000X-0.225000X0.250000X0.225000X0*%
%ADD20RoundRect,0.225000X0.250000X-0.225000X0.250000X0.225000X-0.250000X0.225000X-0.250000X-0.225000X0*%
%ADD21RoundRect,0.250000X-0.300000X-0.300000X0.300000X-0.300000X0.300000X0.300000X-0.300000X0.300000X0*%
%ADD22RoundRect,0.150000X0.825000X0.150000X-0.825000X0.150000X-0.825000X-0.150000X0.825000X-0.150000X0*%
%ADD23R,2.000000X2.000000*%
%ADD24RoundRect,0.250000X1.100000X-0.325000X1.100000X0.325000X-1.100000X0.325000X-1.100000X-0.325000X0*%
%ADD25RoundRect,0.250000X0.300000X0.300000X-0.300000X0.300000X-0.300000X-0.300000X0.300000X-0.300000X0*%
%ADD26RoundRect,0.150000X-0.587500X-0.150000X0.587500X-0.150000X0.587500X0.150000X-0.587500X0.150000X0*%
%ADD27RoundRect,0.150000X-0.512500X-0.150000X0.512500X-0.150000X0.512500X0.150000X-0.512500X0.150000X0*%
%ADD28R,1.500000X0.900000*%
%ADD29R,0.900000X1.500000*%
%ADD30R,0.900000X0.900000*%
%ADD31RoundRect,0.150000X0.587500X0.150000X-0.587500X0.150000X-0.587500X-0.150000X0.587500X-0.150000X0*%
%ADD32RoundRect,0.218750X-0.256250X0.218750X-0.256250X-0.218750X0.256250X-0.218750X0.256250X0.218750X0*%
%ADD33RoundRect,0.200000X-0.200000X-0.275000X0.200000X-0.275000X0.200000X0.275000X-0.200000X0.275000X0*%
%ADD34R,1.000000X1.800000*%
%ADD35RoundRect,0.250000X-1.100000X0.325000X-1.100000X-0.325000X1.100000X-0.325000X1.100000X0.325000X0*%
%ADD36R,0.600000X1.240000*%
%ADD37R,0.300000X1.240000*%
%ADD38RoundRect,0.200000X-0.800000X0.200000X-0.800000X-0.200000X0.800000X-0.200000X0.800000X0.200000X0*%
%ADD39RoundRect,0.250000X-0.375000X-0.625000X0.375000X-0.625000X0.375000X0.625000X-0.375000X0.625000X0*%
%ADD40R,0.254000X0.675000*%
%ADD41R,0.675000X0.254000*%
G04 APERTURE END LIST*
D10*
%TO.C,R7*%
X33000000Y-25825000D03*
X33000000Y-24175000D03*
%TD*%
D11*
%TO.C,R25*%
X52625000Y-27800000D03*
X50975000Y-27800000D03*
%TD*%
D10*
%TO.C,R18*%
X9437500Y-12200000D03*
X9437500Y-10550000D03*
%TD*%
D12*
%TO.C,C7*%
X77275000Y-19500000D03*
X75725000Y-19500000D03*
%TD*%
D13*
%TO.C,Q1*%
X86960000Y-37720000D03*
D14*
X91585000Y-38475000D03*
X91585000Y-41525000D03*
X94935000Y-38475000D03*
X94935000Y-41525000D03*
D13*
X86960000Y-42280000D03*
%TD*%
D11*
%TO.C,R24*%
X52625000Y-30600000D03*
X50975000Y-30600000D03*
%TD*%
%TO.C,R19*%
X6262500Y-15500000D03*
X4612500Y-15500000D03*
%TD*%
D15*
%TO.C,C9*%
X46225000Y-38500000D03*
X47775000Y-38500000D03*
%TD*%
D12*
%TO.C,C10*%
X45375000Y-31800000D03*
X43825000Y-31800000D03*
%TD*%
D16*
%TO.C,U3*%
X82000000Y-20500000D03*
D17*
X84637500Y-22500000D03*
X84637500Y-21500000D03*
X84637500Y-20500000D03*
X84637500Y-19500000D03*
X84637500Y-18500000D03*
X79362500Y-18500000D03*
X79362500Y-19500000D03*
X79362500Y-20500000D03*
X79362500Y-21500000D03*
X79362500Y-22500000D03*
%TD*%
D18*
%TO.C,R17*%
X23000000Y-64925000D03*
X23000000Y-66575000D03*
%TD*%
D19*
%TO.C,C8*%
X64600000Y-11225000D03*
X64600000Y-12775000D03*
%TD*%
D20*
%TO.C,C4*%
X45500000Y-16275000D03*
X45500000Y-14725000D03*
%TD*%
D15*
%TO.C,C15*%
X23975000Y-45750000D03*
X25525000Y-45750000D03*
%TD*%
D19*
%TO.C,C5*%
X53500000Y-14725000D03*
X53500000Y-16275000D03*
%TD*%
D21*
%TO.C,D1*%
X21100000Y-37000000D03*
X23900000Y-37000000D03*
%TD*%
D22*
%TO.C,U7*%
X19475000Y-60655000D03*
X19475000Y-59385000D03*
X19475000Y-58115000D03*
X19475000Y-56845000D03*
X14525000Y-56845000D03*
X14525000Y-58115000D03*
X14525000Y-59385000D03*
X14525000Y-60655000D03*
%TD*%
D18*
%TO.C,R12*%
X21750000Y-56925000D03*
X21750000Y-58575000D03*
%TD*%
D23*
%TO.C,LS1*%
X19000000Y-33000000D03*
X26000000Y-33000000D03*
X26000000Y-26000000D03*
X19000000Y-26000000D03*
%TD*%
D18*
%TO.C,R15*%
X10000000Y-60775000D03*
X10000000Y-62425000D03*
%TD*%
D24*
%TO.C,C18*%
X74250000Y-31475000D03*
X74250000Y-28525000D03*
%TD*%
D20*
%TO.C,C2*%
X12000000Y-8275000D03*
X12000000Y-6725000D03*
%TD*%
D10*
%TO.C,R9*%
X53000000Y-37325000D03*
X53000000Y-35675000D03*
%TD*%
D25*
%TO.C,D5*%
X67400000Y-29750000D03*
X64600000Y-29750000D03*
%TD*%
D22*
%TO.C,U6*%
X30475000Y-43905000D03*
X30475000Y-42635000D03*
X30475000Y-41365000D03*
X30475000Y-40095000D03*
X25525000Y-40095000D03*
X25525000Y-41365000D03*
X25525000Y-42635000D03*
X25525000Y-43905000D03*
%TD*%
D20*
%TO.C,C6*%
X49600000Y-25275000D03*
X49600000Y-23725000D03*
%TD*%
D26*
%TO.C,Q7*%
X12062500Y-65800000D03*
X12062500Y-67700000D03*
X13937500Y-66750000D03*
%TD*%
D27*
%TO.C,Q4*%
X30862500Y-31050000D03*
X30862500Y-32950000D03*
X33137500Y-32000000D03*
%TD*%
D28*
%TO.C,U1*%
X18350000Y-2280000D03*
X18350000Y-3550000D03*
X18350000Y-4820000D03*
X18350000Y-6090000D03*
X18350000Y-7360000D03*
X18350000Y-8630000D03*
X18350000Y-9900000D03*
X18350000Y-11170000D03*
X18350000Y-12440000D03*
X18350000Y-13710000D03*
X18350000Y-14980000D03*
X18350000Y-16250000D03*
X18350000Y-17520000D03*
X18350000Y-18790000D03*
D29*
X21380000Y-20040000D03*
X22650000Y-20040000D03*
X23920000Y-20040000D03*
X25190000Y-20040000D03*
X26460000Y-20040000D03*
X27730000Y-20040000D03*
X29000000Y-20040000D03*
X30270000Y-20040000D03*
X31540000Y-20040000D03*
X32810000Y-20040000D03*
D28*
X35850000Y-18790000D03*
X35850000Y-17520000D03*
X35850000Y-16250000D03*
X35850000Y-14980000D03*
X35850000Y-13710000D03*
X35850000Y-12440000D03*
X35850000Y-11170000D03*
X35850000Y-9900000D03*
X35850000Y-8630000D03*
X35850000Y-7360000D03*
X35850000Y-6090000D03*
X35850000Y-4820000D03*
X35850000Y-3550000D03*
X35850000Y-2280000D03*
D30*
X24200000Y-8600000D03*
X24200000Y-8600000D03*
X24200000Y-10000000D03*
X24200000Y-11400000D03*
X24200000Y-11400000D03*
X25600000Y-8600000D03*
X25600000Y-10000000D03*
X25600000Y-11400000D03*
X25600000Y-11400000D03*
X27000000Y-8600000D03*
X27000000Y-10000000D03*
X27000000Y-11400000D03*
%TD*%
D10*
%TO.C,R14*%
X10000000Y-59425000D03*
X10000000Y-57775000D03*
%TD*%
D18*
%TO.C,R22*%
X18500000Y-42000000D03*
X18500000Y-43650000D03*
%TD*%
D31*
%TO.C,Q5*%
X6437500Y-12450000D03*
X6437500Y-10550000D03*
X4562500Y-11500000D03*
%TD*%
D18*
%TO.C,R11*%
X70750000Y-28675000D03*
X70750000Y-30325000D03*
%TD*%
D32*
%TO.C,D3*%
X75500000Y-7212500D03*
X75500000Y-8787500D03*
%TD*%
%TO.C,D2*%
X72500000Y-7212500D03*
X72500000Y-8787500D03*
%TD*%
D15*
%TO.C,C19*%
X81975000Y-61250000D03*
X83525000Y-61250000D03*
%TD*%
D33*
%TO.C,R8*%
X46175000Y-41200000D03*
X47825000Y-41200000D03*
%TD*%
D10*
%TO.C,R5*%
X12000000Y-5050000D03*
X12000000Y-3400000D03*
%TD*%
D11*
%TO.C,R2*%
X94825000Y-12000000D03*
X93175000Y-12000000D03*
%TD*%
%TO.C,R16*%
X9825000Y-65800000D03*
X8175000Y-65800000D03*
%TD*%
D10*
%TO.C,R26*%
X75500000Y-4825000D03*
X75500000Y-3175000D03*
%TD*%
D11*
%TO.C,R13*%
X16825000Y-53600000D03*
X15175000Y-53600000D03*
%TD*%
D34*
%TO.C,Y1*%
X46750000Y-28000000D03*
X49250000Y-28000000D03*
%TD*%
D19*
%TO.C,C3*%
X79400000Y-24225000D03*
X79400000Y-25775000D03*
%TD*%
D20*
%TO.C,C11*%
X16000000Y-3775000D03*
X16000000Y-2225000D03*
%TD*%
D35*
%TO.C,C17*%
X74000000Y-34775000D03*
X74000000Y-37725000D03*
%TD*%
D26*
%TO.C,Q3*%
X70062500Y-14550000D03*
X70062500Y-16450000D03*
X71937500Y-15500000D03*
%TD*%
D10*
%TO.C,R23*%
X21500000Y-42825000D03*
X21500000Y-41175000D03*
%TD*%
D11*
%TO.C,R20*%
X28325000Y-37000000D03*
X26675000Y-37000000D03*
%TD*%
D36*
%TO.C,J3*%
X87700000Y-7725000D03*
X86900000Y-7725000D03*
D37*
X85750000Y-7725000D03*
X84750000Y-7725000D03*
X84250000Y-7725000D03*
X83250000Y-7725000D03*
D36*
X82100000Y-7725000D03*
X81300000Y-7725000D03*
X81300000Y-7725000D03*
X82100000Y-7725000D03*
D37*
X82750000Y-7725000D03*
X83750000Y-7725000D03*
X85250000Y-7725000D03*
X86250000Y-7725000D03*
D36*
X86900000Y-7725000D03*
X87700000Y-7725000D03*
%TD*%
D24*
%TO.C,C16*%
X74000000Y-44725000D03*
X74000000Y-41775000D03*
%TD*%
D18*
%TO.C,R4*%
X83160000Y-39175000D03*
X83160000Y-40825000D03*
%TD*%
D19*
%TO.C,C12*%
X46400000Y-23725000D03*
X46400000Y-25275000D03*
%TD*%
D11*
%TO.C,R27*%
X11325000Y-28600000D03*
X9675000Y-28600000D03*
%TD*%
D18*
%TO.C,R21*%
X34000000Y-40175000D03*
X34000000Y-41825000D03*
%TD*%
D31*
%TO.C,Q2*%
X66475000Y-16450000D03*
X66475000Y-14550000D03*
X64600000Y-15500000D03*
%TD*%
D11*
%TO.C,R1*%
X94825000Y-9000000D03*
X93175000Y-9000000D03*
%TD*%
D20*
%TO.C,C14*%
X14500000Y-64025000D03*
X14500000Y-62475000D03*
%TD*%
D10*
%TO.C,R6*%
X72500000Y-4825000D03*
X72500000Y-3175000D03*
%TD*%
D35*
%TO.C,C13*%
X58000000Y-34775000D03*
X58000000Y-37725000D03*
%TD*%
D18*
%TO.C,R3*%
X43500000Y-34675000D03*
X43500000Y-36325000D03*
%TD*%
D24*
%TO.C,C1*%
X58000000Y-44725000D03*
X58000000Y-41775000D03*
%TD*%
D38*
%TO.C,SW2*%
X57500000Y-13400000D03*
X57500000Y-17600000D03*
%TD*%
D39*
%TO.C,F1*%
X79100000Y-12000000D03*
X81900000Y-12000000D03*
%TD*%
D25*
%TO.C,D4*%
X67400000Y-51695000D03*
X64600000Y-51695000D03*
%TD*%
D40*
%TO.C,U2*%
X46750000Y-33337500D03*
D41*
X46612500Y-34250000D03*
X46612500Y-34750000D03*
X46612500Y-35250000D03*
X46612500Y-35750000D03*
D40*
X46750000Y-36662500D03*
X47250000Y-36662500D03*
X47750000Y-36662500D03*
X48250000Y-36662500D03*
X48750000Y-36662500D03*
X49250000Y-36662500D03*
X49750000Y-36662500D03*
X50250000Y-36662500D03*
X50750000Y-36662500D03*
X51250000Y-36662500D03*
D41*
X51387500Y-35750000D03*
X51387500Y-35250000D03*
X51387500Y-34750000D03*
X51387500Y-34250000D03*
D40*
X51250000Y-33337500D03*
X50750000Y-33337500D03*
X50250000Y-33337500D03*
X49750000Y-33337500D03*
X49250000Y-33337500D03*
X48750000Y-33337500D03*
X48250000Y-33337500D03*
X47750000Y-33337500D03*
X47250000Y-33337500D03*
%TD*%
D11*
%TO.C,R10*%
X79075000Y-28500000D03*
X77425000Y-28500000D03*
%TD*%
D38*
%TO.C,SW1*%
X49500000Y-13400000D03*
X49500000Y-17600000D03*
%TD*%
M02*
