M48
; DRILL file {KiCad 8.0.7} date 2025-06-05T13:27:26+0900
; FORMAT={-:-/ absolute / inch / decimal}
; #@! TF.CreationDate,2025-06-05T13:27:26+09:00
; #@! TF.GenerationSoftware,Kicad,Pcbnew,8.0.7
; #@! TF.FileFunction,Plated,1,2,PTH
FMAT,2
INCH
; #@! TA.AperFunction,Plated,PTH,ViaDrill
T1C0.0157
; #@! TA.AperFunction,Plated,PTH,ComponentDrill
T2C0.0236
; #@! TA.AperFunction,Plated,PTH,ComponentDrill
T3C0.0295
; #@! TA.AperFunction,Plated,PTH,ComponentDrill
T4C0.0335
; #@! TA.AperFunction,Plated,PTH,ComponentDrill
T5C0.0433
; #@! TA.AperFunction,Plated,PTH,ComponentDrill
T6C0.1772
%
G90
G05
T1
X0.0591Y-0.2756
X0.0591Y-0.5512
X0.0591Y-0.8268
X0.0591Y-1.1024
X0.0591Y-1.4961
X0.0591Y-1.7717
X0.0591Y-2.0472
X0.0591Y-2.3228
X0.0591Y-2.5984
X0.2756Y-0.0591
X0.2756Y-0.2756
X0.2756Y-0.5512
X0.2756Y-2.6969
X0.2776Y-2.2874
X0.3248Y-1.2244
X0.3248Y-1.5
X0.3248Y-1.7756
X0.3346Y-2.2047
X0.3346Y-2.3425
X0.3543Y-0.5512
X0.3543Y-0.8268
X0.3543Y-1.0236
X0.4315Y-0.4823
X0.4724Y-2.1063
X0.4724Y-2.2047
X0.4724Y-2.5197
X0.502Y-0.4134
X0.502Y-2.288
X0.5512Y-0.0591
X0.5512Y-0.1378
X0.5512Y-2.6969
X0.5709Y-2.1752
X0.5709Y-2.5787
X0.5906Y-0.9843
X0.5906Y-1.2598
X0.5906Y-1.378
X0.5906Y-1.4961
X0.6299Y-0.2559
X0.6299Y-0.3937
X0.6496Y-2.5197
X0.6496Y-2.5787
X0.6594Y-0.4429
X0.6594Y-0.4921
X0.6594Y-0.5413
X0.6594Y-0.5906
X0.6594Y-0.6398
X0.6693Y-2.313
X0.6693Y-2.4016
X0.689Y-1.7717
X0.689Y-1.8701
X0.689Y-1.9685
X0.7087Y-1.378
X0.7087Y-1.4961
X0.7874Y-1.1811
X0.7874Y-2.5197
X0.7874Y-2.5787
X0.8268Y-0.0591
X0.8268Y-0.1181
X0.8268Y-0.3543
X0.8268Y-0.4331
X0.8268Y-0.5118
X0.8268Y-0.5906
X0.8268Y-0.6693
X0.8268Y-2.6969
X0.8465Y-2.3917
X0.876Y-0.9055
X0.8858Y-1.4075
X0.8858Y-1.5059
X0.8858Y-1.7717
X0.8858Y-1.8701
X0.8858Y-1.9685
X0.9055Y-0.1181
X0.9055Y-0.3543
X0.9055Y-0.4331
X0.9055Y-0.5118
X0.9055Y-0.5906
X0.9055Y-0.6693
X0.9055Y-2.5
X0.9252Y-1.5748
X0.9843Y-0.1181
X0.9843Y-0.5118
X0.9843Y-0.5906
X0.9843Y-0.6693
X0.9843Y-2.1457
X0.9941Y-1.4173
X0.9941Y-1.5157
X1.063Y-0.1181
X1.063Y-0.5118
X1.063Y-0.5906
X1.063Y-0.6693
X1.1024Y-0.0591
X1.1024Y-2.6969
X1.122Y-1.3583
X1.122Y-1.6535
X1.1417Y-0.1181
X1.1417Y-0.3543
X1.1417Y-0.4331
X1.1417Y-0.5118
X1.1417Y-0.5906
X1.1417Y-0.6693
X1.1417Y-1.1417
X1.1417Y-2.5787
X1.1811Y-0.9055
X1.1909Y-1.5256
X1.2205Y-0.1181
X1.2205Y-0.3543
X1.2205Y-0.4331
X1.2205Y-0.5118
X1.2205Y-0.5906
X1.2205Y-0.6693
X1.2205Y-1.1417
X1.2795Y-1.4272
X1.2795Y-1.5354
X1.2795Y-1.7323
X1.2992Y-0.1181
X1.2992Y-0.3543
X1.2992Y-0.4331
X1.2992Y-0.5118
X1.2992Y-0.5906
X1.2992Y-0.6693
X1.3189Y-2.0866
X1.3189Y-2.126
X1.3386Y-1.3287
X1.3386Y-1.4272
X1.3583Y-1.1417
X1.378Y-0.0591
X1.378Y-2.6969
X1.4075Y-1.9685
X1.4173Y-0.8169
X1.4173Y-0.9449
X1.4173Y-2.126
X1.4469Y-1.9685
X1.4764Y-0.689
X1.4764Y-0.7382
X1.4803Y-0.2398
X1.4862Y-1.6732
X1.5197Y-0.2898
X1.5591Y-0.2441
X1.5748Y-1.1811
X1.5748Y-1.378
X1.5748Y-1.5748
X1.5748Y-1.9291
X1.5748Y-2.126
X1.5945Y-0.1575
X1.5945Y-0.9449
X1.6142Y-0.2953
X1.6535Y-0.0551
X1.6535Y-2.6969
X1.6831Y-0.6594
X1.6831Y-1.2992
X1.6929Y-0.2953
X1.6929Y-0.7382
X1.7323Y-0.9449
X1.7323Y-1.1417
X1.7323Y-1.4862
X1.7323Y-1.565
X1.748Y-0.6378
X1.752Y-0.689
X1.7717Y-0.2953
X1.7717Y-1.7717
X1.7717Y-1.9291
X1.7717Y-2.126
X1.7795Y-1.622
X1.7953Y-1.4567
X1.8189Y-1.5669
X1.8307Y-0.315
X1.8307Y-0.4528
X1.8418Y-1.2054
X1.8504Y-0.5315
X1.8701Y-0.6102
X1.8898Y-0.876
X1.8898Y-0.9252
X1.8898Y-1.378
X1.8937Y-1.5669
X1.9094Y-0.315
X1.9094Y-0.4528
X1.9291Y-0.0551
X1.9291Y-1.378
X1.9291Y-2.6969
X1.9488Y-0.6102
X1.9646Y-1.2054
X1.9685Y-0.1969
X1.9685Y-0.2953
X1.9685Y-1.378
X1.9685Y-1.9685
X1.9685Y-2.126
X2.0079Y-1.5354
X2.0157Y-0.6929
X2.0177Y-0.6004
X2.0374Y-0.4921
X2.0669Y-0.1969
X2.0669Y-0.2953
X2.0866Y-1.5354
X2.1063Y-0.4921
X2.1654Y-0.2953
X2.1654Y-0.9449
X2.1654Y-1.1811
X2.1654Y-1.378
X2.1654Y-1.4724
X2.1654Y-1.8307
X2.1654Y-1.9685
X2.1654Y-2.126
X2.1752Y-0.4921
X2.2047Y-0.0551
X2.2047Y-2.6969
X2.2835Y-1.3189
X2.3228Y-0.2362
X2.3622Y-0.4921
X2.3622Y-0.9449
X2.3622Y-1.1811
X2.3622Y-1.2992
X2.3622Y-1.8307
X2.3622Y-1.9685
X2.3622Y-2.126
X2.4606Y-0.3937
X2.4606Y-0.4921
X2.4606Y-1.5748
X2.4803Y-0.0591
X2.4803Y-2.6969
X2.5591Y-0.2953
X2.5591Y-0.9449
X2.5591Y-2.126
X2.5984Y-1.1417
X2.5984Y-1.2008
X2.5984Y-1.2894
X2.5984Y-1.5748
X2.5984Y-1.8602
X2.5984Y-1.939
X2.5984Y-2.0079
X2.5984Y-2.0669
X2.6575Y-0.1969
X2.6575Y-0.2953
X2.6575Y-0.3937
X2.6575Y-0.4921
X2.6915Y-0.6115
X2.7283Y-1.126
X2.7559Y-0.0591
X2.7559Y-0.1969
X2.7559Y-0.2953
X2.7559Y-0.3937
X2.7559Y-0.4921
X2.7559Y-0.9449
X2.7559Y-1.5748
X2.7559Y-1.9291
X2.7559Y-2.126
X2.7559Y-2.6969
X2.7854Y-1.2402
X2.8031Y-0.3465
X2.8445Y-1.1811
X2.8543Y-0.4921
X2.8839Y-0.5709
X2.8839Y-0.6496
X2.9134Y-0.1575
X2.9134Y-0.2362
X2.9134Y-0.315
X2.9134Y-1.5748
X2.9232Y-1.1811
X2.9232Y-1.2992
X2.9528Y-0.4921
X2.9528Y-0.9449
X2.9528Y-1.9291
X3.0118Y-1.1811
X3.0315Y-0.0591
X3.0315Y-2.4409
X3.0315Y-2.6969
X3.0413Y-1.2402
X3.0512Y-0.1969
X3.0512Y-0.2953
X3.0551Y-0.8346
X3.0551Y-0.8819
X3.0906Y-0.3642
X3.1201Y-0.5709
X3.1201Y-0.6496
X3.1693Y-0.3642
X3.189Y-0.6693
X3.189Y-1.2992
X3.189Y-1.4567
X3.189Y-1.6535
X3.189Y-1.8504
X3.189Y-2.0472
X3.2087Y-0.8957
X3.2283Y-0.7087
X3.248Y-0.0984
X3.248Y-0.1969
X3.2677Y-0.4035
X3.2677Y-1.1811
X3.3071Y-0.0591
X3.3071Y-0.6693
X3.3071Y-1.2992
X3.3071Y-2.4803
X3.3071Y-2.6969
X3.3465Y-0.0984
X3.3465Y-0.1969
X3.3465Y-2.3622
X3.3858Y-0.5118
X3.3858Y-1.9094
X3.3957Y-0.4035
X3.3957Y-0.8465
X3.4449Y-0.0984
X3.4449Y-0.1969
X3.4449Y-2.1063
X3.4528Y-0.3622
X3.4547Y-0.7874
X3.5039Y-1.4567
X3.5039Y-1.5748
X3.5039Y-1.6929
X3.5236Y-0.3543
X3.5433Y-0.1969
X3.5433Y-0.5512
X3.5433Y-0.8268
X3.5728Y-0.3346
X3.5827Y-0.0591
X3.5827Y-2.6969
X3.6024Y-1.437
X3.622Y-1.7717
X3.6319Y-0.3543
X3.6319Y-0.4724
X3.6417Y-0.2953
X3.7402Y-1.437
X3.7402Y-2.1161
X3.7992Y-0.2756
X3.7992Y-0.5512
X3.7992Y-0.8268
X3.7992Y-1.1024
X3.7992Y-1.437
X3.7992Y-1.7717
X3.7992Y-2.0472
X3.7992Y-2.3228
X3.7992Y-2.5984
T3
X0.1555Y-0.7972
X0.1555Y-0.876
X0.1555Y-0.9547
X0.9539Y-2.3382
X1.0039Y-2.3382
X1.0524Y-1.9433
X1.0539Y-2.3382
X1.1024Y-1.9433
X1.1524Y-1.9433
X1.6732Y-0.1555
X1.752Y-0.1555
X1.8307Y-0.1555
X1.9094Y-0.1555
X2.1457Y-0.1555
X2.2244Y-0.1555
X2.3031Y-0.1555
X2.3819Y-0.1555
X2.4606Y-0.1555
X2.5394Y-0.1555
X3.2185Y-2.6102
X3.2972Y-2.6102
X3.7244Y-0.8465
X3.7244Y-0.9252
X3.7244Y-1.0039
X3.7244Y-1.0827
X3.7244Y-1.1614
X3.7244Y-1.2402
T4
X0.1673Y-1.3583
X0.1673Y-1.6319
X0.1673Y-1.9055
X0.2657Y-1.3583
X0.2657Y-1.6319
X0.2657Y-1.9055
X0.3642Y-1.3583
X0.3642Y-1.6319
X0.3642Y-1.9055
X0.4626Y-1.3583
X0.4626Y-1.6319
X0.4626Y-1.9055
X1.4252Y-2.4016
X1.4252Y-2.5
X1.4252Y-2.5984
X1.6988Y-2.4016
X1.6988Y-2.5
X1.6988Y-2.5984
X1.9724Y-2.4016
X1.9724Y-2.5
X1.9724Y-2.5984
X2.2461Y-2.4016
X2.2461Y-2.5
X2.2461Y-2.5984
X2.5197Y-2.4016
X2.5197Y-2.5
X2.5197Y-2.5984
X2.7933Y-2.4016
X2.7933Y-2.5
X2.7933Y-2.5984
T5
X2.4984Y-1.3703
X2.4984Y-1.7618
X2.5984Y-1.3703
X2.5984Y-1.7618
X2.6984Y-1.3703
X2.6984Y-1.7618
T6
X3.5906Y-1.9606
X3.5906Y-2.2441
T2
G00X3.1567Y-0.1309
M15
G01X3.1567Y-0.0994
M16
G05
G00X3.1567Y-0.3022
M15
G01X3.1567Y-0.2589
M16
G05
G00X3.4969Y-0.1309
M15
G01X3.4969Y-0.0994
M16
G05
G00X3.4969Y-0.3022
M15
G01X3.4969Y-0.2589
M16
G05
M30
