%TF.GenerationSoftware,KiCad,Pcbnew,8.0.7*%
%TF.CreationDate,2025-06-05T13:27:19+09:00*%
%TF.ProjectId,ACT_Base_board_v2,4143545f-4261-4736-955f-626f6172645f,rev?*%
%TF.SameCoordinates,PX2faf080PY2faf080*%
%TF.FileFunction,Copper,L2,Bot*%
%TF.FilePolarity,Positive*%
%FSLAX46Y46*%
G04 Gerber Fmt 4.6, Leading zero omitted, Abs format (unit mm)*
G04 Created by KiCad (PCBNEW 8.0.7) date 2025-06-05 13:27:19*
%MOMM*%
%LPD*%
G01*
G04 APERTURE LIST*
G04 Aperture macros list*
%AMRoundRect*
0 Rectangle with rounded corners*
0 $1 Rounding radius*
0 $2 $3 $4 $5 $6 $7 $8 $9 X,Y pos of 4 corners*
0 Add a 4 corners polygon primitive as box body*
4,1,4,$2,$3,$4,$5,$6,$7,$8,$9,$2,$3,0*
0 Add four circle primitives for the rounded corners*
1,1,$1+$1,$2,$3*
1,1,$1+$1,$4,$5*
1,1,$1+$1,$6,$7*
1,1,$1+$1,$8,$9*
0 Add four rect primitives between the rounded corners*
20,1,$1+$1,$2,$3,$4,$5,0*
20,1,$1+$1,$4,$5,$6,$7,0*
20,1,$1+$1,$6,$7,$8,$9,0*
20,1,$1+$1,$8,$9,$2,$3,0*%
G04 Aperture macros list end*
%TA.AperFunction,ComponentPad*%
%ADD10R,1.905000X2.000000*%
%TD*%
%TA.AperFunction,ComponentPad*%
%ADD11O,1.905000X2.000000*%
%TD*%
%TA.AperFunction,ComponentPad*%
%ADD12RoundRect,0.250000X0.675000X-0.600000X0.675000X0.600000X-0.675000X0.600000X-0.675000X-0.600000X0*%
%TD*%
%TA.AperFunction,ComponentPad*%
%ADD13O,1.850000X1.700000*%
%TD*%
%TA.AperFunction,ComponentPad*%
%ADD14RoundRect,0.250000X-0.625000X0.350000X-0.625000X-0.350000X0.625000X-0.350000X0.625000X0.350000X0*%
%TD*%
%TA.AperFunction,ComponentPad*%
%ADD15O,1.750000X1.200000*%
%TD*%
%TA.AperFunction,ComponentPad*%
%ADD16RoundRect,0.250000X0.625000X-0.350000X0.625000X0.350000X-0.625000X0.350000X-0.625000X-0.350000X0*%
%TD*%
%TA.AperFunction,ComponentPad*%
%ADD17RoundRect,0.250000X-0.600000X-0.675000X0.600000X-0.675000X0.600000X0.675000X-0.600000X0.675000X0*%
%TD*%
%TA.AperFunction,ComponentPad*%
%ADD18O,1.700000X1.850000*%
%TD*%
%TA.AperFunction,ComponentPad*%
%ADD19RoundRect,0.250000X-0.350000X-0.625000X0.350000X-0.625000X0.350000X0.625000X-0.350000X0.625000X0*%
%TD*%
%TA.AperFunction,ComponentPad*%
%ADD20O,1.200000X1.750000*%
%TD*%
%TA.AperFunction,ComponentPad*%
%ADD21O,1.000000X2.100000*%
%TD*%
%TA.AperFunction,ComponentPad*%
%ADD22O,1.000000X1.800000*%
%TD*%
%TA.AperFunction,ComponentPad*%
%ADD23R,1.050000X1.500000*%
%TD*%
%TA.AperFunction,ComponentPad*%
%ADD24O,1.050000X1.500000*%
%TD*%
%TA.AperFunction,ComponentPad*%
%ADD25RoundRect,1.500000X-1.500000X1.500000X-1.500000X-1.500000X1.500000X-1.500000X1.500000X1.500000X0*%
%TD*%
%TA.AperFunction,ComponentPad*%
%ADD26C,6.000000*%
%TD*%
%TA.AperFunction,ComponentPad*%
%ADD27RoundRect,0.250000X0.350000X0.625000X-0.350000X0.625000X-0.350000X-0.625000X0.350000X-0.625000X0*%
%TD*%
%TA.AperFunction,ViaPad*%
%ADD28C,0.800000*%
%TD*%
%TA.AperFunction,Conductor*%
%ADD29C,0.250000*%
%TD*%
%TA.AperFunction,Conductor*%
%ADD30C,2.000000*%
%TD*%
%TA.AperFunction,Conductor*%
%ADD31C,1.000000*%
%TD*%
%TA.AperFunction,Conductor*%
%ADD32C,0.200000*%
%TD*%
%TA.AperFunction,Conductor*%
%ADD33C,0.500000*%
%TD*%
G04 APERTURE END LIST*
D10*
%TO.P,U4,1,VI*%
%TO.N,Battery_VCC*%
X68540000Y-44750000D03*
D11*
%TO.P,U4,2,GND*%
%TO.N,GND*%
X66000000Y-44750000D03*
%TO.P,U4,3,VO*%
%TO.N,+5V*%
X63460000Y-44750000D03*
%TD*%
D12*
%TO.P,J11,1,Pin_1*%
%TO.N,GND*%
X57050000Y-66000000D03*
D13*
%TO.P,J11,2,Pin_2*%
%TO.N,Battery_VCC*%
X57050000Y-63500000D03*
%TO.P,J11,3,Pin_3*%
%TO.N,Servo*%
X57050000Y-61000000D03*
%TD*%
D12*
%TO.P,J10,1,Pin_1*%
%TO.N,GND*%
X50100000Y-66000000D03*
D13*
%TO.P,J10,2,Pin_2*%
%TO.N,Battery_VCC*%
X50100000Y-63500000D03*
%TO.P,J10,3,Pin_3*%
%TO.N,Servo*%
X50100000Y-61000000D03*
%TD*%
D14*
%TO.P,J1,1,Pin_1*%
%TO.N,GND*%
X94600000Y-21500000D03*
D15*
%TO.P,J1,2,Pin_2*%
%TO.N,Switch_R*%
X94600000Y-23500000D03*
%TO.P,J1,3,Pin_3*%
%TO.N,Switch_G*%
X94600000Y-25500000D03*
%TO.P,J1,4,Pin_4*%
%TO.N,Switch_B*%
X94600000Y-27500000D03*
%TO.P,J1,5,Pin_5*%
%TO.N,Net-(J1-Pin_5)*%
X94600000Y-29500000D03*
%TO.P,J1,6,Pin_6*%
%TO.N,Battery_VCC*%
X94600000Y-31500000D03*
%TD*%
D16*
%TO.P,J4,1,Pin_1*%
%TO.N,GND*%
X3950000Y-24250000D03*
D15*
%TO.P,J4,2,Pin_2*%
%TO.N,+5V*%
X3950000Y-22250000D03*
%TO.P,J4,3,Pin_3*%
%TO.N,Net-(J4-Pin_3)*%
X3950000Y-20250000D03*
%TD*%
D17*
%TO.P,J15,1,Pin_1*%
%TO.N,GND*%
X4250000Y-41450000D03*
D18*
%TO.P,J15,2,Pin_2*%
%TO.N,+5V*%
X6750000Y-41450000D03*
%TO.P,J15,3,Pin_3*%
%TO.N,Serial_+*%
X9250000Y-41450000D03*
%TO.P,J15,4,Pin_4*%
%TO.N,Serial_-*%
X11750000Y-41450000D03*
%TD*%
D19*
%TO.P,J5,1,Pin_1*%
%TO.N,GND*%
X54500000Y-3950000D03*
D20*
%TO.P,J5,2,Pin_2*%
%TO.N,+3V3*%
X56500000Y-3950000D03*
%TO.P,J5,3,Pin_3*%
%TO.N,SPI_MOSI*%
X58500000Y-3950000D03*
%TO.P,J5,4,Pin_4*%
%TO.N,SPI_MISO*%
X60500000Y-3950000D03*
%TO.P,J5,5,Pin_5*%
%TO.N,SPI_SCK*%
X62500000Y-3950000D03*
%TO.P,J5,6,Pin_6*%
%TO.N,SPI_SS*%
X64500000Y-3950000D03*
%TD*%
D12*
%TO.P,J13,1,Pin_1*%
%TO.N,GND*%
X70950000Y-66000000D03*
D13*
%TO.P,J13,2,Pin_2*%
%TO.N,Battery_VCC*%
X70950000Y-63500000D03*
%TO.P,J13,3,Pin_3*%
%TO.N,Servo*%
X70950000Y-61000000D03*
%TD*%
D12*
%TO.P,J8,1,Pin_1*%
%TO.N,GND*%
X36200000Y-66000000D03*
D13*
%TO.P,J8,2,Pin_2*%
%TO.N,Battery_VCC*%
X36200000Y-63500000D03*
%TO.P,J8,3,Pin_3*%
%TO.N,Servo*%
X36200000Y-61000000D03*
%TD*%
D21*
%TO.P,J3,S1,SHIELD*%
%TO.N,GND*%
X88820000Y-7125000D03*
D22*
X88820000Y-2925000D03*
D21*
X80180000Y-7125000D03*
D22*
X80180000Y-2925000D03*
%TD*%
D19*
%TO.P,J7,1,Pin_1*%
%TO.N,GND*%
X42500000Y-3950000D03*
D20*
%TO.P,J7,2,Pin_2*%
%TO.N,+3V3*%
X44500000Y-3950000D03*
%TO.P,J7,3,Pin_3*%
%TO.N,I2C_SDA*%
X46500000Y-3950000D03*
%TO.P,J7,4,Pin_4*%
%TO.N,I2C_SCL*%
X48500000Y-3950000D03*
%TD*%
D12*
%TO.P,J9,1,Pin_1*%
%TO.N,GND*%
X43150000Y-66000000D03*
D13*
%TO.P,J9,2,Pin_2*%
%TO.N,Battery_VCC*%
X43150000Y-63500000D03*
%TO.P,J9,3,Pin_3*%
%TO.N,Servo*%
X43150000Y-61000000D03*
%TD*%
D10*
%TO.P,U5,1,VI*%
%TO.N,Battery_VCC*%
X68540000Y-34805000D03*
D11*
%TO.P,U5,2,GND*%
%TO.N,GND*%
X66000000Y-34805000D03*
%TO.P,U5,3,VO*%
%TO.N,+3V3*%
X63460000Y-34805000D03*
%TD*%
D12*
%TO.P,J12,1,Pin_1*%
%TO.N,GND*%
X64000000Y-66000000D03*
D13*
%TO.P,J12,2,Pin_2*%
%TO.N,Battery_VCC*%
X64000000Y-63500000D03*
%TO.P,J12,3,Pin_3*%
%TO.N,Servo*%
X64000000Y-61000000D03*
%TD*%
D17*
%TO.P,J16,1,Pin_1*%
%TO.N,GND*%
X4250000Y-48400000D03*
D18*
%TO.P,J16,2,Pin_2*%
%TO.N,+5V*%
X6750000Y-48400000D03*
%TO.P,J16,3,Pin_3*%
%TO.N,Serial_+*%
X9250000Y-48400000D03*
%TO.P,J16,4,Pin_4*%
%TO.N,Serial_-*%
X11750000Y-48400000D03*
%TD*%
D23*
%TO.P,Q8,1,E*%
%TO.N,+3V3*%
X26730000Y-49360000D03*
D24*
%TO.P,Q8,2,C*%
%TO.N,Net-(Q8-C)*%
X28000000Y-49360000D03*
%TO.P,Q8,3,B*%
%TO.N,Net-(Q8-B)*%
X29270000Y-49360000D03*
%TD*%
D23*
%TO.P,Q6,1,E*%
%TO.N,+3V3*%
X26770000Y-59390000D03*
D24*
%TO.P,Q6,2,C*%
%TO.N,Net-(Q6-C)*%
X25500000Y-59390000D03*
%TO.P,Q6,3,B*%
%TO.N,Net-(Q6-B)*%
X24230000Y-59390000D03*
%TD*%
D25*
%TO.P,J2,1,Pin_1*%
%TO.N,Battery_GND*%
X91200000Y-49800000D03*
D26*
%TO.P,J2,2,Pin_2*%
%TO.N,Battery_VCC*%
X91200000Y-57000000D03*
%TD*%
D27*
%TO.P,J6,1,Pin_1*%
%TO.N,GND*%
X83750000Y-66300000D03*
D20*
%TO.P,J6,2,Pin_2*%
%TO.N,Battery_VCC*%
X81750000Y-66300000D03*
%TD*%
D17*
%TO.P,J14,1,Pin_1*%
%TO.N,GND*%
X4250000Y-34500000D03*
D18*
%TO.P,J14,2,Pin_2*%
%TO.N,+5V*%
X6750000Y-34500000D03*
%TO.P,J14,3,Pin_3*%
%TO.N,Serial_+*%
X9250000Y-34500000D03*
%TO.P,J14,4,Pin_4*%
%TO.N,Serial_-*%
X11750000Y-34500000D03*
%TD*%
D28*
%TO.N,EN*%
X68364000Y-15532000D03*
%TO.N,GND*%
X28000000Y-1500000D03*
X81000000Y-17000000D03*
X70000000Y-40000000D03*
X16500000Y-65500000D03*
X66000000Y-29000000D03*
X27000000Y-13000000D03*
X12000000Y-64000000D03*
X95000000Y-53750000D03*
X52500000Y-5000000D03*
X96500000Y-14000000D03*
X85000000Y-5000000D03*
X15000000Y-32000000D03*
X36000000Y-54000000D03*
X31000000Y-9000000D03*
X51750000Y-12500000D03*
X91000000Y-68500000D03*
X89500000Y-9000000D03*
X31000000Y-17000000D03*
X42000000Y-1400000D03*
X35000000Y-1500000D03*
X43000000Y-7500000D03*
X40000000Y-40000000D03*
X8250000Y-31100000D03*
X66000000Y-47250000D03*
X22500000Y-47500000D03*
X33000000Y-9000000D03*
X89000000Y-43000000D03*
X65000000Y-54000000D03*
X55000000Y-46500000D03*
X55000000Y-54000000D03*
X9000000Y-26000000D03*
X33000000Y-3000000D03*
X66000000Y-52500000D03*
X40000000Y-49000000D03*
X70000000Y-54000000D03*
X45000000Y-7500000D03*
X33000000Y-13000000D03*
X96500000Y-7000000D03*
X59000000Y-6000000D03*
X28000000Y-68500000D03*
X62500000Y-10000000D03*
X56000000Y-68500000D03*
X14000000Y-68500000D03*
X36000000Y-24000000D03*
X29000000Y-9000000D03*
X55000000Y-35000000D03*
X48000000Y-23500000D03*
X55000000Y-50000000D03*
X67500000Y-7500000D03*
X22500000Y-50000000D03*
X87700000Y-9200000D03*
X96500000Y-52000000D03*
X92500000Y-7500000D03*
X74250000Y-33000000D03*
X30000000Y-23000000D03*
X80500000Y-9250000D03*
X44000000Y-37750000D03*
X31000000Y-13000000D03*
X70750000Y-31500000D03*
X29000000Y-15000000D03*
X20000000Y-64000000D03*
X74000000Y-4000000D03*
X50000000Y-5000000D03*
X17000000Y-58750000D03*
X45000000Y-45000000D03*
X15000000Y-35000000D03*
X66000000Y-32750000D03*
X34000000Y-33750000D03*
X40500000Y-4000000D03*
X1500000Y-45000000D03*
X55000000Y-24000000D03*
X50000000Y-50000000D03*
X8500000Y-56000000D03*
X84000000Y-63000000D03*
X60000000Y-30000000D03*
X14500000Y-65500000D03*
X74250000Y-30000000D03*
X1500000Y-14000000D03*
X55000000Y-7500000D03*
X85000000Y-2500000D03*
X65000000Y-24000000D03*
X92000000Y-45000000D03*
X25250000Y-36000000D03*
X62500000Y-40000000D03*
X45600000Y-37000000D03*
X63000000Y-68500000D03*
X56000000Y-1400000D03*
X63000000Y-1500000D03*
X91000000Y-1500000D03*
X29000000Y-13000000D03*
X42000000Y-68500000D03*
X81000000Y-33000000D03*
X20000000Y-65500000D03*
X40000000Y-54000000D03*
X76500000Y-30000000D03*
X27000000Y-17000000D03*
X31000000Y-29000000D03*
X50000000Y-7500000D03*
X48000000Y-35000000D03*
X48000000Y-22250000D03*
X83000000Y-30000000D03*
X86000000Y-48500000D03*
X40000000Y-30000000D03*
X8250000Y-38100000D03*
X60000000Y-50000000D03*
X18000000Y-38000000D03*
X17500000Y-47500000D03*
X25000000Y-15000000D03*
X49000000Y-35000000D03*
X29000000Y-3000000D03*
X37750000Y-42500000D03*
X48100000Y-39800000D03*
X75000000Y-49000000D03*
X96500000Y-28000000D03*
X17500000Y-45000000D03*
X9000000Y-14000000D03*
X41000000Y-7500000D03*
X23000000Y-13000000D03*
X91500000Y-36500000D03*
X16500000Y-64000000D03*
X21000000Y-17000000D03*
X23000000Y-3000000D03*
X87500000Y-2500000D03*
X70000000Y-7500000D03*
X42750000Y-16750000D03*
X60000000Y-24000000D03*
X1500000Y-52000000D03*
X31000000Y-11000000D03*
X29000000Y-29000000D03*
X72500000Y-12500000D03*
X28500000Y-34500000D03*
X96500000Y-66000000D03*
X96500000Y-36500000D03*
X77000000Y-68500000D03*
X21000000Y-9000000D03*
X82500000Y-2500000D03*
X70000000Y-49000000D03*
X33000000Y-15000000D03*
X51000000Y-39000000D03*
X75000000Y-12500000D03*
X90750000Y-8500000D03*
X66000000Y-51000000D03*
X1500000Y-21000000D03*
X74000000Y-40000000D03*
X55000000Y-37400000D03*
X27000000Y-3000000D03*
X77250000Y-31500000D03*
X33000000Y-17000000D03*
X81500000Y-22750000D03*
X50000000Y-35000000D03*
X44000000Y-24000000D03*
X49000000Y-1400000D03*
X21000000Y-1500000D03*
X17500000Y-50000000D03*
X49000000Y-68500000D03*
X33000000Y-11000000D03*
X47000000Y-13500000D03*
X22500000Y-45000000D03*
X8500000Y-59500000D03*
X14000000Y-1500000D03*
X31000000Y-3000000D03*
X77500000Y-5000000D03*
X9000000Y-21000000D03*
X44000000Y-39750000D03*
X60000000Y-12500000D03*
X81000000Y-47000000D03*
X49500000Y-15500000D03*
X1500000Y-66000000D03*
X45000000Y-54000000D03*
X90000000Y-21000000D03*
X70000000Y-68500000D03*
X21000000Y-11000000D03*
X89000000Y-37000000D03*
X87500000Y-53500000D03*
X60000000Y-54000000D03*
X22500000Y-38250000D03*
X7000000Y-1500000D03*
X21000000Y-15000000D03*
X7000000Y-68500000D03*
X90000000Y-14000000D03*
X74000000Y-6000000D03*
X25000000Y-17000000D03*
X23000000Y-17000000D03*
X20000000Y-30000000D03*
X84000000Y-1500000D03*
X60000000Y-33000000D03*
X84000000Y-68500000D03*
X87500000Y-5000000D03*
X1500000Y-38000000D03*
X35000000Y-68500000D03*
X47500000Y-15500000D03*
X29000000Y-11000000D03*
X78500000Y-9250000D03*
X81000000Y-42000000D03*
X23000000Y-11000000D03*
X25000000Y-3000000D03*
X96500000Y-21000000D03*
X36000000Y-20750000D03*
X70000000Y-24000000D03*
X30250000Y-38750000D03*
X22500000Y-35750000D03*
X55000000Y-30000000D03*
X40500000Y-24000000D03*
X53000000Y-39000000D03*
X62500000Y-12500000D03*
X40000000Y-35000000D03*
X29000000Y-65500000D03*
X77000000Y-1500000D03*
X96500000Y-59000000D03*
X85000000Y-60000000D03*
X31000000Y-15000000D03*
X65000000Y-7500000D03*
X12000000Y-53500000D03*
X77000000Y-62000000D03*
X23000000Y-9000000D03*
X16000000Y-10000000D03*
X82500000Y-5000000D03*
X67500000Y-12500000D03*
X15000000Y-38000000D03*
X21000000Y-68500000D03*
X44000000Y-29000000D03*
X50000000Y-54000000D03*
X55250000Y-12500000D03*
X34500000Y-29000000D03*
X81000000Y-52000000D03*
X44500000Y-17500000D03*
X66000000Y-49250000D03*
X90000000Y-5000000D03*
X28500000Y-42000000D03*
X96500000Y-45000000D03*
X17000000Y-61000000D03*
X7000000Y-14000000D03*
X75000000Y-24000000D03*
X15000000Y-25000000D03*
X51250000Y-15250000D03*
X95000000Y-36500000D03*
X77500000Y-7500000D03*
X18000000Y-35000000D03*
X25250000Y-38500000D03*
X60000000Y-46500000D03*
X23500000Y-40000000D03*
X42750000Y-33000000D03*
X8250000Y-45100000D03*
X29000000Y-17000000D03*
X52500000Y-7500000D03*
X86000000Y-13000000D03*
X70000000Y-10000000D03*
X25000000Y-13000000D03*
X45000000Y-49000000D03*
X70000000Y-1500000D03*
X23000000Y-15000000D03*
X1500000Y-28000000D03*
X27000000Y-15000000D03*
X74000000Y-8000000D03*
X66000000Y-30500000D03*
X53500000Y-12500000D03*
X12000000Y-56000000D03*
X14500000Y-55250000D03*
X21000000Y-13000000D03*
X1500000Y-59000000D03*
X46200000Y-39800000D03*
X66000000Y-40000000D03*
X81000000Y-37000000D03*
X67500000Y-10000000D03*
X70000000Y-5000000D03*
X67500000Y-5000000D03*
X21000000Y-3000000D03*
X1500000Y-7000000D03*
X84000000Y-17000000D03*
X84000000Y-33000000D03*
X72250000Y-30000000D03*
X7000000Y-7000000D03*
X70000000Y-12500000D03*
X82000000Y-18000000D03*
X89000000Y-40000000D03*
%TO.N,+5V*%
X23000000Y-63500000D03*
%TO.N,Net-(J3-CC1)*%
X92250000Y-9000000D03*
X86250000Y-10250000D03*
%TO.N,USB_D-*%
X86250000Y-21500000D03*
X87750000Y-20000000D03*
%TO.N,Net-(J3-CC2)*%
X83000000Y-10250000D03*
X92250000Y-12000000D03*
%TO.N,EN*%
X51200000Y-17600000D03*
X44400000Y-16200000D03*
X16000000Y-6500000D03*
%TO.N,+3V3*%
X46781750Y-30618250D03*
X58000000Y-33500000D03*
X45200000Y-41200000D03*
X71200000Y-8800000D03*
X49900000Y-30618250D03*
X14000000Y-3500000D03*
X10960000Y-12250000D03*
%TO.N,Boot*%
X37500000Y-18750000D03*
X43000000Y-18750000D03*
%TO.N,Switch_R*%
X16750000Y-13750000D03*
%TO.N,Switch_B*%
X16750000Y-16250000D03*
%TO.N,Switch_G*%
X16750000Y-15000000D03*
%TO.N,I2C_SDA*%
X46500000Y-11500000D03*
X46500000Y-8000000D03*
%TO.N,I2C_SCL*%
X48500000Y-11500000D03*
X39600000Y-6200000D03*
X48500000Y-8000000D03*
%TO.N,Net-(Q2-S)*%
X79250000Y-14500000D03*
X73250000Y-14500000D03*
%TO.N,Net-(Q2-G)*%
X73250000Y-16500000D03*
X79250000Y-16500000D03*
%TO.N,NeoPixel*%
X12750000Y-10500000D03*
X37500000Y-17500000D03*
%TO.N,Net-(Q7-S)*%
X12750000Y-58115000D03*
X7050000Y-58100000D03*
%TO.N,V_div*%
X69300000Y-28600000D03*
X22250000Y-23000000D03*
%TO.N,U2TXD*%
X36750003Y-50000000D03*
X33500000Y-54000000D03*
%TO.N,U1TXD*%
X16750000Y-12500000D03*
X34000000Y-36250000D03*
%TO.N,U0TXD*%
X37600000Y-6090000D03*
X77600000Y-22400000D03*
%TO.N,U1RXD*%
X16750000Y-11250000D03*
X32500000Y-36250000D03*
X32500000Y-39000000D03*
X32500000Y-44000000D03*
%TO.N,U0RXD*%
X77600000Y-21200000D03*
X38600000Y-7360000D03*
%TO.N,U2RXD*%
X33500000Y-53000000D03*
X21500000Y-60750000D03*
X35750000Y-50000000D03*
X25000000Y-54500000D03*
%TD*%
D29*
%TO.N,EN*%
X68332000Y-15500000D02*
X68364000Y-15532000D01*
X53300000Y-15500000D02*
X68332000Y-15500000D01*
D30*
%TO.N,GND*%
X81000000Y-33250000D02*
X81000000Y-36750000D01*
D31*
%TO.N,+5V*%
X17000000Y-51500000D02*
X20000000Y-54500000D01*
X6750000Y-48400000D02*
X6750000Y-50250000D01*
X20000000Y-54500000D02*
X20000000Y-61500000D01*
X20000000Y-61500000D02*
X22000000Y-63500000D01*
X8000000Y-51500000D02*
X17000000Y-51500000D01*
X6750000Y-50250000D02*
X8000000Y-51500000D01*
X22000000Y-63500000D02*
X23000000Y-63500000D01*
D29*
%TO.N,Net-(J3-CC1)*%
X91000000Y-10250000D02*
X92250000Y-9000000D01*
X86250000Y-10250000D02*
X91000000Y-10250000D01*
D32*
%TO.N,USB_D-*%
X87750000Y-20000000D02*
X86250000Y-21500000D01*
D29*
%TO.N,Net-(J3-CC2)*%
X84250000Y-10250000D02*
X86000000Y-12000000D01*
X86000000Y-12000000D02*
X92250000Y-12000000D01*
X83000000Y-10250000D02*
X84250000Y-10250000D01*
%TO.N,EN*%
X34700000Y-6500000D02*
X16000000Y-6500000D01*
X51200000Y-17600000D02*
X53300000Y-15500000D01*
X44400000Y-16200000D02*
X34700000Y-6500000D01*
D33*
%TO.N,+3V3*%
X49981750Y-30618250D02*
X52863500Y-33500000D01*
D29*
X44500000Y-3950000D02*
X44500000Y-3100000D01*
D31*
X28500000Y-54500000D02*
X27750000Y-55250000D01*
D29*
X44500000Y-4700000D02*
X43800000Y-5400000D01*
D31*
X26730000Y-54000000D02*
X26730000Y-49360000D01*
D29*
X56500000Y-3950000D02*
X56500000Y-5900000D01*
D31*
X26730000Y-33130000D02*
X26730000Y-36800000D01*
D29*
X43765000Y-5365000D02*
X15865000Y-5365000D01*
X44500000Y-3950000D02*
X44500000Y-4700000D01*
D31*
X26770000Y-56230000D02*
X26770000Y-59390000D01*
X10960000Y-17360000D02*
X26730000Y-33130000D01*
D33*
X49900000Y-30618250D02*
X49981750Y-30618250D01*
D31*
X26730000Y-58960000D02*
X26730000Y-54000000D01*
D29*
X43800000Y-5400000D02*
X43765000Y-5365000D01*
X56500000Y-5900000D02*
X59400000Y-8800000D01*
X59400000Y-8800000D02*
X71200000Y-8800000D01*
D31*
X28250000Y-54750000D02*
X28500000Y-54500000D01*
X41750000Y-41250000D02*
X28500000Y-54500000D01*
X26770000Y-59390000D02*
X26770000Y-59000000D01*
X44250000Y-41250000D02*
X41750000Y-41250000D01*
D33*
X49900000Y-30618250D02*
X46781750Y-30618250D01*
D31*
X26730000Y-37600000D02*
X26730000Y-38400000D01*
X58000000Y-33500000D02*
X58000000Y-38000000D01*
X26730000Y-54230000D02*
X27250000Y-54750000D01*
D33*
X52863500Y-33500000D02*
X58000000Y-33500000D01*
D31*
X27750000Y-55250000D02*
X26770000Y-56230000D01*
D29*
X44500000Y-3100000D02*
X45200000Y-2400000D01*
X45200000Y-2400000D02*
X55800000Y-2400000D01*
D31*
X46250000Y-41250000D02*
X44250000Y-41250000D01*
X10960000Y-12250000D02*
X10960000Y-6540000D01*
X58000000Y-38000000D02*
X54750000Y-41250000D01*
X26730000Y-54000000D02*
X26730000Y-54230000D01*
X10960000Y-6540000D02*
X14000000Y-3500000D01*
X27250000Y-54750000D02*
X28250000Y-54750000D01*
D29*
X56500000Y-3100000D02*
X56500000Y-3950000D01*
D31*
X10960000Y-14135000D02*
X10960000Y-12250000D01*
D29*
X55800000Y-2400000D02*
X56500000Y-3100000D01*
D31*
X27250000Y-54750000D02*
X27750000Y-55250000D01*
D29*
X15865000Y-5365000D02*
X14000000Y-3500000D01*
D31*
X26730000Y-38400000D02*
X26730000Y-49360000D01*
X26770000Y-59000000D02*
X26730000Y-58960000D01*
X26730000Y-36800000D02*
X26730000Y-37600000D01*
X10960000Y-14135000D02*
X10960000Y-17360000D01*
X54750000Y-41250000D02*
X46250000Y-41250000D01*
D29*
%TO.N,Boot*%
X37500000Y-18750000D02*
X43000000Y-18750000D01*
%TO.N,Switch_R*%
X16750000Y-13750000D02*
X18500000Y-15500000D01*
X80263604Y-25600000D02*
X82363604Y-23500000D01*
X23500000Y-21250000D02*
X27850000Y-25600000D01*
X21750000Y-21250000D02*
X23500000Y-21250000D01*
X18500000Y-15500000D02*
X18500000Y-18000000D01*
X82363604Y-23500000D02*
X94600000Y-23500000D01*
X18500000Y-18000000D02*
X21750000Y-21250000D01*
X27850000Y-25600000D02*
X80263604Y-25600000D01*
%TO.N,Switch_B*%
X80500000Y-26500000D02*
X81500000Y-27500000D01*
X27250000Y-26500000D02*
X80500000Y-26500000D01*
X16750000Y-16250000D02*
X17500000Y-17000000D01*
X81500000Y-27500000D02*
X94600000Y-27500000D01*
X21250000Y-22250000D02*
X23000000Y-22250000D01*
X17500000Y-17000000D02*
X17500000Y-18500000D01*
X23000000Y-22250000D02*
X27250000Y-26500000D01*
X17500000Y-18500000D02*
X21250000Y-22250000D01*
%TO.N,Switch_G*%
X21500000Y-21750000D02*
X23250000Y-21750000D01*
X18000000Y-18250000D02*
X21500000Y-21750000D01*
X81000000Y-25500000D02*
X94600000Y-25500000D01*
X23250000Y-21750000D02*
X27550000Y-26050000D01*
X80450000Y-26050000D02*
X81000000Y-25500000D01*
X18000000Y-16250000D02*
X18000000Y-18250000D01*
X16750000Y-15000000D02*
X18000000Y-16250000D01*
X27550000Y-26050000D02*
X80450000Y-26050000D01*
D30*
%TO.N,Battery_VCC*%
X82400000Y-57600000D02*
X84000000Y-56000000D01*
D31*
X86125000Y-57475000D02*
X86000000Y-57600000D01*
X85000000Y-55000000D02*
X85000000Y-57600000D01*
X84000000Y-53750000D02*
X84000000Y-38000000D01*
D30*
X85000000Y-57600000D02*
X86000000Y-57600000D01*
D31*
X85125000Y-54875000D02*
X85000000Y-55000000D01*
X86125000Y-55875000D02*
X85125000Y-54875000D01*
X85000000Y-57000000D02*
X85000000Y-57600000D01*
D30*
X36125000Y-63500000D02*
X70875000Y-63500000D01*
D31*
X85125000Y-54875000D02*
X84000000Y-53750000D01*
X84000000Y-38000000D02*
X90500000Y-31500000D01*
X84000000Y-53750000D02*
X84000000Y-56000000D01*
D30*
X84000000Y-57600000D02*
X85000000Y-57600000D01*
D31*
X87850000Y-57600000D02*
X88000000Y-57600000D01*
D30*
X88000000Y-57600000D02*
X90600000Y-57600000D01*
D31*
X90600000Y-57600000D02*
X91200000Y-57000000D01*
X86125000Y-55875000D02*
X85000000Y-57000000D01*
D30*
X70950000Y-63500000D02*
X72500000Y-63500000D01*
D31*
X86125000Y-55875000D02*
X87850000Y-57600000D01*
D30*
X72500000Y-63500000D02*
X78400000Y-57600000D01*
D31*
X90500000Y-31500000D02*
X94600000Y-31500000D01*
D30*
X82000000Y-57600000D02*
X82400000Y-57600000D01*
D31*
X86125000Y-55875000D02*
X86125000Y-57475000D01*
D30*
X86000000Y-57600000D02*
X88000000Y-57600000D01*
X82000000Y-57600000D02*
X84000000Y-57600000D01*
X78400000Y-57600000D02*
X82000000Y-57600000D01*
D29*
%TO.N,I2C_SDA*%
X46500000Y-8000000D02*
X46500000Y-11500000D01*
%TO.N,I2C_SCL*%
X47400000Y-6200000D02*
X48500000Y-5100000D01*
X48500000Y-5100000D02*
X48500000Y-4000000D01*
X48500000Y-11500000D02*
X48500000Y-8000000D01*
X48500000Y-4000000D02*
X48500000Y-3950000D01*
X39600000Y-6200000D02*
X47400000Y-6200000D01*
%TO.N,Serial_-*%
X11750000Y-48400000D02*
X11750000Y-34500000D01*
%TO.N,Serial_+*%
X9250000Y-34500000D02*
X9250000Y-48400000D01*
%TO.N,Net-(Q2-S)*%
X73250000Y-14500000D02*
X79250000Y-14500000D01*
%TO.N,Net-(Q2-G)*%
X79250000Y-16500000D02*
X73250000Y-16500000D01*
%TO.N,NeoPixel*%
X17000000Y-7250000D02*
X16000000Y-7250000D01*
X34250000Y-7250000D02*
X17000000Y-7250000D01*
X16000000Y-7250000D02*
X12750000Y-10500000D01*
X37500000Y-10500000D02*
X34250000Y-7250000D01*
X37500000Y-17500000D02*
X37500000Y-10500000D01*
%TO.N,Net-(Q7-S)*%
X7050000Y-58100000D02*
X12735000Y-58100000D01*
X12735000Y-58100000D02*
X12750000Y-58115000D01*
%TO.N,V_div*%
X67950000Y-27250000D02*
X26500000Y-27250000D01*
X26500000Y-27250000D02*
X22250000Y-23000000D01*
X69300000Y-28600000D02*
X67950000Y-27250000D01*
%TO.N,U2TXD*%
X36750003Y-50775302D02*
X33525305Y-54000000D01*
X36750003Y-50000000D02*
X36750003Y-50775302D01*
X33525305Y-54000000D02*
X33500000Y-54000000D01*
%TO.N,U1TXD*%
X15500000Y-12500000D02*
X16750000Y-12500000D01*
X34000000Y-36250000D02*
X15000000Y-17250000D01*
X15000000Y-17250000D02*
X15000000Y-13000000D01*
X15000000Y-13000000D02*
X15500000Y-12500000D01*
%TO.N,U0TXD*%
X52163604Y-22400000D02*
X54600000Y-22400000D01*
X77600000Y-22400000D02*
X54600000Y-22400000D01*
X37600000Y-6090000D02*
X37600000Y-7836396D01*
X37600000Y-7836396D02*
X52163604Y-22400000D01*
%TO.N,U1RXD*%
X32500000Y-44000000D02*
X32500000Y-39000000D01*
X15500000Y-11250000D02*
X14250000Y-12500000D01*
X14250000Y-12500000D02*
X14250000Y-18000000D01*
X14250000Y-18000000D02*
X32500000Y-36250000D01*
X16750000Y-11250000D02*
X15500000Y-11250000D01*
%TO.N,U0RXD*%
X52350000Y-21950000D02*
X76850000Y-21950000D01*
X38600000Y-7360000D02*
X38600000Y-8200000D01*
X76850000Y-21950000D02*
X77600000Y-21200000D01*
X38600000Y-8200000D02*
X52350000Y-21950000D01*
%TO.N,U2RXD*%
X25000000Y-56000000D02*
X21500000Y-59500000D01*
X25000000Y-54500000D02*
X25000000Y-56000000D01*
X35750000Y-50000000D02*
X35750000Y-50750000D01*
X35750000Y-50750000D02*
X33500000Y-53000000D01*
X21500000Y-59500000D02*
X21500000Y-60750000D01*
%TD*%
%TA.AperFunction,Conductor*%
%TO.N,GND*%
G36*
X84352756Y-36019685D02*
G01*
X84398511Y-36072489D01*
X84408455Y-36141647D01*
X84379430Y-36205203D01*
X84373398Y-36211681D01*
X83362221Y-37222858D01*
X83362218Y-37222861D01*
X83292538Y-37292540D01*
X83222859Y-37362219D01*
X83113371Y-37526079D01*
X83113364Y-37526092D01*
X83037950Y-37708160D01*
X83037947Y-37708170D01*
X82999500Y-37901456D01*
X82999500Y-54827110D01*
X82979815Y-54894149D01*
X82963181Y-54914791D01*
X81814792Y-56063181D01*
X81753469Y-56096666D01*
X81727111Y-56099500D01*
X78281903Y-56099500D01*
X78048631Y-56136446D01*
X77824003Y-56209433D01*
X77613565Y-56316657D01*
X77422488Y-56455484D01*
X77422487Y-56455485D01*
X72570795Y-61307176D01*
X72509472Y-61340661D01*
X72439780Y-61335677D01*
X72383847Y-61293805D01*
X72359430Y-61228341D01*
X72360640Y-61200104D01*
X72375500Y-61106287D01*
X72375500Y-60893713D01*
X72342246Y-60683757D01*
X72276557Y-60481588D01*
X72180051Y-60292184D01*
X72180049Y-60292181D01*
X72180048Y-60292179D01*
X72055109Y-60120213D01*
X71904786Y-59969890D01*
X71732820Y-59844951D01*
X71543414Y-59748444D01*
X71543413Y-59748443D01*
X71543412Y-59748443D01*
X71341243Y-59682754D01*
X71341241Y-59682753D01*
X71341240Y-59682753D01*
X71179957Y-59657208D01*
X71131287Y-59649500D01*
X70768713Y-59649500D01*
X70720042Y-59657208D01*
X70558760Y-59682753D01*
X70356585Y-59748444D01*
X70167179Y-59844951D01*
X69995213Y-59969890D01*
X69844890Y-60120213D01*
X69719951Y-60292179D01*
X69623444Y-60481585D01*
X69557753Y-60683760D01*
X69524500Y-60893713D01*
X69524500Y-61106286D01*
X69557753Y-61316239D01*
X69623444Y-61518414D01*
X69719951Y-61707820D01*
X69788823Y-61802615D01*
X69812303Y-61868422D01*
X69796477Y-61936475D01*
X69746371Y-61985170D01*
X69688505Y-61999500D01*
X65261495Y-61999500D01*
X65194456Y-61979815D01*
X65148701Y-61927011D01*
X65138757Y-61857853D01*
X65161177Y-61802615D01*
X65230048Y-61707820D01*
X65230047Y-61707820D01*
X65230051Y-61707816D01*
X65326557Y-61518412D01*
X65392246Y-61316243D01*
X65425500Y-61106287D01*
X65425500Y-60893713D01*
X65392246Y-60683757D01*
X65326557Y-60481588D01*
X65230051Y-60292184D01*
X65230049Y-60292181D01*
X65230048Y-60292179D01*
X65105109Y-60120213D01*
X64954786Y-59969890D01*
X64782820Y-59844951D01*
X64593414Y-59748444D01*
X64593413Y-59748443D01*
X64593412Y-59748443D01*
X64391243Y-59682754D01*
X64391241Y-59682753D01*
X64391240Y-59682753D01*
X64229957Y-59657208D01*
X64181287Y-59649500D01*
X63818713Y-59649500D01*
X63770042Y-59657208D01*
X63608760Y-59682753D01*
X63406585Y-59748444D01*
X63217179Y-59844951D01*
X63045213Y-59969890D01*
X62894890Y-60120213D01*
X62769951Y-60292179D01*
X62673444Y-60481585D01*
X62607753Y-60683760D01*
X62574500Y-60893713D01*
X62574500Y-61106286D01*
X62607753Y-61316239D01*
X62673444Y-61518414D01*
X62769951Y-61707820D01*
X62838823Y-61802615D01*
X62862303Y-61868422D01*
X62846477Y-61936475D01*
X62796371Y-61985170D01*
X62738505Y-61999500D01*
X58311495Y-61999500D01*
X58244456Y-61979815D01*
X58198701Y-61927011D01*
X58188757Y-61857853D01*
X58211177Y-61802615D01*
X58280048Y-61707820D01*
X58280047Y-61707820D01*
X58280051Y-61707816D01*
X58376557Y-61518412D01*
X58442246Y-61316243D01*
X58475500Y-61106287D01*
X58475500Y-60893713D01*
X58442246Y-60683757D01*
X58376557Y-60481588D01*
X58280051Y-60292184D01*
X58280049Y-60292181D01*
X58280048Y-60292179D01*
X58155109Y-60120213D01*
X58004786Y-59969890D01*
X57832820Y-59844951D01*
X57643414Y-59748444D01*
X57643413Y-59748443D01*
X57643412Y-59748443D01*
X57441243Y-59682754D01*
X57441241Y-59682753D01*
X57441240Y-59682753D01*
X57279957Y-59657208D01*
X57231287Y-59649500D01*
X56868713Y-59649500D01*
X56820042Y-59657208D01*
X56658760Y-59682753D01*
X56456585Y-59748444D01*
X56267179Y-59844951D01*
X56095213Y-59969890D01*
X55944890Y-60120213D01*
X55819951Y-60292179D01*
X55723444Y-60481585D01*
X55657753Y-60683760D01*
X55624500Y-60893713D01*
X55624500Y-61106286D01*
X55657753Y-61316239D01*
X55723444Y-61518414D01*
X55819951Y-61707820D01*
X55888823Y-61802615D01*
X55912303Y-61868422D01*
X55896477Y-61936475D01*
X55846371Y-61985170D01*
X55788505Y-61999500D01*
X51361495Y-61999500D01*
X51294456Y-61979815D01*
X51248701Y-61927011D01*
X51238757Y-61857853D01*
X51261177Y-61802615D01*
X51330048Y-61707820D01*
X51330047Y-61707820D01*
X51330051Y-61707816D01*
X51426557Y-61518412D01*
X51492246Y-61316243D01*
X51525500Y-61106287D01*
X51525500Y-60893713D01*
X51492246Y-60683757D01*
X51426557Y-60481588D01*
X51330051Y-60292184D01*
X51330049Y-60292181D01*
X51330048Y-60292179D01*
X51205109Y-60120213D01*
X51054786Y-59969890D01*
X50882820Y-59844951D01*
X50693414Y-59748444D01*
X50693413Y-59748443D01*
X50693412Y-59748443D01*
X50491243Y-59682754D01*
X50491241Y-59682753D01*
X50491240Y-59682753D01*
X50329957Y-59657208D01*
X50281287Y-59649500D01*
X49918713Y-59649500D01*
X49870042Y-59657208D01*
X49708760Y-59682753D01*
X49506585Y-59748444D01*
X49317179Y-59844951D01*
X49145213Y-59969890D01*
X48994890Y-60120213D01*
X48869951Y-60292179D01*
X48773444Y-60481585D01*
X48707753Y-60683760D01*
X48674500Y-60893713D01*
X48674500Y-61106286D01*
X48707753Y-61316239D01*
X48773444Y-61518414D01*
X48869951Y-61707820D01*
X48938823Y-61802615D01*
X48962303Y-61868422D01*
X48946477Y-61936475D01*
X48896371Y-61985170D01*
X48838505Y-61999500D01*
X44411495Y-61999500D01*
X44344456Y-61979815D01*
X44298701Y-61927011D01*
X44288757Y-61857853D01*
X44311177Y-61802615D01*
X44380048Y-61707820D01*
X44380047Y-61707820D01*
X44380051Y-61707816D01*
X44476557Y-61518412D01*
X44542246Y-61316243D01*
X44575500Y-61106287D01*
X44575500Y-60893713D01*
X44542246Y-60683757D01*
X44476557Y-60481588D01*
X44380051Y-60292184D01*
X44380049Y-60292181D01*
X44380048Y-60292179D01*
X44255109Y-60120213D01*
X44104786Y-59969890D01*
X43932820Y-59844951D01*
X43743414Y-59748444D01*
X43743413Y-59748443D01*
X43743412Y-59748443D01*
X43541243Y-59682754D01*
X43541241Y-59682753D01*
X43541240Y-59682753D01*
X43379957Y-59657208D01*
X43331287Y-59649500D01*
X42968713Y-59649500D01*
X42920042Y-59657208D01*
X42758760Y-59682753D01*
X42556585Y-59748444D01*
X42367179Y-59844951D01*
X42195213Y-59969890D01*
X42044890Y-60120213D01*
X41919951Y-60292179D01*
X41823444Y-60481585D01*
X41757753Y-60683760D01*
X41724500Y-60893713D01*
X41724500Y-61106286D01*
X41757753Y-61316239D01*
X41823444Y-61518414D01*
X41919951Y-61707820D01*
X41988823Y-61802615D01*
X42012303Y-61868422D01*
X41996477Y-61936475D01*
X41946371Y-61985170D01*
X41888505Y-61999500D01*
X37461495Y-61999500D01*
X37394456Y-61979815D01*
X37348701Y-61927011D01*
X37338757Y-61857853D01*
X37361177Y-61802615D01*
X37430048Y-61707820D01*
X37430047Y-61707820D01*
X37430051Y-61707816D01*
X37526557Y-61518412D01*
X37592246Y-61316243D01*
X37625500Y-61106287D01*
X37625500Y-60893713D01*
X37592246Y-60683757D01*
X37526557Y-60481588D01*
X37430051Y-60292184D01*
X37430049Y-60292181D01*
X37430048Y-60292179D01*
X37305109Y-60120213D01*
X37154786Y-59969890D01*
X36982820Y-59844951D01*
X36793414Y-59748444D01*
X36793413Y-59748443D01*
X36793412Y-59748443D01*
X36591243Y-59682754D01*
X36591241Y-59682753D01*
X36591240Y-59682753D01*
X36429957Y-59657208D01*
X36381287Y-59649500D01*
X36018713Y-59649500D01*
X35970042Y-59657208D01*
X35808760Y-59682753D01*
X35606585Y-59748444D01*
X35417179Y-59844951D01*
X35245213Y-59969890D01*
X35094890Y-60120213D01*
X34969951Y-60292179D01*
X34873444Y-60481585D01*
X34807753Y-60683760D01*
X34774500Y-60893713D01*
X34774500Y-61106286D01*
X34807753Y-61316239D01*
X34873444Y-61518414D01*
X34969951Y-61707820D01*
X35094890Y-61879786D01*
X35245209Y-62030105D01*
X35245214Y-62030109D01*
X35282194Y-62056977D01*
X35324860Y-62112307D01*
X35330839Y-62181920D01*
X35298233Y-62243715D01*
X35282195Y-62257612D01*
X35147496Y-62355478D01*
X35147487Y-62355485D01*
X34980485Y-62522487D01*
X34980485Y-62522488D01*
X34980483Y-62522490D01*
X34920862Y-62604550D01*
X34841657Y-62713566D01*
X34734433Y-62924003D01*
X34661446Y-63148631D01*
X34624500Y-63381902D01*
X34624500Y-63618097D01*
X34661446Y-63851368D01*
X34734433Y-64075996D01*
X34820009Y-64243946D01*
X34841657Y-64286433D01*
X34980483Y-64477510D01*
X34980485Y-64477512D01*
X35102864Y-64599891D01*
X35136349Y-64661214D01*
X35131365Y-64730906D01*
X35089493Y-64786839D01*
X35080283Y-64793109D01*
X35056655Y-64807683D01*
X34932684Y-64931654D01*
X34840643Y-65080875D01*
X34840641Y-65080880D01*
X34785494Y-65247302D01*
X34785493Y-65247309D01*
X34775000Y-65350013D01*
X34775000Y-65750000D01*
X35853590Y-65750000D01*
X35803963Y-65835956D01*
X35775000Y-65944048D01*
X35775000Y-66055952D01*
X35803963Y-66164044D01*
X35853590Y-66250000D01*
X34775001Y-66250000D01*
X34775001Y-66649986D01*
X34785494Y-66752697D01*
X34840641Y-66919119D01*
X34840643Y-66919124D01*
X34932684Y-67068345D01*
X35056654Y-67192315D01*
X35205875Y-67284356D01*
X35205880Y-67284358D01*
X35372302Y-67339505D01*
X35372309Y-67339506D01*
X35475019Y-67349999D01*
X35949999Y-67349999D01*
X35950000Y-67349998D01*
X35950000Y-66346409D01*
X36035956Y-66396037D01*
X36144048Y-66425000D01*
X36255952Y-66425000D01*
X36364044Y-66396037D01*
X36450000Y-66346409D01*
X36450000Y-67349999D01*
X36924972Y-67349999D01*
X36924986Y-67349998D01*
X37027697Y-67339505D01*
X37194119Y-67284358D01*
X37194124Y-67284356D01*
X37343345Y-67192315D01*
X37467315Y-67068345D01*
X37559356Y-66919124D01*
X37559358Y-66919119D01*
X37614505Y-66752697D01*
X37614506Y-66752690D01*
X37624999Y-66649986D01*
X37625000Y-66649973D01*
X37625000Y-66250000D01*
X36546410Y-66250000D01*
X36596037Y-66164044D01*
X36625000Y-66055952D01*
X36625000Y-65944048D01*
X36596037Y-65835956D01*
X36546410Y-65750000D01*
X37624999Y-65750000D01*
X37624999Y-65350028D01*
X37624998Y-65350013D01*
X37614506Y-65247304D01*
X37586737Y-65163505D01*
X37584335Y-65093676D01*
X37620066Y-65033634D01*
X37682587Y-65002441D01*
X37704443Y-65000500D01*
X41645557Y-65000500D01*
X41712596Y-65020185D01*
X41758351Y-65072989D01*
X41768295Y-65142147D01*
X41763263Y-65163504D01*
X41735494Y-65247302D01*
X41735493Y-65247309D01*
X41725000Y-65350013D01*
X41725000Y-65750000D01*
X42803590Y-65750000D01*
X42753963Y-65835956D01*
X42725000Y-65944048D01*
X42725000Y-66055952D01*
X42753963Y-66164044D01*
X42803590Y-66250000D01*
X41725001Y-66250000D01*
X41725001Y-66649986D01*
X41735494Y-66752697D01*
X41790641Y-66919119D01*
X41790643Y-66919124D01*
X41882684Y-67068345D01*
X42006654Y-67192315D01*
X42155875Y-67284356D01*
X42155880Y-67284358D01*
X42322302Y-67339505D01*
X42322309Y-67339506D01*
X42425019Y-67349999D01*
X42899999Y-67349999D01*
X42900000Y-67349998D01*
X42900000Y-66346409D01*
X42985956Y-66396037D01*
X43094048Y-66425000D01*
X43205952Y-66425000D01*
X43314044Y-66396037D01*
X43400000Y-66346409D01*
X43400000Y-67349999D01*
X43874972Y-67349999D01*
X43874986Y-67349998D01*
X43977697Y-67339505D01*
X44144119Y-67284358D01*
X44144124Y-67284356D01*
X44293345Y-67192315D01*
X44417315Y-67068345D01*
X44509356Y-66919124D01*
X44509358Y-66919119D01*
X44564505Y-66752697D01*
X44564506Y-66752690D01*
X44574999Y-66649986D01*
X44575000Y-66649973D01*
X44575000Y-66250000D01*
X43496410Y-66250000D01*
X43546037Y-66164044D01*
X43575000Y-66055952D01*
X43575000Y-65944048D01*
X43546037Y-65835956D01*
X43496410Y-65750000D01*
X44574999Y-65750000D01*
X44574999Y-65350028D01*
X44574998Y-65350013D01*
X44564506Y-65247304D01*
X44536737Y-65163505D01*
X44534335Y-65093676D01*
X44570066Y-65033634D01*
X44632587Y-65002441D01*
X44654443Y-65000500D01*
X48595557Y-65000500D01*
X48662596Y-65020185D01*
X48708351Y-65072989D01*
X48718295Y-65142147D01*
X48713263Y-65163504D01*
X48685494Y-65247302D01*
X48685493Y-65247309D01*
X48675000Y-65350013D01*
X48675000Y-65750000D01*
X49753590Y-65750000D01*
X49703963Y-65835956D01*
X49675000Y-65944048D01*
X49675000Y-66055952D01*
X49703963Y-66164044D01*
X49753590Y-66250000D01*
X48675001Y-66250000D01*
X48675001Y-66649986D01*
X48685494Y-66752697D01*
X48740641Y-66919119D01*
X48740643Y-66919124D01*
X48832684Y-67068345D01*
X48956654Y-67192315D01*
X49105875Y-67284356D01*
X49105880Y-67284358D01*
X49272302Y-67339505D01*
X49272309Y-67339506D01*
X49375019Y-67349999D01*
X49849999Y-67349999D01*
X49850000Y-67349998D01*
X49850000Y-66346409D01*
X49935956Y-66396037D01*
X50044048Y-66425000D01*
X50155952Y-66425000D01*
X50264044Y-66396037D01*
X50350000Y-66346409D01*
X50350000Y-67349999D01*
X50824972Y-67349999D01*
X50824986Y-67349998D01*
X50927697Y-67339505D01*
X51094119Y-67284358D01*
X51094124Y-67284356D01*
X51243345Y-67192315D01*
X51367315Y-67068345D01*
X51459356Y-66919124D01*
X51459358Y-66919119D01*
X51514505Y-66752697D01*
X51514506Y-66752690D01*
X51524999Y-66649986D01*
X51525000Y-66649973D01*
X51525000Y-66250000D01*
X50446410Y-66250000D01*
X50496037Y-66164044D01*
X50525000Y-66055952D01*
X50525000Y-65944048D01*
X50496037Y-65835956D01*
X50446410Y-65750000D01*
X51524999Y-65750000D01*
X51524999Y-65350028D01*
X51524998Y-65350013D01*
X51514506Y-65247304D01*
X51486737Y-65163505D01*
X51484335Y-65093676D01*
X51520066Y-65033634D01*
X51582587Y-65002441D01*
X51604443Y-65000500D01*
X55545557Y-65000500D01*
X55612596Y-65020185D01*
X55658351Y-65072989D01*
X55668295Y-65142147D01*
X55663263Y-65163504D01*
X55635494Y-65247302D01*
X55635493Y-65247309D01*
X55625000Y-65350013D01*
X55625000Y-65750000D01*
X56703590Y-65750000D01*
X56653963Y-65835956D01*
X56625000Y-65944048D01*
X56625000Y-66055952D01*
X56653963Y-66164044D01*
X56703590Y-66250000D01*
X55625001Y-66250000D01*
X55625001Y-66649986D01*
X55635494Y-66752697D01*
X55690641Y-66919119D01*
X55690643Y-66919124D01*
X55782684Y-67068345D01*
X55906654Y-67192315D01*
X56055875Y-67284356D01*
X56055880Y-67284358D01*
X56222302Y-67339505D01*
X56222309Y-67339506D01*
X56325019Y-67349999D01*
X56799999Y-67349999D01*
X56800000Y-67349998D01*
X56800000Y-66346409D01*
X56885956Y-66396037D01*
X56994048Y-66425000D01*
X57105952Y-66425000D01*
X57214044Y-66396037D01*
X57300000Y-66346409D01*
X57300000Y-67349999D01*
X57774972Y-67349999D01*
X57774986Y-67349998D01*
X57877697Y-67339505D01*
X58044119Y-67284358D01*
X58044124Y-67284356D01*
X58193345Y-67192315D01*
X58317315Y-67068345D01*
X58409356Y-66919124D01*
X58409358Y-66919119D01*
X58464505Y-66752697D01*
X58464506Y-66752690D01*
X58474999Y-66649986D01*
X58475000Y-66649973D01*
X58475000Y-66250000D01*
X57396410Y-66250000D01*
X57446037Y-66164044D01*
X57475000Y-66055952D01*
X57475000Y-65944048D01*
X57446037Y-65835956D01*
X57396410Y-65750000D01*
X58474999Y-65750000D01*
X58474999Y-65350028D01*
X58474998Y-65350013D01*
X58464506Y-65247304D01*
X58436737Y-65163505D01*
X58434335Y-65093676D01*
X58470066Y-65033634D01*
X58532587Y-65002441D01*
X58554443Y-65000500D01*
X62495557Y-65000500D01*
X62562596Y-65020185D01*
X62608351Y-65072989D01*
X62618295Y-65142147D01*
X62613263Y-65163504D01*
X62585494Y-65247302D01*
X62585493Y-65247309D01*
X62575000Y-65350013D01*
X62575000Y-65750000D01*
X63653590Y-65750000D01*
X63603963Y-65835956D01*
X63575000Y-65944048D01*
X63575000Y-66055952D01*
X63603963Y-66164044D01*
X63653590Y-66250000D01*
X62575001Y-66250000D01*
X62575001Y-66649986D01*
X62585494Y-66752697D01*
X62640641Y-66919119D01*
X62640643Y-66919124D01*
X62732684Y-67068345D01*
X62856654Y-67192315D01*
X63005875Y-67284356D01*
X63005880Y-67284358D01*
X63172302Y-67339505D01*
X63172309Y-67339506D01*
X63275019Y-67349999D01*
X63749999Y-67349999D01*
X63750000Y-67349998D01*
X63750000Y-66346409D01*
X63835956Y-66396037D01*
X63944048Y-66425000D01*
X64055952Y-66425000D01*
X64164044Y-66396037D01*
X64250000Y-66346409D01*
X64250000Y-67349999D01*
X64724972Y-67349999D01*
X64724986Y-67349998D01*
X64827697Y-67339505D01*
X64994119Y-67284358D01*
X64994124Y-67284356D01*
X65143345Y-67192315D01*
X65267315Y-67068345D01*
X65359356Y-66919124D01*
X65359358Y-66919119D01*
X65414505Y-66752697D01*
X65414506Y-66752690D01*
X65424999Y-66649986D01*
X65425000Y-66649973D01*
X65425000Y-66250000D01*
X64346410Y-66250000D01*
X64396037Y-66164044D01*
X64425000Y-66055952D01*
X64425000Y-65944048D01*
X64396037Y-65835956D01*
X64346410Y-65750000D01*
X65424999Y-65750000D01*
X65424999Y-65350028D01*
X65424998Y-65350013D01*
X65414506Y-65247304D01*
X65386737Y-65163505D01*
X65384335Y-65093676D01*
X65420066Y-65033634D01*
X65482587Y-65002441D01*
X65504443Y-65000500D01*
X69445557Y-65000500D01*
X69512596Y-65020185D01*
X69558351Y-65072989D01*
X69568295Y-65142147D01*
X69563263Y-65163504D01*
X69535494Y-65247302D01*
X69535493Y-65247309D01*
X69525000Y-65350013D01*
X69525000Y-65750000D01*
X70603590Y-65750000D01*
X70553963Y-65835956D01*
X70525000Y-65944048D01*
X70525000Y-66055952D01*
X70553963Y-66164044D01*
X70603590Y-66250000D01*
X69525001Y-66250000D01*
X69525001Y-66649986D01*
X69535494Y-66752697D01*
X69590641Y-66919119D01*
X69590643Y-66919124D01*
X69682684Y-67068345D01*
X69806654Y-67192315D01*
X69955875Y-67284356D01*
X69955880Y-67284358D01*
X70122302Y-67339505D01*
X70122309Y-67339506D01*
X70225019Y-67349999D01*
X70699999Y-67349999D01*
X70700000Y-67349998D01*
X70700000Y-66346409D01*
X70785956Y-66396037D01*
X70894048Y-66425000D01*
X71005952Y-66425000D01*
X71114044Y-66396037D01*
X71200000Y-66346409D01*
X71200000Y-67349999D01*
X71674972Y-67349999D01*
X71674986Y-67349998D01*
X71777697Y-67339505D01*
X71944119Y-67284358D01*
X71944124Y-67284356D01*
X72093345Y-67192315D01*
X72217315Y-67068345D01*
X72309356Y-66919124D01*
X72309358Y-66919119D01*
X72364505Y-66752697D01*
X72364506Y-66752690D01*
X72374999Y-66649986D01*
X72375000Y-66649973D01*
X72375000Y-66250000D01*
X71296410Y-66250000D01*
X71346037Y-66164044D01*
X71375000Y-66055952D01*
X71375000Y-65944048D01*
X71373484Y-65938389D01*
X80649500Y-65938389D01*
X80649500Y-66661610D01*
X80674618Y-66820205D01*
X80676598Y-66832701D01*
X80730127Y-66997445D01*
X80808768Y-67151788D01*
X80910586Y-67291928D01*
X81033072Y-67414414D01*
X81173212Y-67516232D01*
X81327555Y-67594873D01*
X81492299Y-67648402D01*
X81663389Y-67675500D01*
X81663390Y-67675500D01*
X81836610Y-67675500D01*
X81836611Y-67675500D01*
X82007701Y-67648402D01*
X82172445Y-67594873D01*
X82326788Y-67516232D01*
X82466928Y-67414414D01*
X82574836Y-67306505D01*
X82636155Y-67273023D01*
X82705847Y-67278007D01*
X82761781Y-67319878D01*
X82768053Y-67329093D01*
X82807682Y-67393343D01*
X82931654Y-67517315D01*
X83080875Y-67609356D01*
X83080880Y-67609358D01*
X83247302Y-67664505D01*
X83247309Y-67664506D01*
X83350019Y-67674999D01*
X83499999Y-67674999D01*
X83500000Y-67674998D01*
X83500000Y-66580330D01*
X83519745Y-66600075D01*
X83605255Y-66649444D01*
X83700630Y-66675000D01*
X83799370Y-66675000D01*
X83894745Y-66649444D01*
X83980255Y-66600075D01*
X84000000Y-66580330D01*
X84000000Y-67674999D01*
X84149972Y-67674999D01*
X84149986Y-67674998D01*
X84252697Y-67664505D01*
X84419119Y-67609358D01*
X84419124Y-67609356D01*
X84568345Y-67517315D01*
X84692315Y-67393345D01*
X84784356Y-67244124D01*
X84784358Y-67244119D01*
X84839505Y-67077697D01*
X84839506Y-67077690D01*
X84849999Y-66974986D01*
X84850000Y-66974973D01*
X84850000Y-66550000D01*
X84030330Y-66550000D01*
X84050075Y-66530255D01*
X84099444Y-66444745D01*
X84125000Y-66349370D01*
X84125000Y-66250630D01*
X84099444Y-66155255D01*
X84050075Y-66069745D01*
X84030330Y-66050000D01*
X84849999Y-66050000D01*
X84849999Y-65878711D01*
X92149500Y-65878711D01*
X92149500Y-66121288D01*
X92178304Y-66340084D01*
X92181162Y-66361789D01*
X92203390Y-66444745D01*
X92243947Y-66596104D01*
X92336773Y-66820205D01*
X92336777Y-66820214D01*
X92358974Y-66858661D01*
X92458064Y-67030289D01*
X92458066Y-67030292D01*
X92458067Y-67030293D01*
X92605733Y-67222736D01*
X92605739Y-67222743D01*
X92777256Y-67394260D01*
X92777262Y-67394265D01*
X92969711Y-67541936D01*
X93179788Y-67663224D01*
X93403900Y-67756054D01*
X93638211Y-67818838D01*
X93818586Y-67842584D01*
X93878711Y-67850500D01*
X93878712Y-67850500D01*
X94121289Y-67850500D01*
X94169388Y-67844167D01*
X94361789Y-67818838D01*
X94596100Y-67756054D01*
X94820212Y-67663224D01*
X95030289Y-67541936D01*
X95222738Y-67394265D01*
X95394265Y-67222738D01*
X95541936Y-67030289D01*
X95663224Y-66820212D01*
X95756054Y-66596100D01*
X95818838Y-66361789D01*
X95850500Y-66121288D01*
X95850500Y-65878712D01*
X95818838Y-65638211D01*
X95756054Y-65403900D01*
X95663224Y-65179788D01*
X95541936Y-64969711D01*
X95398931Y-64783343D01*
X95394266Y-64777263D01*
X95394260Y-64777256D01*
X95222743Y-64605739D01*
X95222736Y-64605733D01*
X95030293Y-64458067D01*
X95030292Y-64458066D01*
X95030289Y-64458064D01*
X94820212Y-64336776D01*
X94820205Y-64336773D01*
X94596104Y-64243947D01*
X94361785Y-64181161D01*
X94121289Y-64149500D01*
X94121288Y-64149500D01*
X93878712Y-64149500D01*
X93878711Y-64149500D01*
X93638214Y-64181161D01*
X93403895Y-64243947D01*
X93179794Y-64336773D01*
X93179785Y-64336777D01*
X92969706Y-64458067D01*
X92777263Y-64605733D01*
X92777256Y-64605739D01*
X92605739Y-64777256D01*
X92605733Y-64777263D01*
X92458067Y-64969706D01*
X92336777Y-65179785D01*
X92336773Y-65179794D01*
X92243947Y-65403895D01*
X92181161Y-65638214D01*
X92149500Y-65878711D01*
X84849999Y-65878711D01*
X84849999Y-65625028D01*
X84849998Y-65625013D01*
X84839505Y-65522302D01*
X84784358Y-65355880D01*
X84784356Y-65355875D01*
X84692315Y-65206654D01*
X84568345Y-65082684D01*
X84419124Y-64990643D01*
X84419119Y-64990641D01*
X84252697Y-64935494D01*
X84252690Y-64935493D01*
X84149986Y-64925000D01*
X84000000Y-64925000D01*
X84000000Y-66019670D01*
X83980255Y-65999925D01*
X83894745Y-65950556D01*
X83799370Y-65925000D01*
X83700630Y-65925000D01*
X83605255Y-65950556D01*
X83519745Y-65999925D01*
X83500000Y-66019670D01*
X83500000Y-64925000D01*
X83350027Y-64925000D01*
X83350012Y-64925001D01*
X83247302Y-64935494D01*
X83080880Y-64990641D01*
X83080875Y-64990643D01*
X82931654Y-65082684D01*
X82807684Y-65206654D01*
X82768053Y-65270907D01*
X82716105Y-65317631D01*
X82647142Y-65328853D01*
X82583060Y-65301010D01*
X82574833Y-65293491D01*
X82466930Y-65185588D01*
X82466928Y-65185586D01*
X82326788Y-65083768D01*
X82172445Y-65005127D01*
X82007701Y-64951598D01*
X82007699Y-64951597D01*
X82007698Y-64951597D01*
X81876271Y-64930781D01*
X81836611Y-64924500D01*
X81663389Y-64924500D01*
X81623728Y-64930781D01*
X81492302Y-64951597D01*
X81327552Y-65005128D01*
X81173211Y-65083768D01*
X81093256Y-65141859D01*
X81033072Y-65185586D01*
X81033070Y-65185588D01*
X81033069Y-65185588D01*
X80910588Y-65308069D01*
X80910588Y-65308070D01*
X80910586Y-65308072D01*
X80903641Y-65317631D01*
X80808768Y-65448211D01*
X80730128Y-65602552D01*
X80676597Y-65767302D01*
X80649500Y-65938389D01*
X71373484Y-65938389D01*
X71346037Y-65835956D01*
X71296410Y-65750000D01*
X72374999Y-65750000D01*
X72374999Y-65350028D01*
X72374998Y-65350013D01*
X72364506Y-65247304D01*
X72336737Y-65163505D01*
X72334335Y-65093676D01*
X72370066Y-65033634D01*
X72432587Y-65002441D01*
X72454443Y-65000500D01*
X72618097Y-65000500D01*
X72851368Y-64963553D01*
X73075992Y-64890568D01*
X73286434Y-64783343D01*
X73477510Y-64644517D01*
X78985208Y-59136819D01*
X79046531Y-59103334D01*
X79072889Y-59100500D01*
X81881908Y-59100500D01*
X82281908Y-59100500D01*
X82518092Y-59100500D01*
X83881908Y-59100500D01*
X84881908Y-59100500D01*
X85881908Y-59100500D01*
X87881908Y-59100500D01*
X88337504Y-59100500D01*
X88404543Y-59120185D01*
X88433869Y-59146463D01*
X88595051Y-59345506D01*
X88854494Y-59604949D01*
X88854498Y-59604952D01*
X89139635Y-59835852D01*
X89346046Y-59969896D01*
X89447348Y-60035682D01*
X89774264Y-60202255D01*
X90116801Y-60333742D01*
X90471206Y-60428705D01*
X90833596Y-60486102D01*
X91179734Y-60504241D01*
X91199999Y-60505304D01*
X91200000Y-60505304D01*
X91200001Y-60505304D01*
X91219203Y-60504297D01*
X91566404Y-60486102D01*
X91928794Y-60428705D01*
X92283199Y-60333742D01*
X92625736Y-60202255D01*
X92952652Y-60035682D01*
X93260366Y-59835851D01*
X93545506Y-59604949D01*
X93804949Y-59345506D01*
X94035851Y-59060366D01*
X94235682Y-58752652D01*
X94402255Y-58425736D01*
X94533742Y-58083199D01*
X94628705Y-57728794D01*
X94686102Y-57366404D01*
X94705304Y-57000000D01*
X94686102Y-56633596D01*
X94628705Y-56271206D01*
X94533742Y-55916801D01*
X94402255Y-55574264D01*
X94235682Y-55247348D01*
X94233694Y-55244287D01*
X94035852Y-54939635D01*
X93804952Y-54654498D01*
X93804949Y-54654494D01*
X93545506Y-54395051D01*
X93512452Y-54368284D01*
X93260364Y-54164147D01*
X92952656Y-53964320D01*
X92625739Y-53797746D01*
X92283206Y-53666260D01*
X92283199Y-53666258D01*
X91928794Y-53571295D01*
X91928790Y-53571294D01*
X91928789Y-53571294D01*
X91775231Y-53546973D01*
X91712096Y-53517044D01*
X91675165Y-53457732D01*
X91676163Y-53387870D01*
X91714773Y-53329637D01*
X91778736Y-53301523D01*
X91794629Y-53300500D01*
X92771448Y-53300500D01*
X92985428Y-53285196D01*
X92989929Y-53284217D01*
X93265037Y-53224371D01*
X93265037Y-53224370D01*
X93265046Y-53224369D01*
X93533161Y-53124367D01*
X93784315Y-52987226D01*
X94013395Y-52815739D01*
X94215739Y-52613395D01*
X94387226Y-52384315D01*
X94524367Y-52133161D01*
X94624369Y-51865046D01*
X94685196Y-51585428D01*
X94700500Y-51371448D01*
X94700500Y-48228552D01*
X94685196Y-48014572D01*
X94624369Y-47734954D01*
X94524367Y-47466839D01*
X94387226Y-47215685D01*
X94387224Y-47215682D01*
X94215745Y-46986612D01*
X94215729Y-46986594D01*
X94013405Y-46784270D01*
X94013387Y-46784254D01*
X93784317Y-46612775D01*
X93784309Y-46612770D01*
X93533166Y-46475635D01*
X93533167Y-46475635D01*
X93425915Y-46435632D01*
X93265046Y-46375631D01*
X93265043Y-46375630D01*
X93265037Y-46375628D01*
X92985433Y-46314804D01*
X92771450Y-46299500D01*
X92771448Y-46299500D01*
X89628552Y-46299500D01*
X89628549Y-46299500D01*
X89414566Y-46314804D01*
X89134962Y-46375628D01*
X88866833Y-46475635D01*
X88615690Y-46612770D01*
X88615682Y-46612775D01*
X88386612Y-46784254D01*
X88386594Y-46784270D01*
X88184270Y-46986594D01*
X88184254Y-46986612D01*
X88012775Y-47215682D01*
X88012770Y-47215690D01*
X87875635Y-47466833D01*
X87775628Y-47734962D01*
X87714804Y-48014566D01*
X87699500Y-48228549D01*
X87699500Y-51371450D01*
X87714804Y-51585433D01*
X87775628Y-51865037D01*
X87875635Y-52133166D01*
X88012770Y-52384309D01*
X88012775Y-52384317D01*
X88184254Y-52613387D01*
X88184270Y-52613405D01*
X88386594Y-52815729D01*
X88386612Y-52815745D01*
X88615682Y-52987224D01*
X88615690Y-52987229D01*
X88866833Y-53124364D01*
X88866832Y-53124364D01*
X88866836Y-53124365D01*
X88866839Y-53124367D01*
X89134954Y-53224369D01*
X89134960Y-53224370D01*
X89134962Y-53224371D01*
X89414566Y-53285195D01*
X89414568Y-53285195D01*
X89414572Y-53285196D01*
X89628552Y-53300500D01*
X90605371Y-53300500D01*
X90672410Y-53320185D01*
X90718165Y-53372989D01*
X90728109Y-53442147D01*
X90699084Y-53505703D01*
X90640306Y-53543477D01*
X90624769Y-53546973D01*
X90471211Y-53571294D01*
X90471209Y-53571294D01*
X90116793Y-53666260D01*
X89774260Y-53797746D01*
X89447343Y-53964320D01*
X89139635Y-54164147D01*
X88854498Y-54395047D01*
X88854490Y-54395054D01*
X88595054Y-54654490D01*
X88595047Y-54654498D01*
X88364147Y-54939635D01*
X88164320Y-55247343D01*
X87997746Y-55574260D01*
X87866259Y-55916796D01*
X87861715Y-55933755D01*
X87825348Y-55993415D01*
X87762500Y-56023942D01*
X87693125Y-56015645D01*
X87654260Y-55989339D01*
X86909210Y-55244290D01*
X86909208Y-55244287D01*
X85907527Y-54242607D01*
X85907505Y-54242582D01*
X85759686Y-54094763D01*
X85759655Y-54094734D01*
X85036819Y-53371898D01*
X85003334Y-53310575D01*
X85000500Y-53284217D01*
X85000500Y-38465782D01*
X85020185Y-38398743D01*
X85036819Y-38378101D01*
X87378601Y-36036319D01*
X87439924Y-36002834D01*
X87466282Y-36000000D01*
X96876000Y-36000000D01*
X96943039Y-36019685D01*
X96988794Y-36072489D01*
X97000000Y-36124000D01*
X97000000Y-67948638D01*
X96980315Y-68015677D01*
X96963681Y-68036319D01*
X96036319Y-68963681D01*
X95974996Y-68997166D01*
X95948638Y-69000000D01*
X32124000Y-69000000D01*
X32056961Y-68980315D01*
X32011206Y-68927511D01*
X32000000Y-68876000D01*
X32000000Y-57124000D01*
X32019685Y-57056961D01*
X32072489Y-57011206D01*
X32124000Y-57000000D01*
X74000000Y-57000000D01*
X80000000Y-51000000D01*
X80000000Y-36124000D01*
X80019685Y-36056961D01*
X80072489Y-36011206D01*
X80124000Y-36000000D01*
X84285717Y-36000000D01*
X84352756Y-36019685D01*
G37*
%TD.AperFunction*%
%TD*%
%TA.AperFunction,Conductor*%
%TO.N,GND*%
G36*
X96015677Y-1019685D02*
G01*
X96036319Y-1036319D01*
X96963681Y-1963681D01*
X96997166Y-2025004D01*
X97000000Y-2051362D01*
X97000000Y-33876000D01*
X96980315Y-33943039D01*
X96927511Y-33988794D01*
X96876000Y-34000000D01*
X89714282Y-34000000D01*
X89647243Y-33980315D01*
X89601488Y-33927511D01*
X89591544Y-33858353D01*
X89620569Y-33794797D01*
X89626601Y-33788319D01*
X90878101Y-32536819D01*
X90939424Y-32503334D01*
X90965782Y-32500500D01*
X93834763Y-32500500D01*
X93891059Y-32514016D01*
X93902550Y-32519871D01*
X93902552Y-32519871D01*
X93902555Y-32519873D01*
X94067299Y-32573402D01*
X94238389Y-32600500D01*
X94238390Y-32600500D01*
X94961610Y-32600500D01*
X94961611Y-32600500D01*
X95132701Y-32573402D01*
X95297445Y-32519873D01*
X95451788Y-32441232D01*
X95591928Y-32339414D01*
X95714414Y-32216928D01*
X95816232Y-32076788D01*
X95894873Y-31922445D01*
X95948402Y-31757701D01*
X95975500Y-31586611D01*
X95975500Y-31413389D01*
X95948402Y-31242299D01*
X95894873Y-31077555D01*
X95816232Y-30923212D01*
X95714414Y-30783072D01*
X95591928Y-30660586D01*
X95508975Y-30600317D01*
X95466311Y-30544988D01*
X95460332Y-30475374D01*
X95492938Y-30413579D01*
X95508976Y-30399682D01*
X95591928Y-30339414D01*
X95714414Y-30216928D01*
X95816232Y-30076788D01*
X95894873Y-29922445D01*
X95948402Y-29757701D01*
X95975500Y-29586611D01*
X95975500Y-29413389D01*
X95948402Y-29242299D01*
X95894873Y-29077555D01*
X95816232Y-28923212D01*
X95714414Y-28783072D01*
X95591928Y-28660586D01*
X95508975Y-28600317D01*
X95466311Y-28544988D01*
X95460332Y-28475374D01*
X95492938Y-28413579D01*
X95508976Y-28399682D01*
X95591928Y-28339414D01*
X95714414Y-28216928D01*
X95816232Y-28076788D01*
X95894873Y-27922445D01*
X95948402Y-27757701D01*
X95975500Y-27586611D01*
X95975500Y-27413389D01*
X95948402Y-27242299D01*
X95894873Y-27077555D01*
X95816232Y-26923212D01*
X95714414Y-26783072D01*
X95591928Y-26660586D01*
X95508975Y-26600317D01*
X95466311Y-26544988D01*
X95460332Y-26475374D01*
X95492938Y-26413579D01*
X95508976Y-26399682D01*
X95591928Y-26339414D01*
X95714414Y-26216928D01*
X95816232Y-26076788D01*
X95894873Y-25922445D01*
X95948402Y-25757701D01*
X95975500Y-25586611D01*
X95975500Y-25413389D01*
X95948402Y-25242299D01*
X95894873Y-25077555D01*
X95816232Y-24923212D01*
X95714414Y-24783072D01*
X95591928Y-24660586D01*
X95508975Y-24600317D01*
X95466311Y-24544988D01*
X95460332Y-24475374D01*
X95492938Y-24413579D01*
X95508976Y-24399682D01*
X95591928Y-24339414D01*
X95714414Y-24216928D01*
X95816232Y-24076788D01*
X95894873Y-23922445D01*
X95948402Y-23757701D01*
X95975500Y-23586611D01*
X95975500Y-23413389D01*
X95948402Y-23242299D01*
X95894873Y-23077555D01*
X95816232Y-22923212D01*
X95714414Y-22783072D01*
X95606508Y-22675166D01*
X95573023Y-22613843D01*
X95578007Y-22544151D01*
X95619879Y-22488218D01*
X95629094Y-22481945D01*
X95693345Y-22442315D01*
X95817315Y-22318345D01*
X95909356Y-22169124D01*
X95909358Y-22169119D01*
X95964505Y-22002697D01*
X95964506Y-22002690D01*
X95974999Y-21899986D01*
X95975000Y-21899973D01*
X95975000Y-21750000D01*
X94880330Y-21750000D01*
X94900075Y-21730255D01*
X94949444Y-21644745D01*
X94975000Y-21549370D01*
X94975000Y-21450630D01*
X94949444Y-21355255D01*
X94900075Y-21269745D01*
X94880330Y-21250000D01*
X95974999Y-21250000D01*
X95974999Y-21100028D01*
X95974998Y-21100013D01*
X95964505Y-20997302D01*
X95909358Y-20830880D01*
X95909356Y-20830875D01*
X95817315Y-20681654D01*
X95693345Y-20557684D01*
X95544124Y-20465643D01*
X95544119Y-20465641D01*
X95377697Y-20410494D01*
X95377690Y-20410493D01*
X95274986Y-20400000D01*
X94850000Y-20400000D01*
X94850000Y-21219670D01*
X94830255Y-21199925D01*
X94744745Y-21150556D01*
X94649370Y-21125000D01*
X94550630Y-21125000D01*
X94455255Y-21150556D01*
X94369745Y-21199925D01*
X94350000Y-21219670D01*
X94350000Y-20400000D01*
X93925028Y-20400000D01*
X93925012Y-20400001D01*
X93822302Y-20410494D01*
X93655880Y-20465641D01*
X93655875Y-20465643D01*
X93506654Y-20557684D01*
X93382684Y-20681654D01*
X93290643Y-20830875D01*
X93290641Y-20830880D01*
X93235494Y-20997302D01*
X93235493Y-20997309D01*
X93225000Y-21100013D01*
X93225000Y-21250000D01*
X94319670Y-21250000D01*
X94299925Y-21269745D01*
X94250556Y-21355255D01*
X94225000Y-21450630D01*
X94225000Y-21549370D01*
X94250556Y-21644745D01*
X94299925Y-21730255D01*
X94319670Y-21750000D01*
X93225001Y-21750000D01*
X93225001Y-21899986D01*
X93235494Y-22002697D01*
X93290641Y-22169119D01*
X93290643Y-22169124D01*
X93382684Y-22318345D01*
X93506656Y-22442317D01*
X93570906Y-22481946D01*
X93617631Y-22533893D01*
X93628854Y-22602856D01*
X93601011Y-22666938D01*
X93593492Y-22675166D01*
X93485584Y-22783074D01*
X93456295Y-22823387D01*
X93400965Y-22866052D01*
X93355978Y-22874500D01*
X82301992Y-22874500D01*
X82181159Y-22898535D01*
X82181151Y-22898537D01*
X82067320Y-22945687D01*
X81983847Y-23001463D01*
X81983846Y-23001464D01*
X81964867Y-23014144D01*
X81964866Y-23014145D01*
X80040833Y-24938181D01*
X79979510Y-24971666D01*
X79953152Y-24974500D01*
X28160452Y-24974500D01*
X28093413Y-24954815D01*
X28072771Y-24938181D01*
X23990198Y-20855608D01*
X23990178Y-20855586D01*
X23898736Y-20764144D01*
X23898732Y-20764141D01*
X23826458Y-20715849D01*
X23796286Y-20695688D01*
X23796287Y-20695688D01*
X23796285Y-20695687D01*
X23740171Y-20672445D01*
X23709619Y-20659790D01*
X23709617Y-20659788D01*
X23682455Y-20648538D01*
X23682453Y-20648537D01*
X23682452Y-20648537D01*
X23622029Y-20636518D01*
X23561610Y-20624500D01*
X23561607Y-20624500D01*
X23561606Y-20624500D01*
X22060452Y-20624500D01*
X21993413Y-20604815D01*
X21972771Y-20588181D01*
X19161819Y-17777229D01*
X19128334Y-17715906D01*
X19125500Y-17689548D01*
X19125500Y-15438396D01*
X19125500Y-15438394D01*
X19101463Y-15317548D01*
X19101461Y-15317543D01*
X19081962Y-15270468D01*
X19081947Y-15270435D01*
X19081932Y-15270397D01*
X19054312Y-15203715D01*
X19054310Y-15203712D01*
X19054309Y-15203709D01*
X19024963Y-15159791D01*
X19024962Y-15159790D01*
X18985858Y-15101266D01*
X18895637Y-15011045D01*
X18895606Y-15011016D01*
X17688960Y-13804370D01*
X17655475Y-13743047D01*
X17653323Y-13729671D01*
X17635674Y-13561744D01*
X17577179Y-13381716D01*
X17482533Y-13217784D01*
X17473698Y-13207972D01*
X17443469Y-13144981D01*
X17452093Y-13075646D01*
X17473699Y-13042027D01*
X17482533Y-13032216D01*
X17577179Y-12868284D01*
X17635674Y-12688256D01*
X17655460Y-12500000D01*
X17635674Y-12311744D01*
X17577179Y-12131716D01*
X17482533Y-11967784D01*
X17473698Y-11957972D01*
X17443469Y-11894981D01*
X17452093Y-11825646D01*
X17473699Y-11792027D01*
X17482533Y-11782216D01*
X17577179Y-11618284D01*
X17635674Y-11438256D01*
X17655460Y-11250000D01*
X17635674Y-11061744D01*
X17577179Y-10881716D01*
X17482533Y-10717784D01*
X17355871Y-10577112D01*
X17355870Y-10577111D01*
X17202734Y-10465851D01*
X17202729Y-10465848D01*
X17029807Y-10388857D01*
X17029802Y-10388855D01*
X16884001Y-10357865D01*
X16844646Y-10349500D01*
X16655354Y-10349500D01*
X16622897Y-10356398D01*
X16470197Y-10388855D01*
X16470192Y-10388857D01*
X16297270Y-10465848D01*
X16297265Y-10465851D01*
X16144130Y-10577110D01*
X16144126Y-10577114D01*
X16138400Y-10583474D01*
X16078913Y-10620121D01*
X16046252Y-10624500D01*
X15624000Y-10624500D01*
X15556961Y-10604815D01*
X15511206Y-10552011D01*
X15500000Y-10500500D01*
X15500000Y-8685952D01*
X15519685Y-8618913D01*
X15536319Y-8598271D01*
X16222771Y-7911819D01*
X16284094Y-7878334D01*
X16310452Y-7875500D01*
X16938394Y-7875500D01*
X33939548Y-7875500D01*
X34006587Y-7895185D01*
X34027229Y-7911819D01*
X36838181Y-10722771D01*
X36871666Y-10784094D01*
X36874500Y-10810452D01*
X36874500Y-16801312D01*
X36854815Y-16868351D01*
X36842650Y-16884284D01*
X36767466Y-16967784D01*
X36672821Y-17131715D01*
X36672818Y-17131722D01*
X36614327Y-17311740D01*
X36614326Y-17311744D01*
X36594540Y-17500000D01*
X36614326Y-17688256D01*
X36614327Y-17688259D01*
X36672818Y-17868277D01*
X36672821Y-17868284D01*
X36767467Y-18032216D01*
X36773096Y-18038467D01*
X36776304Y-18042031D01*
X36806531Y-18105023D01*
X36797904Y-18174358D01*
X36776304Y-18207969D01*
X36767466Y-18217785D01*
X36672821Y-18381715D01*
X36672818Y-18381722D01*
X36614327Y-18561740D01*
X36614326Y-18561744D01*
X36594540Y-18750000D01*
X36614326Y-18938256D01*
X36614327Y-18938259D01*
X36672818Y-19118277D01*
X36672821Y-19118284D01*
X36767467Y-19282216D01*
X36869185Y-19395185D01*
X36894129Y-19422888D01*
X37047265Y-19534148D01*
X37047270Y-19534151D01*
X37220192Y-19611142D01*
X37220197Y-19611144D01*
X37405354Y-19650500D01*
X37405355Y-19650500D01*
X37594644Y-19650500D01*
X37594646Y-19650500D01*
X37779803Y-19611144D01*
X37952730Y-19534151D01*
X38105871Y-19422888D01*
X38108788Y-19419647D01*
X38111600Y-19416526D01*
X38171087Y-19379879D01*
X38203748Y-19375500D01*
X42296252Y-19375500D01*
X42363291Y-19395185D01*
X42388400Y-19416526D01*
X42394126Y-19422885D01*
X42394130Y-19422889D01*
X42547265Y-19534148D01*
X42547270Y-19534151D01*
X42720192Y-19611142D01*
X42720197Y-19611144D01*
X42905354Y-19650500D01*
X42905355Y-19650500D01*
X43094644Y-19650500D01*
X43094646Y-19650500D01*
X43279803Y-19611144D01*
X43452730Y-19534151D01*
X43605871Y-19422888D01*
X43732533Y-19282216D01*
X43827179Y-19118284D01*
X43885674Y-18938256D01*
X43905460Y-18750000D01*
X43885674Y-18561744D01*
X43827179Y-18381716D01*
X43732533Y-18217784D01*
X43605871Y-18077112D01*
X43605870Y-18077111D01*
X43452734Y-17965851D01*
X43452729Y-17965848D01*
X43279807Y-17888857D01*
X43279802Y-17888855D01*
X43134001Y-17857865D01*
X43094646Y-17849500D01*
X42905354Y-17849500D01*
X42872897Y-17856398D01*
X42720197Y-17888855D01*
X42720192Y-17888857D01*
X42547270Y-17965848D01*
X42547265Y-17965851D01*
X42394130Y-18077110D01*
X42394126Y-18077114D01*
X42388400Y-18083474D01*
X42328913Y-18120121D01*
X42296252Y-18124500D01*
X42124000Y-18124500D01*
X42056961Y-18104815D01*
X42011206Y-18052011D01*
X42000000Y-18000500D01*
X42000000Y-14983952D01*
X42019685Y-14916913D01*
X42072489Y-14871158D01*
X42141647Y-14861214D01*
X42205203Y-14890239D01*
X42211678Y-14896269D01*
X42842344Y-15526935D01*
X43461038Y-16145629D01*
X43494523Y-16206952D01*
X43496678Y-16220348D01*
X43499795Y-16250000D01*
X43514326Y-16388256D01*
X43514327Y-16388259D01*
X43572818Y-16568277D01*
X43572821Y-16568284D01*
X43667467Y-16732216D01*
X43772541Y-16848912D01*
X43794129Y-16872888D01*
X43947265Y-16984148D01*
X43947270Y-16984151D01*
X44120192Y-17061142D01*
X44120197Y-17061144D01*
X44305354Y-17100500D01*
X44305355Y-17100500D01*
X44494644Y-17100500D01*
X44494646Y-17100500D01*
X44679803Y-17061144D01*
X44852730Y-16984151D01*
X45005871Y-16872888D01*
X45132533Y-16732216D01*
X45226948Y-16568683D01*
X45277514Y-16520468D01*
X45346121Y-16507244D01*
X45410986Y-16533212D01*
X45422016Y-16543002D01*
X51674620Y-22795606D01*
X51674649Y-22795637D01*
X51764867Y-22885855D01*
X51764871Y-22885858D01*
X51867311Y-22954307D01*
X51867317Y-22954310D01*
X51867318Y-22954311D01*
X51981152Y-23001463D01*
X52041575Y-23013481D01*
X52101997Y-23025500D01*
X52101998Y-23025500D01*
X54538394Y-23025500D01*
X76896252Y-23025500D01*
X76963291Y-23045185D01*
X76988400Y-23066526D01*
X76994126Y-23072885D01*
X76994130Y-23072889D01*
X77147265Y-23184148D01*
X77147270Y-23184151D01*
X77320192Y-23261142D01*
X77320197Y-23261144D01*
X77505354Y-23300500D01*
X77505355Y-23300500D01*
X77694644Y-23300500D01*
X77694646Y-23300500D01*
X77879803Y-23261144D01*
X78052730Y-23184151D01*
X78205871Y-23072888D01*
X78332533Y-22932216D01*
X78427179Y-22768284D01*
X78485674Y-22588256D01*
X78505460Y-22400000D01*
X78485674Y-22211744D01*
X78431112Y-22043823D01*
X78427181Y-22031722D01*
X78427180Y-22031721D01*
X78427179Y-22031716D01*
X78332533Y-21867784D01*
X78329284Y-21862156D01*
X78331929Y-21860628D01*
X78312779Y-21807421D01*
X78328417Y-21739323D01*
X78329344Y-21737879D01*
X78329284Y-21737844D01*
X78353071Y-21696642D01*
X78427179Y-21568284D01*
X78449366Y-21500000D01*
X85344540Y-21500000D01*
X85364326Y-21688256D01*
X85364327Y-21688259D01*
X85422818Y-21868277D01*
X85422821Y-21868284D01*
X85517467Y-22032216D01*
X85635576Y-22163389D01*
X85644129Y-22172888D01*
X85797265Y-22284148D01*
X85797270Y-22284151D01*
X85970192Y-22361142D01*
X85970197Y-22361144D01*
X86155354Y-22400500D01*
X86155355Y-22400500D01*
X86344644Y-22400500D01*
X86344646Y-22400500D01*
X86529803Y-22361144D01*
X86702730Y-22284151D01*
X86855871Y-22172888D01*
X86982533Y-22032216D01*
X87077179Y-21868284D01*
X87135674Y-21688256D01*
X87155460Y-21500000D01*
X87155460Y-21499997D01*
X87155460Y-21495136D01*
X87175145Y-21428097D01*
X87191779Y-21407455D01*
X87662416Y-20936819D01*
X87723739Y-20903334D01*
X87750097Y-20900500D01*
X87844644Y-20900500D01*
X87844646Y-20900500D01*
X88029803Y-20861144D01*
X88202730Y-20784151D01*
X88355871Y-20672888D01*
X88482533Y-20532216D01*
X88577179Y-20368284D01*
X88635674Y-20188256D01*
X88655460Y-20000000D01*
X88635674Y-19811744D01*
X88577179Y-19631716D01*
X88482533Y-19467784D01*
X88355871Y-19327112D01*
X88294077Y-19282216D01*
X88202734Y-19215851D01*
X88202729Y-19215848D01*
X88029807Y-19138857D01*
X88029802Y-19138855D01*
X87884001Y-19107865D01*
X87844646Y-19099500D01*
X87655354Y-19099500D01*
X87622897Y-19106398D01*
X87470197Y-19138855D01*
X87470192Y-19138857D01*
X87297270Y-19215848D01*
X87297265Y-19215851D01*
X87144129Y-19327111D01*
X87017466Y-19467785D01*
X86922821Y-19631715D01*
X86922818Y-19631722D01*
X86864327Y-19811740D01*
X86864326Y-19811744D01*
X86845349Y-19992302D01*
X86844540Y-20000002D01*
X86844540Y-20004862D01*
X86824855Y-20071901D01*
X86808221Y-20092543D01*
X86337584Y-20563181D01*
X86276261Y-20596666D01*
X86249903Y-20599500D01*
X86155354Y-20599500D01*
X86130349Y-20604815D01*
X85970197Y-20638855D01*
X85970192Y-20638857D01*
X85797270Y-20715848D01*
X85797265Y-20715851D01*
X85644129Y-20827111D01*
X85517466Y-20967785D01*
X85422821Y-21131715D01*
X85422818Y-21131722D01*
X85377972Y-21269745D01*
X85364326Y-21311744D01*
X85344540Y-21500000D01*
X78449366Y-21500000D01*
X78485674Y-21388256D01*
X78505460Y-21200000D01*
X78485674Y-21011744D01*
X78427179Y-20831716D01*
X78332533Y-20667784D01*
X78205871Y-20527112D01*
X78205870Y-20527111D01*
X78052734Y-20415851D01*
X78052729Y-20415848D01*
X77879807Y-20338857D01*
X77879802Y-20338855D01*
X77734001Y-20307865D01*
X77694646Y-20299500D01*
X77505354Y-20299500D01*
X77472897Y-20306398D01*
X77320197Y-20338855D01*
X77320192Y-20338857D01*
X77174436Y-20403753D01*
X77105186Y-20413038D01*
X77041909Y-20383410D01*
X77004696Y-20324275D01*
X77000000Y-20290474D01*
X77000000Y-17249500D01*
X77019685Y-17182461D01*
X77072489Y-17136706D01*
X77124000Y-17125500D01*
X78546252Y-17125500D01*
X78613291Y-17145185D01*
X78638400Y-17166526D01*
X78644126Y-17172885D01*
X78644130Y-17172889D01*
X78797265Y-17284148D01*
X78797270Y-17284151D01*
X78970192Y-17361142D01*
X78970197Y-17361144D01*
X79155354Y-17400500D01*
X79155355Y-17400500D01*
X79344644Y-17400500D01*
X79344646Y-17400500D01*
X79529803Y-17361144D01*
X79702730Y-17284151D01*
X79855871Y-17172888D01*
X79982533Y-17032216D01*
X80077179Y-16868284D01*
X80135674Y-16688256D01*
X80155460Y-16500000D01*
X80135674Y-16311744D01*
X80077179Y-16131716D01*
X79982533Y-15967784D01*
X79855871Y-15827112D01*
X79855870Y-15827111D01*
X79702734Y-15715851D01*
X79702729Y-15715848D01*
X79529807Y-15638857D01*
X79529800Y-15638855D01*
X79447161Y-15621290D01*
X79385679Y-15588098D01*
X79351902Y-15526935D01*
X79356554Y-15457221D01*
X79398158Y-15401088D01*
X79447161Y-15378710D01*
X79453201Y-15377426D01*
X79529803Y-15361144D01*
X79702730Y-15284151D01*
X79855871Y-15172888D01*
X79982533Y-15032216D01*
X80077179Y-14868284D01*
X80135674Y-14688256D01*
X80155460Y-14500000D01*
X80135674Y-14311744D01*
X80077179Y-14131716D01*
X79982533Y-13967784D01*
X79855871Y-13827112D01*
X79855870Y-13827111D01*
X79702734Y-13715851D01*
X79702729Y-13715848D01*
X79529807Y-13638857D01*
X79529802Y-13638855D01*
X79384001Y-13607865D01*
X79344646Y-13599500D01*
X79155354Y-13599500D01*
X79122897Y-13606398D01*
X78970197Y-13638855D01*
X78970192Y-13638857D01*
X78797270Y-13715848D01*
X78797265Y-13715851D01*
X78644130Y-13827110D01*
X78644126Y-13827114D01*
X78638400Y-13833474D01*
X78578913Y-13870121D01*
X78546252Y-13874500D01*
X73953748Y-13874500D01*
X73886709Y-13854815D01*
X73861600Y-13833474D01*
X73855873Y-13827114D01*
X73855869Y-13827110D01*
X73702734Y-13715851D01*
X73702729Y-13715848D01*
X73529807Y-13638857D01*
X73529802Y-13638855D01*
X73384001Y-13607865D01*
X73344646Y-13599500D01*
X73155354Y-13599500D01*
X73122897Y-13606398D01*
X72970197Y-13638855D01*
X72970192Y-13638857D01*
X72797270Y-13715848D01*
X72797265Y-13715851D01*
X72644129Y-13827111D01*
X72525401Y-13958972D01*
X72465914Y-13995621D01*
X72433251Y-14000000D01*
X66500000Y-14000000D01*
X66500000Y-14750500D01*
X66480315Y-14817539D01*
X66427511Y-14863294D01*
X66376000Y-14874500D01*
X53238388Y-14874500D01*
X53117555Y-14898535D01*
X53117547Y-14898537D01*
X53003716Y-14945687D01*
X52922757Y-14999783D01*
X52901266Y-15014142D01*
X52901260Y-15014147D01*
X52451728Y-15463681D01*
X52390405Y-15497166D01*
X52364047Y-15500000D01*
X51999999Y-15500000D01*
X49479976Y-18020023D01*
X49418653Y-18053508D01*
X49348961Y-18048524D01*
X49304614Y-18020023D01*
X39341888Y-8057298D01*
X39310601Y-8000000D01*
X45594540Y-8000000D01*
X45614326Y-8188256D01*
X45614327Y-8188259D01*
X45672818Y-8368277D01*
X45672821Y-8368284D01*
X45767467Y-8532216D01*
X45810772Y-8580310D01*
X45842650Y-8615715D01*
X45872880Y-8678706D01*
X45874500Y-8698687D01*
X45874500Y-10801312D01*
X45854815Y-10868351D01*
X45842650Y-10884284D01*
X45767466Y-10967784D01*
X45672821Y-11131715D01*
X45672818Y-11131722D01*
X45617931Y-11300648D01*
X45614326Y-11311744D01*
X45594540Y-11500000D01*
X45614326Y-11688256D01*
X45614327Y-11688259D01*
X45672818Y-11868277D01*
X45672821Y-11868284D01*
X45767467Y-12032216D01*
X45857063Y-12131722D01*
X45894129Y-12172888D01*
X46047265Y-12284148D01*
X46047270Y-12284151D01*
X46220192Y-12361142D01*
X46220197Y-12361144D01*
X46405354Y-12400500D01*
X46405355Y-12400500D01*
X46594644Y-12400500D01*
X46594646Y-12400500D01*
X46779803Y-12361144D01*
X46952730Y-12284151D01*
X47105871Y-12172888D01*
X47232533Y-12032216D01*
X47327179Y-11868284D01*
X47382069Y-11699351D01*
X47421506Y-11641675D01*
X47485865Y-11614477D01*
X47554711Y-11626392D01*
X47606187Y-11673636D01*
X47617931Y-11699351D01*
X47672818Y-11868277D01*
X47672821Y-11868284D01*
X47767467Y-12032216D01*
X47857063Y-12131722D01*
X47894129Y-12172888D01*
X48047265Y-12284148D01*
X48047270Y-12284151D01*
X48220192Y-12361142D01*
X48220197Y-12361144D01*
X48405354Y-12400500D01*
X48405355Y-12400500D01*
X48594644Y-12400500D01*
X48594646Y-12400500D01*
X48779803Y-12361144D01*
X48952730Y-12284151D01*
X49105871Y-12172888D01*
X49232533Y-12032216D01*
X49327179Y-11868284D01*
X49385674Y-11688256D01*
X49405460Y-11500000D01*
X49385674Y-11311744D01*
X49327179Y-11131716D01*
X49232533Y-10967784D01*
X49201705Y-10933546D01*
X49157350Y-10884284D01*
X49127120Y-10821292D01*
X49125500Y-10801312D01*
X49125500Y-10250000D01*
X82094540Y-10250000D01*
X82114326Y-10438256D01*
X82114327Y-10438259D01*
X82172818Y-10618277D01*
X82172821Y-10618284D01*
X82267467Y-10782216D01*
X82384162Y-10911819D01*
X82394129Y-10922888D01*
X82547265Y-11034148D01*
X82547270Y-11034151D01*
X82720192Y-11111142D01*
X82720197Y-11111144D01*
X82905354Y-11150500D01*
X82905355Y-11150500D01*
X83094644Y-11150500D01*
X83094646Y-11150500D01*
X83279803Y-11111144D01*
X83452730Y-11034151D01*
X83605871Y-10922888D01*
X83608788Y-10919647D01*
X83611600Y-10916526D01*
X83671087Y-10879879D01*
X83703748Y-10875500D01*
X83939548Y-10875500D01*
X84006587Y-10895185D01*
X84027229Y-10911819D01*
X85511016Y-12395606D01*
X85511045Y-12395637D01*
X85601263Y-12485855D01*
X85601267Y-12485858D01*
X85670647Y-12532216D01*
X85703715Y-12554312D01*
X85760733Y-12577929D01*
X85760734Y-12577930D01*
X85760735Y-12577930D01*
X85817548Y-12601463D01*
X85938389Y-12625499D01*
X85938393Y-12625500D01*
X85938394Y-12625500D01*
X91546252Y-12625500D01*
X91613291Y-12645185D01*
X91638400Y-12666526D01*
X91644126Y-12672885D01*
X91644130Y-12672889D01*
X91797265Y-12784148D01*
X91797270Y-12784151D01*
X91970192Y-12861142D01*
X91970197Y-12861144D01*
X92155354Y-12900500D01*
X92155355Y-12900500D01*
X92344644Y-12900500D01*
X92344646Y-12900500D01*
X92529803Y-12861144D01*
X92702730Y-12784151D01*
X92855871Y-12672888D01*
X92982533Y-12532216D01*
X93077179Y-12368284D01*
X93135674Y-12188256D01*
X93155460Y-12000000D01*
X93135674Y-11811744D01*
X93077179Y-11631716D01*
X93016613Y-11526811D01*
X93000000Y-11464811D01*
X93000000Y-9535187D01*
X93016613Y-9473187D01*
X93016786Y-9472888D01*
X93077179Y-9368284D01*
X93135674Y-9188256D01*
X93155460Y-9000000D01*
X93135674Y-8811744D01*
X93077179Y-8631716D01*
X92982533Y-8467784D01*
X92855871Y-8327112D01*
X92855870Y-8327111D01*
X92702734Y-8215851D01*
X92702729Y-8215848D01*
X92529807Y-8138857D01*
X92529802Y-8138855D01*
X92384001Y-8107865D01*
X92344646Y-8099500D01*
X92155354Y-8099500D01*
X92122897Y-8106398D01*
X91970197Y-8138855D01*
X91970192Y-8138857D01*
X91797270Y-8215848D01*
X91797265Y-8215851D01*
X91644129Y-8327111D01*
X91517466Y-8467785D01*
X91422821Y-8631715D01*
X91422818Y-8631722D01*
X91368142Y-8800000D01*
X91364326Y-8811744D01*
X91356405Y-8887105D01*
X91346678Y-8979651D01*
X91320093Y-9044266D01*
X91311038Y-9054370D01*
X90777229Y-9588181D01*
X90715906Y-9621666D01*
X90689548Y-9624500D01*
X86953748Y-9624500D01*
X86886709Y-9604815D01*
X86861600Y-9583474D01*
X86855873Y-9577114D01*
X86855869Y-9577110D01*
X86702734Y-9465851D01*
X86702729Y-9465848D01*
X86529807Y-9388857D01*
X86529802Y-9388855D01*
X86384001Y-9357865D01*
X86344646Y-9349500D01*
X86155354Y-9349500D01*
X86132739Y-9354307D01*
X85970197Y-9388855D01*
X85970192Y-9388857D01*
X85797270Y-9465848D01*
X85797265Y-9465851D01*
X85644129Y-9577111D01*
X85517466Y-9717785D01*
X85422821Y-9881715D01*
X85422818Y-9881722D01*
X85364327Y-10061740D01*
X85364326Y-10061744D01*
X85355929Y-10141635D01*
X85351746Y-10181435D01*
X85325161Y-10246050D01*
X85267863Y-10286034D01*
X85198044Y-10288694D01*
X85140744Y-10256154D01*
X84740198Y-9855608D01*
X84740178Y-9855586D01*
X84648733Y-9764141D01*
X84597509Y-9729915D01*
X84546286Y-9695688D01*
X84459619Y-9659790D01*
X84459617Y-9659788D01*
X84432455Y-9648538D01*
X84432453Y-9648537D01*
X84432452Y-9648537D01*
X84372029Y-9636518D01*
X84311610Y-9624500D01*
X84311607Y-9624500D01*
X84311606Y-9624500D01*
X83703748Y-9624500D01*
X83636709Y-9604815D01*
X83611600Y-9583474D01*
X83605873Y-9577114D01*
X83605869Y-9577110D01*
X83452734Y-9465851D01*
X83452729Y-9465848D01*
X83279807Y-9388857D01*
X83279802Y-9388855D01*
X83134001Y-9357865D01*
X83094646Y-9349500D01*
X82905354Y-9349500D01*
X82882739Y-9354307D01*
X82720197Y-9388855D01*
X82720192Y-9388857D01*
X82547270Y-9465848D01*
X82547265Y-9465851D01*
X82394129Y-9577111D01*
X82267466Y-9717785D01*
X82172821Y-9881715D01*
X82172818Y-9881722D01*
X82114327Y-10061740D01*
X82114326Y-10061744D01*
X82094540Y-10250000D01*
X49125500Y-10250000D01*
X49125500Y-8698687D01*
X49145185Y-8631648D01*
X49157350Y-8615715D01*
X49175891Y-8595122D01*
X49232533Y-8532216D01*
X49327179Y-8368284D01*
X49385674Y-8188256D01*
X49405460Y-8000000D01*
X49385674Y-7811744D01*
X49327179Y-7631716D01*
X49232533Y-7467784D01*
X49105871Y-7327112D01*
X49105870Y-7327111D01*
X48952734Y-7215851D01*
X48952729Y-7215848D01*
X48779807Y-7138857D01*
X48779802Y-7138855D01*
X48634001Y-7107865D01*
X48594646Y-7099500D01*
X48405354Y-7099500D01*
X48372897Y-7106398D01*
X48220197Y-7138855D01*
X48220192Y-7138857D01*
X48047270Y-7215848D01*
X48047265Y-7215851D01*
X47894129Y-7327111D01*
X47767466Y-7467785D01*
X47672821Y-7631715D01*
X47672818Y-7631722D01*
X47617931Y-7800648D01*
X47578493Y-7858324D01*
X47514135Y-7885522D01*
X47445288Y-7873607D01*
X47393813Y-7826363D01*
X47382069Y-7800648D01*
X47327181Y-7631722D01*
X47327180Y-7631721D01*
X47327179Y-7631716D01*
X47232533Y-7467784D01*
X47105871Y-7327112D01*
X47105870Y-7327111D01*
X46952734Y-7215851D01*
X46952729Y-7215848D01*
X46779807Y-7138857D01*
X46779802Y-7138855D01*
X46634001Y-7107865D01*
X46594646Y-7099500D01*
X46405354Y-7099500D01*
X46372897Y-7106398D01*
X46220197Y-7138855D01*
X46220192Y-7138857D01*
X46047270Y-7215848D01*
X46047265Y-7215851D01*
X45894129Y-7327111D01*
X45767466Y-7467785D01*
X45672821Y-7631715D01*
X45672818Y-7631722D01*
X45621132Y-7790796D01*
X45614326Y-7811744D01*
X45594540Y-8000000D01*
X39310601Y-8000000D01*
X39308403Y-7995975D01*
X39313387Y-7926283D01*
X39329258Y-7896722D01*
X39332525Y-7892223D01*
X39332533Y-7892216D01*
X39427179Y-7728284D01*
X39485674Y-7548256D01*
X39505460Y-7360000D01*
X39492580Y-7237458D01*
X39505149Y-7168732D01*
X39552881Y-7117708D01*
X39615901Y-7100500D01*
X39694644Y-7100500D01*
X39694646Y-7100500D01*
X39879803Y-7061144D01*
X40052730Y-6984151D01*
X40205871Y-6872888D01*
X40208788Y-6869647D01*
X40211600Y-6866526D01*
X40271087Y-6829879D01*
X40303748Y-6825500D01*
X47461607Y-6825500D01*
X47522029Y-6813481D01*
X47582452Y-6801463D01*
X47636040Y-6779266D01*
X47636041Y-6779265D01*
X47636043Y-6779265D01*
X47696281Y-6754314D01*
X47696280Y-6754314D01*
X47696286Y-6754312D01*
X47747509Y-6720084D01*
X47798733Y-6685858D01*
X47885858Y-6598733D01*
X47885859Y-6598731D01*
X47892925Y-6591665D01*
X47892928Y-6591661D01*
X48898729Y-5585860D01*
X48898733Y-5585858D01*
X48985858Y-5498733D01*
X49029877Y-5432853D01*
X49037254Y-5421813D01*
X49037256Y-5421810D01*
X49044106Y-5411557D01*
X49054312Y-5396285D01*
X49083632Y-5325500D01*
X49101463Y-5282452D01*
X49123185Y-5173240D01*
X49155569Y-5111333D01*
X49171913Y-5097118D01*
X49216928Y-5064414D01*
X49339414Y-4941928D01*
X49441232Y-4801788D01*
X49519873Y-4647445D01*
X49573402Y-4482701D01*
X49600500Y-4311611D01*
X49600500Y-3588389D01*
X49573402Y-3417299D01*
X49519873Y-3252555D01*
X49500000Y-3213551D01*
X49496048Y-3205794D01*
X49483152Y-3137125D01*
X49509429Y-3072385D01*
X49566535Y-3032128D01*
X49606533Y-3025500D01*
X53288566Y-3025500D01*
X53355605Y-3045185D01*
X53401360Y-3097989D01*
X53411075Y-3165558D01*
X53411182Y-3165569D01*
X53411138Y-3165995D01*
X53411304Y-3167147D01*
X53410642Y-3170848D01*
X53400000Y-3275013D01*
X53400000Y-3700000D01*
X54219670Y-3700000D01*
X54199925Y-3719745D01*
X54150556Y-3805255D01*
X54125000Y-3900630D01*
X54125000Y-3999370D01*
X54150556Y-4094745D01*
X54199925Y-4180255D01*
X54219670Y-4200000D01*
X53400001Y-4200000D01*
X53400001Y-4624986D01*
X53410494Y-4727697D01*
X53465641Y-4894119D01*
X53465643Y-4894124D01*
X53557684Y-5043345D01*
X53681654Y-5167315D01*
X53830875Y-5259356D01*
X53830880Y-5259358D01*
X53997302Y-5314505D01*
X53997309Y-5314506D01*
X54100019Y-5324999D01*
X54249999Y-5324999D01*
X54250000Y-5324998D01*
X54250000Y-4230330D01*
X54269745Y-4250075D01*
X54355255Y-4299444D01*
X54450630Y-4325000D01*
X54549370Y-4325000D01*
X54644745Y-4299444D01*
X54730255Y-4250075D01*
X54750000Y-4230330D01*
X54750000Y-5324999D01*
X54899972Y-5324999D01*
X54899986Y-5324998D01*
X55002697Y-5314505D01*
X55169119Y-5259358D01*
X55169124Y-5259356D01*
X55318345Y-5167315D01*
X55442315Y-5043345D01*
X55481945Y-4979094D01*
X55533893Y-4932368D01*
X55602855Y-4921145D01*
X55666937Y-4948988D01*
X55675166Y-4956508D01*
X55783075Y-5064417D01*
X55823384Y-5093702D01*
X55866050Y-5149031D01*
X55874500Y-5194021D01*
X55874500Y-5961610D01*
X55895282Y-6066089D01*
X55898537Y-6082452D01*
X55906331Y-6101269D01*
X55912347Y-6115792D01*
X55912347Y-6115793D01*
X55945685Y-6196280D01*
X55945690Y-6196289D01*
X55979914Y-6247507D01*
X55979915Y-6247509D01*
X56014140Y-6298731D01*
X56014141Y-6298732D01*
X56014142Y-6298733D01*
X56101267Y-6385858D01*
X56101268Y-6385858D01*
X56108335Y-6392925D01*
X56108334Y-6392925D01*
X56108337Y-6392927D01*
X58914141Y-9198732D01*
X58914142Y-9198733D01*
X59001267Y-9285858D01*
X59001268Y-9285859D01*
X59103707Y-9354307D01*
X59103716Y-9354312D01*
X59124739Y-9363020D01*
X59217548Y-9401463D01*
X59277971Y-9413481D01*
X59338393Y-9425500D01*
X59338394Y-9425500D01*
X70496252Y-9425500D01*
X70563291Y-9445185D01*
X70588400Y-9466526D01*
X70594126Y-9472885D01*
X70594130Y-9472889D01*
X70747265Y-9584148D01*
X70747270Y-9584151D01*
X70920192Y-9661142D01*
X70920197Y-9661144D01*
X71105354Y-9700500D01*
X71105355Y-9700500D01*
X71294644Y-9700500D01*
X71294646Y-9700500D01*
X71479803Y-9661144D01*
X71652730Y-9584151D01*
X71805871Y-9472888D01*
X71932533Y-9332216D01*
X72027179Y-9168284D01*
X72085674Y-8988256D01*
X72105460Y-8800000D01*
X72085674Y-8611744D01*
X72027179Y-8431716D01*
X71932533Y-8267784D01*
X71805871Y-8127112D01*
X71805870Y-8127111D01*
X71652734Y-8015851D01*
X71652729Y-8015848D01*
X71479807Y-7938857D01*
X71479802Y-7938855D01*
X71334001Y-7907865D01*
X71294646Y-7899500D01*
X71105354Y-7899500D01*
X71072897Y-7906398D01*
X70920197Y-7938855D01*
X70920192Y-7938857D01*
X70747270Y-8015848D01*
X70747265Y-8015851D01*
X70594130Y-8127110D01*
X70594126Y-8127114D01*
X70588400Y-8133474D01*
X70528913Y-8170121D01*
X70496252Y-8174500D01*
X59710453Y-8174500D01*
X59643414Y-8154815D01*
X59622772Y-8138181D01*
X57961095Y-6476504D01*
X79180000Y-6476504D01*
X79180000Y-6875000D01*
X79880000Y-6875000D01*
X79880000Y-7375000D01*
X79180000Y-7375000D01*
X79180000Y-7773495D01*
X79218427Y-7966681D01*
X79218430Y-7966693D01*
X79293807Y-8148671D01*
X79293814Y-8148684D01*
X79403248Y-8312462D01*
X79403251Y-8312466D01*
X79542533Y-8451748D01*
X79542537Y-8451751D01*
X79706315Y-8561185D01*
X79706328Y-8561192D01*
X79888308Y-8636569D01*
X79930000Y-8644862D01*
X79930000Y-7841988D01*
X79939940Y-7859205D01*
X79995795Y-7915060D01*
X80064204Y-7954556D01*
X80140504Y-7975000D01*
X80219496Y-7975000D01*
X80295796Y-7954556D01*
X80364205Y-7915060D01*
X80420060Y-7859205D01*
X80430000Y-7841988D01*
X80430000Y-8644862D01*
X80471690Y-8636569D01*
X80471692Y-8636569D01*
X80653671Y-8561192D01*
X80653684Y-8561185D01*
X80817462Y-8451751D01*
X80817466Y-8451748D01*
X80956748Y-8312466D01*
X80956751Y-8312462D01*
X81066185Y-8148684D01*
X81066192Y-8148671D01*
X81141569Y-7966693D01*
X81141572Y-7966681D01*
X81179999Y-7773495D01*
X81180000Y-7773492D01*
X81180000Y-7375000D01*
X80480000Y-7375000D01*
X80480000Y-6875000D01*
X81029763Y-6875000D01*
X81096802Y-6894685D01*
X81137149Y-6936999D01*
X81149485Y-6958365D01*
X81256635Y-7065515D01*
X81317231Y-7100500D01*
X81383666Y-7138857D01*
X81387865Y-7141281D01*
X81534234Y-7180500D01*
X81534236Y-7180500D01*
X81685764Y-7180500D01*
X81685766Y-7180500D01*
X81832135Y-7141281D01*
X81963365Y-7065515D01*
X82070515Y-6958365D01*
X82146281Y-6827135D01*
X82185500Y-6680766D01*
X82185500Y-6529234D01*
X86814500Y-6529234D01*
X86814500Y-6680766D01*
X86816507Y-6688256D01*
X86853719Y-6827136D01*
X86880135Y-6872889D01*
X86929485Y-6958365D01*
X87036635Y-7065515D01*
X87097231Y-7100500D01*
X87163666Y-7138857D01*
X87167865Y-7141281D01*
X87314234Y-7180500D01*
X87314236Y-7180500D01*
X87465764Y-7180500D01*
X87465766Y-7180500D01*
X87612135Y-7141281D01*
X87743365Y-7065515D01*
X87850515Y-6958365D01*
X87862850Y-6936999D01*
X87913417Y-6888784D01*
X87970237Y-6875000D01*
X88520000Y-6875000D01*
X88520000Y-7375000D01*
X87820000Y-7375000D01*
X87820000Y-7773495D01*
X87858427Y-7966681D01*
X87858430Y-7966693D01*
X87933807Y-8148671D01*
X87933814Y-8148684D01*
X88043248Y-8312462D01*
X88043251Y-8312466D01*
X88182533Y-8451748D01*
X88182537Y-8451751D01*
X88346315Y-8561185D01*
X88346328Y-8561192D01*
X88528308Y-8636569D01*
X88570000Y-8644862D01*
X88570000Y-7841988D01*
X88579940Y-7859205D01*
X88635795Y-7915060D01*
X88704204Y-7954556D01*
X88780504Y-7975000D01*
X88859496Y-7975000D01*
X88935796Y-7954556D01*
X89004205Y-7915060D01*
X89060060Y-7859205D01*
X89070000Y-7841988D01*
X89070000Y-8644862D01*
X89111690Y-8636569D01*
X89111692Y-8636569D01*
X89293671Y-8561192D01*
X89293684Y-8561185D01*
X89457462Y-8451751D01*
X89457466Y-8451748D01*
X89596748Y-8312466D01*
X89596751Y-8312462D01*
X89706185Y-8148684D01*
X89706192Y-8148671D01*
X89781569Y-7966693D01*
X89781572Y-7966681D01*
X89819999Y-7773495D01*
X89820000Y-7773492D01*
X89820000Y-7375000D01*
X89120000Y-7375000D01*
X89120000Y-6875000D01*
X89820000Y-6875000D01*
X89820000Y-6476508D01*
X89819999Y-6476504D01*
X89781572Y-6283318D01*
X89781569Y-6283306D01*
X89706192Y-6101328D01*
X89706185Y-6101315D01*
X89596751Y-5937537D01*
X89596748Y-5937533D01*
X89457466Y-5798251D01*
X89457462Y-5798248D01*
X89293684Y-5688814D01*
X89293671Y-5688807D01*
X89111691Y-5613429D01*
X89111683Y-5613427D01*
X89070000Y-5605135D01*
X89070000Y-6408011D01*
X89060060Y-6390795D01*
X89004205Y-6334940D01*
X88935796Y-6295444D01*
X88859496Y-6275000D01*
X88780504Y-6275000D01*
X88704204Y-6295444D01*
X88635795Y-6334940D01*
X88579940Y-6390795D01*
X88570000Y-6408011D01*
X88570000Y-5605136D01*
X88569999Y-5605135D01*
X88528316Y-5613427D01*
X88528308Y-5613429D01*
X88346328Y-5688807D01*
X88346315Y-5688814D01*
X88182537Y-5798248D01*
X88182533Y-5798251D01*
X88043248Y-5937536D01*
X87933811Y-6101321D01*
X87930949Y-6106676D01*
X87881982Y-6156516D01*
X87813843Y-6171971D01*
X87748165Y-6148134D01*
X87746112Y-6146592D01*
X87743371Y-6144489D01*
X87743366Y-6144486D01*
X87743365Y-6144485D01*
X87635925Y-6082454D01*
X87612136Y-6068719D01*
X87538950Y-6049109D01*
X87465766Y-6029500D01*
X87314234Y-6029500D01*
X87167863Y-6068719D01*
X87036635Y-6144485D01*
X87036632Y-6144487D01*
X86929487Y-6251632D01*
X86929485Y-6251635D01*
X86853719Y-6382863D01*
X86822333Y-6500000D01*
X86814500Y-6529234D01*
X82185500Y-6529234D01*
X82146281Y-6382865D01*
X82070515Y-6251635D01*
X81963365Y-6144485D01*
X81855925Y-6082454D01*
X81832136Y-6068719D01*
X81758950Y-6049109D01*
X81685766Y-6029500D01*
X81534234Y-6029500D01*
X81387863Y-6068719D01*
X81256626Y-6144490D01*
X81253882Y-6146596D01*
X81251152Y-6147651D01*
X81249597Y-6148549D01*
X81249456Y-6148306D01*
X81188710Y-6171785D01*
X81120267Y-6157741D01*
X81070281Y-6108922D01*
X81069042Y-6106660D01*
X81066187Y-6101318D01*
X80956751Y-5937537D01*
X80956748Y-5937533D01*
X80817466Y-5798251D01*
X80817462Y-5798248D01*
X80653684Y-5688814D01*
X80653671Y-5688807D01*
X80471691Y-5613429D01*
X80471683Y-5613427D01*
X80430000Y-5605135D01*
X80430000Y-6408011D01*
X80420060Y-6390795D01*
X80364205Y-6334940D01*
X80295796Y-6295444D01*
X80219496Y-6275000D01*
X80140504Y-6275000D01*
X80064204Y-6295444D01*
X79995795Y-6334940D01*
X79939940Y-6390795D01*
X79930000Y-6408011D01*
X79930000Y-5605136D01*
X79929999Y-5605135D01*
X79888316Y-5613427D01*
X79888308Y-5613429D01*
X79706328Y-5688807D01*
X79706315Y-5688814D01*
X79542537Y-5798248D01*
X79542533Y-5798251D01*
X79403251Y-5937533D01*
X79403248Y-5937537D01*
X79293814Y-6101315D01*
X79293807Y-6101328D01*
X79218430Y-6283306D01*
X79218427Y-6283318D01*
X79180000Y-6476504D01*
X57961095Y-6476504D01*
X57161819Y-5677228D01*
X57128334Y-5615905D01*
X57125500Y-5589547D01*
X57125500Y-5194021D01*
X57145185Y-5126982D01*
X57176616Y-5093702D01*
X57216924Y-5064417D01*
X57216924Y-5064416D01*
X57216928Y-5064414D01*
X57339414Y-4941928D01*
X57399682Y-4858975D01*
X57455012Y-4816311D01*
X57524626Y-4810332D01*
X57586421Y-4842938D01*
X57600315Y-4858973D01*
X57660586Y-4941928D01*
X57783072Y-5064414D01*
X57923212Y-5166232D01*
X58077555Y-5244873D01*
X58242299Y-5298402D01*
X58413389Y-5325500D01*
X58413390Y-5325500D01*
X58586610Y-5325500D01*
X58586611Y-5325500D01*
X58757701Y-5298402D01*
X58922445Y-5244873D01*
X59076788Y-5166232D01*
X59216928Y-5064414D01*
X59339414Y-4941928D01*
X59399682Y-4858975D01*
X59455012Y-4816311D01*
X59524626Y-4810332D01*
X59586421Y-4842938D01*
X59600315Y-4858973D01*
X59660586Y-4941928D01*
X59783072Y-5064414D01*
X59923212Y-5166232D01*
X60077555Y-5244873D01*
X60242299Y-5298402D01*
X60413389Y-5325500D01*
X60413390Y-5325500D01*
X60586610Y-5325500D01*
X60586611Y-5325500D01*
X60757701Y-5298402D01*
X60922445Y-5244873D01*
X61076788Y-5166232D01*
X61216928Y-5064414D01*
X61339414Y-4941928D01*
X61399682Y-4858975D01*
X61455012Y-4816311D01*
X61524626Y-4810332D01*
X61586421Y-4842938D01*
X61600315Y-4858973D01*
X61660586Y-4941928D01*
X61783072Y-5064414D01*
X61923212Y-5166232D01*
X62077555Y-5244873D01*
X62242299Y-5298402D01*
X62413389Y-5325500D01*
X62413390Y-5325500D01*
X62586610Y-5325500D01*
X62586611Y-5325500D01*
X62757701Y-5298402D01*
X62922445Y-5244873D01*
X63076788Y-5166232D01*
X63216928Y-5064414D01*
X63339414Y-4941928D01*
X63399682Y-4858975D01*
X63455012Y-4816311D01*
X63524626Y-4810332D01*
X63586421Y-4842938D01*
X63600315Y-4858973D01*
X63660586Y-4941928D01*
X63783072Y-5064414D01*
X63923212Y-5166232D01*
X64077555Y-5244873D01*
X64242299Y-5298402D01*
X64413389Y-5325500D01*
X64413390Y-5325500D01*
X64586610Y-5325500D01*
X64586611Y-5325500D01*
X64757701Y-5298402D01*
X64922445Y-5244873D01*
X65076788Y-5166232D01*
X65216928Y-5064414D01*
X65339414Y-4941928D01*
X65441232Y-4801788D01*
X65519873Y-4647445D01*
X65573402Y-4482701D01*
X65600500Y-4311611D01*
X65600500Y-3588389D01*
X65573402Y-3417299D01*
X65519873Y-3252555D01*
X65441232Y-3098212D01*
X65339414Y-2958072D01*
X65216928Y-2835586D01*
X65076788Y-2733768D01*
X64930403Y-2659182D01*
X64922447Y-2655128D01*
X64922446Y-2655127D01*
X64922445Y-2655127D01*
X64757701Y-2601598D01*
X64757699Y-2601597D01*
X64757698Y-2601597D01*
X64626271Y-2580781D01*
X64586611Y-2574500D01*
X64413389Y-2574500D01*
X64373728Y-2580781D01*
X64242302Y-2601597D01*
X64077552Y-2655128D01*
X63923211Y-2733768D01*
X63863356Y-2777256D01*
X63783072Y-2835586D01*
X63783070Y-2835588D01*
X63783069Y-2835588D01*
X63660588Y-2958069D01*
X63660581Y-2958078D01*
X63600317Y-3041023D01*
X63544987Y-3083689D01*
X63475374Y-3089667D01*
X63413579Y-3057061D01*
X63399683Y-3041023D01*
X63351899Y-2975257D01*
X63339414Y-2958072D01*
X63216928Y-2835586D01*
X63076788Y-2733768D01*
X62930403Y-2659182D01*
X62922447Y-2655128D01*
X62922446Y-2655127D01*
X62922445Y-2655127D01*
X62757701Y-2601598D01*
X62757699Y-2601597D01*
X62757698Y-2601597D01*
X62626271Y-2580781D01*
X62586611Y-2574500D01*
X62413389Y-2574500D01*
X62373728Y-2580781D01*
X62242302Y-2601597D01*
X62077552Y-2655128D01*
X61923211Y-2733768D01*
X61863356Y-2777256D01*
X61783072Y-2835586D01*
X61783070Y-2835588D01*
X61783069Y-2835588D01*
X61660588Y-2958069D01*
X61660581Y-2958078D01*
X61600317Y-3041023D01*
X61544987Y-3083689D01*
X61475374Y-3089667D01*
X61413579Y-3057061D01*
X61399683Y-3041023D01*
X61351899Y-2975257D01*
X61339414Y-2958072D01*
X61216928Y-2835586D01*
X61076788Y-2733768D01*
X60930403Y-2659182D01*
X60922447Y-2655128D01*
X60922446Y-2655127D01*
X60922445Y-2655127D01*
X60757701Y-2601598D01*
X60757699Y-2601597D01*
X60757698Y-2601597D01*
X60626271Y-2580781D01*
X60586611Y-2574500D01*
X60413389Y-2574500D01*
X60373728Y-2580781D01*
X60242302Y-2601597D01*
X60077552Y-2655128D01*
X59923211Y-2733768D01*
X59863356Y-2777256D01*
X59783072Y-2835586D01*
X59783070Y-2835588D01*
X59783069Y-2835588D01*
X59660588Y-2958069D01*
X59660581Y-2958078D01*
X59600317Y-3041023D01*
X59544987Y-3083689D01*
X59475374Y-3089667D01*
X59413579Y-3057061D01*
X59399683Y-3041023D01*
X59351899Y-2975257D01*
X59339414Y-2958072D01*
X59216928Y-2835586D01*
X59076788Y-2733768D01*
X58930403Y-2659182D01*
X58922447Y-2655128D01*
X58922446Y-2655127D01*
X58922445Y-2655127D01*
X58757701Y-2601598D01*
X58757699Y-2601597D01*
X58757698Y-2601597D01*
X58626271Y-2580781D01*
X58586611Y-2574500D01*
X58413389Y-2574500D01*
X58373728Y-2580781D01*
X58242302Y-2601597D01*
X58077552Y-2655128D01*
X57923211Y-2733768D01*
X57863356Y-2777256D01*
X57783072Y-2835586D01*
X57783070Y-2835588D01*
X57783069Y-2835588D01*
X57660588Y-2958069D01*
X57660581Y-2958078D01*
X57600317Y-3041023D01*
X57544987Y-3083689D01*
X57475374Y-3089667D01*
X57413579Y-3057061D01*
X57399683Y-3041023D01*
X57351899Y-2975257D01*
X57339414Y-2958072D01*
X57216928Y-2835586D01*
X57076788Y-2733768D01*
X56975158Y-2681985D01*
X56943772Y-2659181D01*
X56898732Y-2614141D01*
X56711095Y-2426504D01*
X79180000Y-2426504D01*
X79180000Y-2675000D01*
X79880000Y-2675000D01*
X79880000Y-3175000D01*
X79180000Y-3175000D01*
X79180000Y-3423495D01*
X79218427Y-3616681D01*
X79218430Y-3616693D01*
X79293807Y-3798671D01*
X79293814Y-3798684D01*
X79403248Y-3962462D01*
X79403251Y-3962466D01*
X79542533Y-4101748D01*
X79542537Y-4101751D01*
X79706315Y-4211185D01*
X79706328Y-4211192D01*
X79888308Y-4286569D01*
X79930000Y-4294862D01*
X79930000Y-3491988D01*
X79939940Y-3509205D01*
X79995795Y-3565060D01*
X80064204Y-3604556D01*
X80140504Y-3625000D01*
X80219496Y-3625000D01*
X80295796Y-3604556D01*
X80364205Y-3565060D01*
X80420060Y-3509205D01*
X80430000Y-3491988D01*
X80430000Y-4294862D01*
X80471690Y-4286569D01*
X80471692Y-4286569D01*
X80653671Y-4211192D01*
X80653684Y-4211185D01*
X80817462Y-4101751D01*
X80817466Y-4101748D01*
X80956748Y-3962466D01*
X80956751Y-3962462D01*
X81066185Y-3798684D01*
X81066192Y-3798671D01*
X81141569Y-3616693D01*
X81141572Y-3616681D01*
X81179999Y-3423495D01*
X81180000Y-3423492D01*
X81180000Y-3175000D01*
X80480000Y-3175000D01*
X80480000Y-2675000D01*
X81180000Y-2675000D01*
X81180000Y-2426508D01*
X81179999Y-2426504D01*
X87820000Y-2426504D01*
X87820000Y-2675000D01*
X88520000Y-2675000D01*
X88520000Y-3175000D01*
X87820000Y-3175000D01*
X87820000Y-3423495D01*
X87858427Y-3616681D01*
X87858430Y-3616693D01*
X87933807Y-3798671D01*
X87933814Y-3798684D01*
X88043248Y-3962462D01*
X88043251Y-3962466D01*
X88182533Y-4101748D01*
X88182537Y-4101751D01*
X88346315Y-4211185D01*
X88346328Y-4211192D01*
X88528308Y-4286569D01*
X88570000Y-4294862D01*
X88570000Y-3491988D01*
X88579940Y-3509205D01*
X88635795Y-3565060D01*
X88704204Y-3604556D01*
X88780504Y-3625000D01*
X88859496Y-3625000D01*
X88935796Y-3604556D01*
X89004205Y-3565060D01*
X89060060Y-3509205D01*
X89070000Y-3491988D01*
X89070000Y-4294862D01*
X89111690Y-4286569D01*
X89111692Y-4286569D01*
X89293671Y-4211192D01*
X89293684Y-4211185D01*
X89457462Y-4101751D01*
X89457466Y-4101748D01*
X89596748Y-3962466D01*
X89596751Y-3962462D01*
X89652712Y-3878711D01*
X92149500Y-3878711D01*
X92149500Y-4121288D01*
X92181161Y-4361785D01*
X92243947Y-4596104D01*
X92335160Y-4816311D01*
X92336776Y-4820212D01*
X92458064Y-5030289D01*
X92458066Y-5030292D01*
X92458067Y-5030293D01*
X92605733Y-5222736D01*
X92605739Y-5222743D01*
X92777256Y-5394260D01*
X92777263Y-5394266D01*
X92779897Y-5396287D01*
X92969711Y-5541936D01*
X93179788Y-5663224D01*
X93403900Y-5756054D01*
X93638211Y-5818838D01*
X93818586Y-5842584D01*
X93878711Y-5850500D01*
X93878712Y-5850500D01*
X94121289Y-5850500D01*
X94169388Y-5844167D01*
X94361789Y-5818838D01*
X94596100Y-5756054D01*
X94820212Y-5663224D01*
X95030289Y-5541936D01*
X95222738Y-5394265D01*
X95394265Y-5222738D01*
X95541936Y-5030289D01*
X95663224Y-4820212D01*
X95756054Y-4596100D01*
X95818838Y-4361789D01*
X95850500Y-4121288D01*
X95850500Y-3878712D01*
X95818838Y-3638211D01*
X95756054Y-3403900D01*
X95663224Y-3179788D01*
X95541936Y-2969711D01*
X95455186Y-2856656D01*
X95394266Y-2777263D01*
X95394260Y-2777256D01*
X95222743Y-2605739D01*
X95222736Y-2605733D01*
X95030293Y-2458067D01*
X95030292Y-2458066D01*
X95030289Y-2458064D01*
X94820212Y-2336776D01*
X94820205Y-2336773D01*
X94596104Y-2243947D01*
X94361785Y-2181161D01*
X94121289Y-2149500D01*
X94121288Y-2149500D01*
X93878712Y-2149500D01*
X93878711Y-2149500D01*
X93638214Y-2181161D01*
X93403895Y-2243947D01*
X93179794Y-2336773D01*
X93179785Y-2336777D01*
X92969706Y-2458067D01*
X92777263Y-2605733D01*
X92777256Y-2605739D01*
X92605739Y-2777256D01*
X92605733Y-2777263D01*
X92458067Y-2969706D01*
X92336777Y-3179785D01*
X92336773Y-3179794D01*
X92243947Y-3403895D01*
X92181161Y-3638214D01*
X92149500Y-3878711D01*
X89652712Y-3878711D01*
X89706185Y-3798684D01*
X89706192Y-3798671D01*
X89781569Y-3616693D01*
X89781572Y-3616681D01*
X89819999Y-3423495D01*
X89820000Y-3423492D01*
X89820000Y-3175000D01*
X89120000Y-3175000D01*
X89120000Y-2675000D01*
X89820000Y-2675000D01*
X89820000Y-2426508D01*
X89819999Y-2426504D01*
X89781572Y-2233318D01*
X89781569Y-2233306D01*
X89706192Y-2051328D01*
X89706185Y-2051315D01*
X89596751Y-1887537D01*
X89596748Y-1887533D01*
X89457466Y-1748251D01*
X89457462Y-1748248D01*
X89293684Y-1638814D01*
X89293671Y-1638807D01*
X89111691Y-1563429D01*
X89111683Y-1563427D01*
X89070000Y-1555135D01*
X89070000Y-2358011D01*
X89060060Y-2340795D01*
X89004205Y-2284940D01*
X88935796Y-2245444D01*
X88859496Y-2225000D01*
X88780504Y-2225000D01*
X88704204Y-2245444D01*
X88635795Y-2284940D01*
X88579940Y-2340795D01*
X88570000Y-2358011D01*
X88570000Y-1555136D01*
X88569999Y-1555135D01*
X88528316Y-1563427D01*
X88528308Y-1563429D01*
X88346328Y-1638807D01*
X88346315Y-1638814D01*
X88182537Y-1748248D01*
X88182533Y-1748251D01*
X88043251Y-1887533D01*
X88043248Y-1887537D01*
X87933814Y-2051315D01*
X87933807Y-2051328D01*
X87858430Y-2233306D01*
X87858427Y-2233318D01*
X87820000Y-2426504D01*
X81179999Y-2426504D01*
X81141572Y-2233318D01*
X81141569Y-2233306D01*
X81066192Y-2051328D01*
X81066185Y-2051315D01*
X80956751Y-1887537D01*
X80956748Y-1887533D01*
X80817466Y-1748251D01*
X80817462Y-1748248D01*
X80653684Y-1638814D01*
X80653671Y-1638807D01*
X80471691Y-1563429D01*
X80471683Y-1563427D01*
X80430000Y-1555135D01*
X80430000Y-2358011D01*
X80420060Y-2340795D01*
X80364205Y-2284940D01*
X80295796Y-2245444D01*
X80219496Y-2225000D01*
X80140504Y-2225000D01*
X80064204Y-2245444D01*
X79995795Y-2284940D01*
X79939940Y-2340795D01*
X79930000Y-2358011D01*
X79930000Y-1555136D01*
X79929999Y-1555135D01*
X79888316Y-1563427D01*
X79888308Y-1563429D01*
X79706328Y-1638807D01*
X79706315Y-1638814D01*
X79542537Y-1748248D01*
X79542533Y-1748251D01*
X79403251Y-1887533D01*
X79403248Y-1887537D01*
X79293814Y-2051315D01*
X79293807Y-2051328D01*
X79218430Y-2233306D01*
X79218427Y-2233318D01*
X79180000Y-2426504D01*
X56711095Y-2426504D01*
X56292928Y-2008338D01*
X56292925Y-2008334D01*
X56292925Y-2008335D01*
X56285858Y-2001268D01*
X56285858Y-2001267D01*
X56198733Y-1914142D01*
X56198732Y-1914141D01*
X56198731Y-1914140D01*
X56147509Y-1879915D01*
X56096287Y-1845689D01*
X56096286Y-1845688D01*
X56096283Y-1845686D01*
X56096280Y-1845685D01*
X56015792Y-1812347D01*
X55982453Y-1798537D01*
X55972427Y-1796543D01*
X55922029Y-1786518D01*
X55861610Y-1774500D01*
X55861607Y-1774500D01*
X55861606Y-1774500D01*
X45261606Y-1774500D01*
X45138393Y-1774500D01*
X45138388Y-1774500D01*
X45017555Y-1798535D01*
X45017547Y-1798537D01*
X44903716Y-1845687D01*
X44801265Y-1914142D01*
X44801262Y-1914145D01*
X44101269Y-2614140D01*
X44101267Y-2614142D01*
X44056226Y-2659182D01*
X44024841Y-2681985D01*
X43923211Y-2733768D01*
X43783073Y-2835585D01*
X43675166Y-2943492D01*
X43613843Y-2976976D01*
X43544151Y-2971992D01*
X43488218Y-2930120D01*
X43481946Y-2920906D01*
X43442317Y-2856656D01*
X43318345Y-2732684D01*
X43169124Y-2640643D01*
X43169119Y-2640641D01*
X43002697Y-2585494D01*
X43002690Y-2585493D01*
X42899986Y-2575000D01*
X42750000Y-2575000D01*
X42750000Y-3669670D01*
X42730255Y-3649925D01*
X42644745Y-3600556D01*
X42549370Y-3575000D01*
X42450630Y-3575000D01*
X42355255Y-3600556D01*
X42269745Y-3649925D01*
X42250000Y-3669670D01*
X42250000Y-2575000D01*
X42100027Y-2575000D01*
X42100012Y-2575001D01*
X41997302Y-2585494D01*
X41830880Y-2640641D01*
X41830875Y-2640643D01*
X41681654Y-2732684D01*
X41557684Y-2856654D01*
X41465643Y-3005875D01*
X41465641Y-3005880D01*
X41410494Y-3172302D01*
X41410493Y-3172309D01*
X41400000Y-3275013D01*
X41400000Y-3700000D01*
X42219670Y-3700000D01*
X42199925Y-3719745D01*
X42150556Y-3805255D01*
X42125000Y-3900630D01*
X42125000Y-3999370D01*
X42150556Y-4094745D01*
X42199925Y-4180255D01*
X42219670Y-4200000D01*
X41400001Y-4200000D01*
X41400001Y-4615500D01*
X41380316Y-4682539D01*
X41327512Y-4728294D01*
X41276001Y-4739500D01*
X16175452Y-4739500D01*
X16108413Y-4719815D01*
X16087771Y-4703181D01*
X15036819Y-3652229D01*
X15003334Y-3590906D01*
X15000500Y-3564548D01*
X15000500Y-3401457D01*
X15000499Y-3401455D01*
X14970880Y-3252552D01*
X14962051Y-3208164D01*
X14886631Y-3026086D01*
X14886629Y-3026083D01*
X14886627Y-3026079D01*
X14777139Y-2862219D01*
X14777136Y-2862215D01*
X14637784Y-2722863D01*
X14637780Y-2722860D01*
X14473920Y-2613372D01*
X14473910Y-2613367D01*
X14291836Y-2537949D01*
X14291828Y-2537947D01*
X14098543Y-2499500D01*
X14098540Y-2499500D01*
X13901460Y-2499500D01*
X13901457Y-2499500D01*
X13708171Y-2537947D01*
X13708163Y-2537949D01*
X13526089Y-2613367D01*
X13526079Y-2613372D01*
X13362219Y-2722860D01*
X13362215Y-2722863D01*
X11835004Y-4250075D01*
X10322221Y-5762858D01*
X10322218Y-5762861D01*
X10286831Y-5798248D01*
X10182859Y-5902219D01*
X10073371Y-6066079D01*
X10073366Y-6066089D01*
X10052778Y-6115793D01*
X10020038Y-6194834D01*
X10016995Y-6202181D01*
X9997949Y-6248161D01*
X9997947Y-6248167D01*
X9981446Y-6331128D01*
X9959500Y-6441455D01*
X9959500Y-17458544D01*
X9997947Y-17651830D01*
X9997949Y-17651837D01*
X10005005Y-17668869D01*
X10005007Y-17668875D01*
X10073368Y-17833914D01*
X10073369Y-17833917D01*
X10182860Y-17997781D01*
X10182863Y-17997785D01*
X10326537Y-18141459D01*
X10326559Y-18141479D01*
X25693181Y-33508101D01*
X25726666Y-33569424D01*
X25729500Y-33595782D01*
X25729500Y-48430299D01*
X25721682Y-48473632D01*
X25710908Y-48502516D01*
X25704501Y-48562116D01*
X25704500Y-48562135D01*
X25704500Y-50157870D01*
X25704501Y-50157876D01*
X25710908Y-50217481D01*
X25721682Y-50246366D01*
X25729500Y-50289700D01*
X25729500Y-50376000D01*
X25709815Y-50443039D01*
X25657011Y-50488794D01*
X25605500Y-50500000D01*
X17231579Y-50500000D01*
X17210828Y-50511330D01*
X17160284Y-50511781D01*
X17110918Y-50501962D01*
X17098541Y-50499500D01*
X17098540Y-50499500D01*
X12874000Y-50499500D01*
X12806961Y-50479815D01*
X12761206Y-50427011D01*
X12750000Y-50375500D01*
X12750000Y-49435785D01*
X12769685Y-49368746D01*
X12779720Y-49355242D01*
X12780108Y-49354787D01*
X12905048Y-49182820D01*
X12905047Y-49182820D01*
X12905051Y-49182816D01*
X13001557Y-48993412D01*
X13067246Y-48791243D01*
X13100500Y-48581287D01*
X13100500Y-48218713D01*
X13067246Y-48008757D01*
X13001557Y-47806588D01*
X12905051Y-47617184D01*
X12905049Y-47617181D01*
X12905048Y-47617179D01*
X12780107Y-47445211D01*
X12779710Y-47444746D01*
X12779614Y-47444532D01*
X12777241Y-47441266D01*
X12777927Y-47440767D01*
X12751139Y-47380985D01*
X12750000Y-47364214D01*
X12750000Y-42485785D01*
X12769685Y-42418746D01*
X12779720Y-42405242D01*
X12780108Y-42404787D01*
X12905048Y-42232820D01*
X12905047Y-42232820D01*
X12905051Y-42232816D01*
X13001557Y-42043412D01*
X13067246Y-41841243D01*
X13100500Y-41631287D01*
X13100500Y-41268713D01*
X13067246Y-41058757D01*
X13001557Y-40856588D01*
X12905051Y-40667184D01*
X12905049Y-40667181D01*
X12905048Y-40667179D01*
X12780107Y-40495211D01*
X12779710Y-40494746D01*
X12779614Y-40494532D01*
X12777241Y-40491266D01*
X12777927Y-40490767D01*
X12751139Y-40430985D01*
X12750000Y-40414214D01*
X12750000Y-35535785D01*
X12769685Y-35468746D01*
X12779720Y-35455242D01*
X12780108Y-35454787D01*
X12905048Y-35282820D01*
X12905047Y-35282820D01*
X12905051Y-35282816D01*
X13001557Y-35093412D01*
X13067246Y-34891243D01*
X13100500Y-34681287D01*
X13100500Y-34318713D01*
X13067246Y-34108757D01*
X13001557Y-33906588D01*
X12905051Y-33717184D01*
X12905049Y-33717181D01*
X12905048Y-33717179D01*
X12780107Y-33545211D01*
X12779710Y-33544746D01*
X12779614Y-33544532D01*
X12777241Y-33541266D01*
X12777927Y-33540767D01*
X12767502Y-33517502D01*
X12734927Y-33484927D01*
X12719219Y-33480315D01*
X12698577Y-33463681D01*
X12629786Y-33394890D01*
X12457820Y-33269951D01*
X12268414Y-33173444D01*
X12268413Y-33173443D01*
X12268412Y-33173443D01*
X12066243Y-33107754D01*
X12066241Y-33107753D01*
X12066240Y-33107753D01*
X11904957Y-33082208D01*
X11856287Y-33074500D01*
X11643713Y-33074500D01*
X11595042Y-33082208D01*
X11433760Y-33107753D01*
X11231585Y-33173444D01*
X11042179Y-33269951D01*
X10870213Y-33394890D01*
X10719894Y-33545209D01*
X10719890Y-33545214D01*
X10600318Y-33709793D01*
X10544989Y-33752459D01*
X10475375Y-33758438D01*
X10413580Y-33725833D01*
X10399682Y-33709793D01*
X10280109Y-33545214D01*
X10280105Y-33545209D01*
X10129786Y-33394890D01*
X9957820Y-33269951D01*
X9768414Y-33173444D01*
X9768413Y-33173443D01*
X9768412Y-33173443D01*
X9566243Y-33107754D01*
X9566241Y-33107753D01*
X9566240Y-33107753D01*
X9404957Y-33082208D01*
X9356287Y-33074500D01*
X9143713Y-33074500D01*
X9095042Y-33082208D01*
X8933760Y-33107753D01*
X8731585Y-33173444D01*
X8542179Y-33269951D01*
X8370213Y-33394890D01*
X8219894Y-33545209D01*
X8219890Y-33545214D01*
X8100318Y-33709793D01*
X8044989Y-33752459D01*
X7975375Y-33758438D01*
X7913580Y-33725833D01*
X7899682Y-33709793D01*
X7780109Y-33545214D01*
X7780105Y-33545209D01*
X7629786Y-33394890D01*
X7457820Y-33269951D01*
X7268414Y-33173444D01*
X7268413Y-33173443D01*
X7268412Y-33173443D01*
X7066243Y-33107754D01*
X7066241Y-33107753D01*
X7066240Y-33107753D01*
X6904957Y-33082208D01*
X6856287Y-33074500D01*
X6643713Y-33074500D01*
X6595042Y-33082208D01*
X6433760Y-33107753D01*
X6231585Y-33173444D01*
X6042179Y-33269951D01*
X5870215Y-33394889D01*
X5731035Y-33534069D01*
X5669712Y-33567553D01*
X5600020Y-33562569D01*
X5544087Y-33520697D01*
X5537815Y-33511484D01*
X5442315Y-33356654D01*
X5318345Y-33232684D01*
X5169124Y-33140643D01*
X5169119Y-33140641D01*
X5002697Y-33085494D01*
X5002690Y-33085493D01*
X4899986Y-33075000D01*
X4500000Y-33075000D01*
X4500000Y-34153590D01*
X4414044Y-34103963D01*
X4305952Y-34075000D01*
X4194048Y-34075000D01*
X4085956Y-34103963D01*
X4000000Y-34153590D01*
X4000000Y-33075000D01*
X3600028Y-33075000D01*
X3600012Y-33075001D01*
X3497302Y-33085494D01*
X3330880Y-33140641D01*
X3330875Y-33140643D01*
X3181654Y-33232684D01*
X3057684Y-33356654D01*
X2965643Y-33505875D01*
X2965641Y-33505880D01*
X2910494Y-33672302D01*
X2910493Y-33672309D01*
X2900000Y-33775013D01*
X2900000Y-34250000D01*
X3903590Y-34250000D01*
X3853963Y-34335956D01*
X3825000Y-34444048D01*
X3825000Y-34555952D01*
X3853963Y-34664044D01*
X3903590Y-34750000D01*
X2900001Y-34750000D01*
X2900001Y-35224986D01*
X2910494Y-35327697D01*
X2965641Y-35494119D01*
X2965643Y-35494124D01*
X3057684Y-35643345D01*
X3181654Y-35767315D01*
X3330875Y-35859356D01*
X3330880Y-35859358D01*
X3497302Y-35914505D01*
X3497309Y-35914506D01*
X3600019Y-35924999D01*
X3999999Y-35924999D01*
X4000000Y-35924998D01*
X4000000Y-34846409D01*
X4085956Y-34896037D01*
X4194048Y-34925000D01*
X4305952Y-34925000D01*
X4414044Y-34896037D01*
X4500000Y-34846409D01*
X4500000Y-35924999D01*
X4899972Y-35924999D01*
X4899986Y-35924998D01*
X5002697Y-35914505D01*
X5169119Y-35859358D01*
X5169124Y-35859356D01*
X5318345Y-35767315D01*
X5442317Y-35643343D01*
X5537815Y-35488516D01*
X5589763Y-35441791D01*
X5658725Y-35430568D01*
X5722808Y-35458412D01*
X5731035Y-35465931D01*
X5870213Y-35605109D01*
X6042179Y-35730048D01*
X6042181Y-35730049D01*
X6042184Y-35730051D01*
X6231588Y-35826557D01*
X6433757Y-35892246D01*
X6643713Y-35925500D01*
X6643714Y-35925500D01*
X6856286Y-35925500D01*
X6856287Y-35925500D01*
X7066243Y-35892246D01*
X7268412Y-35826557D01*
X7457816Y-35730051D01*
X7501799Y-35698096D01*
X7629786Y-35605109D01*
X7629788Y-35605106D01*
X7629792Y-35605104D01*
X7780104Y-35454792D01*
X7899683Y-35290204D01*
X7955011Y-35247540D01*
X8024624Y-35241561D01*
X8086420Y-35274166D01*
X8100313Y-35290199D01*
X8202296Y-35430568D01*
X8219896Y-35454792D01*
X8370213Y-35605109D01*
X8542181Y-35730050D01*
X8556792Y-35737494D01*
X8607589Y-35785467D01*
X8624500Y-35847980D01*
X8624500Y-40102019D01*
X8604815Y-40169058D01*
X8556797Y-40212503D01*
X8542180Y-40219950D01*
X8370213Y-40344890D01*
X8219894Y-40495209D01*
X8219890Y-40495214D01*
X8100318Y-40659793D01*
X8044989Y-40702459D01*
X7975375Y-40708438D01*
X7913580Y-40675833D01*
X7899682Y-40659793D01*
X7780109Y-40495214D01*
X7780105Y-40495209D01*
X7629786Y-40344890D01*
X7457820Y-40219951D01*
X7268414Y-40123444D01*
X7268413Y-40123443D01*
X7268412Y-40123443D01*
X7066243Y-40057754D01*
X7066241Y-40057753D01*
X7066240Y-40057753D01*
X6904957Y-40032208D01*
X6856287Y-40024500D01*
X6643713Y-40024500D01*
X6595042Y-40032208D01*
X6433760Y-40057753D01*
X6231585Y-40123444D01*
X6042179Y-40219951D01*
X5870215Y-40344889D01*
X5731035Y-40484069D01*
X5669712Y-40517553D01*
X5600020Y-40512569D01*
X5544087Y-40470697D01*
X5537815Y-40461484D01*
X5442315Y-40306654D01*
X5318345Y-40182684D01*
X5169124Y-40090643D01*
X5169119Y-40090641D01*
X5002697Y-40035494D01*
X5002690Y-40035493D01*
X4899986Y-40025000D01*
X4500000Y-40025000D01*
X4500000Y-41103590D01*
X4414044Y-41053963D01*
X4305952Y-41025000D01*
X4194048Y-41025000D01*
X4085956Y-41053963D01*
X4000000Y-41103590D01*
X4000000Y-40025000D01*
X3600028Y-40025000D01*
X3600012Y-40025001D01*
X3497302Y-40035494D01*
X3330880Y-40090641D01*
X3330875Y-40090643D01*
X3181654Y-40182684D01*
X3057684Y-40306654D01*
X2965643Y-40455875D01*
X2965641Y-40455880D01*
X2910494Y-40622302D01*
X2910493Y-40622309D01*
X2900000Y-40725013D01*
X2900000Y-41200000D01*
X3903590Y-41200000D01*
X3853963Y-41285956D01*
X3825000Y-41394048D01*
X3825000Y-41505952D01*
X3853963Y-41614044D01*
X3903590Y-41700000D01*
X2900001Y-41700000D01*
X2900001Y-42174986D01*
X2910494Y-42277697D01*
X2965641Y-42444119D01*
X2965643Y-42444124D01*
X3057684Y-42593345D01*
X3181654Y-42717315D01*
X3330875Y-42809356D01*
X3330880Y-42809358D01*
X3497302Y-42864505D01*
X3497309Y-42864506D01*
X3600019Y-42874999D01*
X3999999Y-42874999D01*
X4000000Y-42874998D01*
X4000000Y-41796409D01*
X4085956Y-41846037D01*
X4194048Y-41875000D01*
X4305952Y-41875000D01*
X4414044Y-41846037D01*
X4500000Y-41796409D01*
X4500000Y-42874999D01*
X4899972Y-42874999D01*
X4899986Y-42874998D01*
X5002697Y-42864505D01*
X5169119Y-42809358D01*
X5169124Y-42809356D01*
X5318345Y-42717315D01*
X5442317Y-42593343D01*
X5537815Y-42438516D01*
X5589763Y-42391791D01*
X5658725Y-42380568D01*
X5722808Y-42408412D01*
X5731035Y-42415931D01*
X5870213Y-42555109D01*
X6042179Y-42680048D01*
X6042181Y-42680049D01*
X6042184Y-42680051D01*
X6231588Y-42776557D01*
X6433757Y-42842246D01*
X6643713Y-42875500D01*
X6643714Y-42875500D01*
X6856286Y-42875500D01*
X6856287Y-42875500D01*
X7066243Y-42842246D01*
X7268412Y-42776557D01*
X7457816Y-42680051D01*
X7500001Y-42649402D01*
X7629786Y-42555109D01*
X7629788Y-42555106D01*
X7629792Y-42555104D01*
X7780104Y-42404792D01*
X7899683Y-42240204D01*
X7955011Y-42197540D01*
X8024624Y-42191561D01*
X8086420Y-42224166D01*
X8100313Y-42240199D01*
X8202296Y-42380568D01*
X8219896Y-42404792D01*
X8370213Y-42555109D01*
X8542181Y-42680050D01*
X8556792Y-42687494D01*
X8607589Y-42735467D01*
X8624500Y-42797980D01*
X8624500Y-47052019D01*
X8604815Y-47119058D01*
X8556797Y-47162503D01*
X8542180Y-47169950D01*
X8370213Y-47294890D01*
X8219894Y-47445209D01*
X8219890Y-47445214D01*
X8100318Y-47609793D01*
X8044989Y-47652459D01*
X7975375Y-47658438D01*
X7913580Y-47625833D01*
X7899682Y-47609793D01*
X7780109Y-47445214D01*
X7780105Y-47445209D01*
X7629786Y-47294890D01*
X7457820Y-47169951D01*
X7268414Y-47073444D01*
X7268413Y-47073443D01*
X7268412Y-47073443D01*
X7066243Y-47007754D01*
X7066241Y-47007753D01*
X7066240Y-47007753D01*
X6904957Y-46982208D01*
X6856287Y-46974500D01*
X6643713Y-46974500D01*
X6595042Y-46982208D01*
X6433760Y-47007753D01*
X6231585Y-47073444D01*
X6042179Y-47169951D01*
X5870215Y-47294889D01*
X5731035Y-47434069D01*
X5669712Y-47467553D01*
X5600020Y-47462569D01*
X5544087Y-47420697D01*
X5537815Y-47411484D01*
X5442315Y-47256654D01*
X5318345Y-47132684D01*
X5169124Y-47040643D01*
X5169119Y-47040641D01*
X5002697Y-46985494D01*
X5002690Y-46985493D01*
X4899986Y-46975000D01*
X4500000Y-46975000D01*
X4500000Y-48053590D01*
X4414044Y-48003963D01*
X4305952Y-47975000D01*
X4194048Y-47975000D01*
X4085956Y-48003963D01*
X4000000Y-48053590D01*
X4000000Y-46975000D01*
X3600028Y-46975000D01*
X3600012Y-46975001D01*
X3497302Y-46985494D01*
X3330880Y-47040641D01*
X3330875Y-47040643D01*
X3181654Y-47132684D01*
X3057684Y-47256654D01*
X2965643Y-47405875D01*
X2965641Y-47405880D01*
X2910494Y-47572302D01*
X2910493Y-47572309D01*
X2900000Y-47675013D01*
X2900000Y-48150000D01*
X3903590Y-48150000D01*
X3853963Y-48235956D01*
X3825000Y-48344048D01*
X3825000Y-48455952D01*
X3853963Y-48564044D01*
X3903590Y-48650000D01*
X2900001Y-48650000D01*
X2900001Y-49124986D01*
X2910494Y-49227697D01*
X2965641Y-49394119D01*
X2965643Y-49394124D01*
X3057684Y-49543345D01*
X3181654Y-49667315D01*
X3330875Y-49759356D01*
X3330880Y-49759358D01*
X3497302Y-49814505D01*
X3497309Y-49814506D01*
X3600019Y-49824999D01*
X3999999Y-49824999D01*
X4000000Y-49824998D01*
X4000000Y-48746409D01*
X4085956Y-48796037D01*
X4194048Y-48825000D01*
X4305952Y-48825000D01*
X4414044Y-48796037D01*
X4500000Y-48746409D01*
X4500000Y-49824999D01*
X4899972Y-49824999D01*
X4899986Y-49824998D01*
X5002697Y-49814505D01*
X5169119Y-49759358D01*
X5169124Y-49759356D01*
X5318345Y-49667315D01*
X5442315Y-49543345D01*
X5519961Y-49417462D01*
X5571909Y-49370738D01*
X5640872Y-49359515D01*
X5704954Y-49387359D01*
X5743810Y-49445427D01*
X5749500Y-49482559D01*
X5749500Y-50348544D01*
X5787947Y-50541828D01*
X5787949Y-50541836D01*
X5800067Y-50571091D01*
X5800067Y-50571092D01*
X5863364Y-50723907D01*
X5863371Y-50723920D01*
X5972860Y-50887781D01*
X5972863Y-50887785D01*
X6116537Y-51031459D01*
X6116559Y-51031479D01*
X7219735Y-52134655D01*
X7219764Y-52134686D01*
X7362214Y-52277136D01*
X7362218Y-52277139D01*
X7526079Y-52386628D01*
X7526092Y-52386635D01*
X7654833Y-52439961D01*
X7708159Y-52462049D01*
X7708164Y-52462051D01*
X7736986Y-52467784D01*
X7778104Y-52475963D01*
X7901456Y-52500500D01*
X7901459Y-52500500D01*
X7901460Y-52500500D01*
X8098540Y-52500500D01*
X16534218Y-52500500D01*
X16601257Y-52520185D01*
X16621899Y-52536819D01*
X18963181Y-54878101D01*
X18996666Y-54939424D01*
X18999500Y-54965782D01*
X18999500Y-61598541D01*
X18999500Y-61598543D01*
X18999499Y-61598543D01*
X19037947Y-61791829D01*
X19037950Y-61791839D01*
X19113364Y-61973907D01*
X19113371Y-61973920D01*
X19222860Y-62137781D01*
X19222863Y-62137785D01*
X19366537Y-62281459D01*
X19366559Y-62281479D01*
X21219735Y-64134655D01*
X21219764Y-64134686D01*
X21362214Y-64277136D01*
X21362218Y-64277139D01*
X21526079Y-64386628D01*
X21526092Y-64386635D01*
X21654833Y-64439961D01*
X21708159Y-64462049D01*
X21708164Y-64462051D01*
X21785882Y-64477510D01*
X21814776Y-64483257D01*
X21901456Y-64500500D01*
X21901459Y-64500500D01*
X23098541Y-64500500D01*
X23160283Y-64488218D01*
X23229871Y-64494444D01*
X23238349Y-64500000D01*
X29876000Y-64500000D01*
X29943039Y-64519685D01*
X29988794Y-64572489D01*
X30000000Y-64624000D01*
X30000000Y-68876000D01*
X29980315Y-68943039D01*
X29927511Y-68988794D01*
X29876000Y-69000000D01*
X2051362Y-69000000D01*
X1984323Y-68980315D01*
X1963681Y-68963681D01*
X1036319Y-68036319D01*
X1002834Y-67974996D01*
X1000000Y-67948638D01*
X1000000Y-65878711D01*
X2149500Y-65878711D01*
X2149500Y-66121288D01*
X2181161Y-66361785D01*
X2243947Y-66596104D01*
X2336773Y-66820205D01*
X2336777Y-66820214D01*
X2358974Y-66858661D01*
X2458064Y-67030289D01*
X2458066Y-67030292D01*
X2458067Y-67030293D01*
X2605733Y-67222736D01*
X2605739Y-67222743D01*
X2777256Y-67394260D01*
X2777262Y-67394265D01*
X2969711Y-67541936D01*
X3179788Y-67663224D01*
X3403900Y-67756054D01*
X3638211Y-67818838D01*
X3818586Y-67842584D01*
X3878711Y-67850500D01*
X3878712Y-67850500D01*
X4121289Y-67850500D01*
X4169388Y-67844167D01*
X4361789Y-67818838D01*
X4596100Y-67756054D01*
X4820212Y-67663224D01*
X5030289Y-67541936D01*
X5222738Y-67394265D01*
X5394265Y-67222738D01*
X5541936Y-67030289D01*
X5663224Y-66820212D01*
X5756054Y-66596100D01*
X5818838Y-66361789D01*
X5850500Y-66121288D01*
X5850500Y-65878712D01*
X5818838Y-65638211D01*
X5756054Y-65403900D01*
X5663224Y-65179788D01*
X5541936Y-64969711D01*
X5394265Y-64777262D01*
X5394260Y-64777256D01*
X5222743Y-64605739D01*
X5222736Y-64605733D01*
X5030293Y-64458067D01*
X5030292Y-64458066D01*
X5030289Y-64458064D01*
X4820212Y-64336776D01*
X4820205Y-64336773D01*
X4596104Y-64243947D01*
X4361785Y-64181161D01*
X4121289Y-64149500D01*
X4121288Y-64149500D01*
X3878712Y-64149500D01*
X3878711Y-64149500D01*
X3638214Y-64181161D01*
X3403895Y-64243947D01*
X3179794Y-64336773D01*
X3179785Y-64336777D01*
X2969706Y-64458067D01*
X2777263Y-64605733D01*
X2777256Y-64605739D01*
X2605739Y-64777256D01*
X2605733Y-64777263D01*
X2458067Y-64969706D01*
X2336777Y-65179785D01*
X2336773Y-65179794D01*
X2243947Y-65403895D01*
X2181161Y-65638214D01*
X2149500Y-65878711D01*
X1000000Y-65878711D01*
X1000000Y-58100000D01*
X6144540Y-58100000D01*
X6164326Y-58288256D01*
X6164327Y-58288259D01*
X6222818Y-58468277D01*
X6222821Y-58468284D01*
X6317467Y-58632216D01*
X6419185Y-58745185D01*
X6444129Y-58772888D01*
X6597265Y-58884148D01*
X6597270Y-58884151D01*
X6770192Y-58961142D01*
X6770197Y-58961144D01*
X6955354Y-59000500D01*
X6955355Y-59000500D01*
X7144644Y-59000500D01*
X7144646Y-59000500D01*
X7329803Y-58961144D01*
X7502730Y-58884151D01*
X7655871Y-58772888D01*
X7658788Y-58769647D01*
X7661600Y-58766526D01*
X7721087Y-58729879D01*
X7753748Y-58725500D01*
X12032746Y-58725500D01*
X12099785Y-58745185D01*
X12124895Y-58766527D01*
X12144128Y-58787887D01*
X12144135Y-58787893D01*
X12297265Y-58899148D01*
X12297270Y-58899151D01*
X12470192Y-58976142D01*
X12470197Y-58976144D01*
X12655354Y-59015500D01*
X12655355Y-59015500D01*
X12844644Y-59015500D01*
X12844646Y-59015500D01*
X13029803Y-58976144D01*
X13202730Y-58899151D01*
X13355871Y-58787888D01*
X13482533Y-58647216D01*
X13577179Y-58483284D01*
X13635674Y-58303256D01*
X13655460Y-58115000D01*
X13635674Y-57926744D01*
X13577179Y-57746716D01*
X13482533Y-57582784D01*
X13355871Y-57442112D01*
X13335228Y-57427114D01*
X13202734Y-57330851D01*
X13202729Y-57330848D01*
X13029807Y-57253857D01*
X13029802Y-57253855D01*
X12884001Y-57222865D01*
X12844646Y-57214500D01*
X12655354Y-57214500D01*
X12622897Y-57221398D01*
X12470197Y-57253855D01*
X12470192Y-57253857D01*
X12297270Y-57330848D01*
X12297265Y-57330851D01*
X12144135Y-57442106D01*
X12143536Y-57442647D01*
X12143112Y-57442850D01*
X12138871Y-57445932D01*
X12138307Y-57445156D01*
X12080546Y-57472879D01*
X12060560Y-57474500D01*
X7753748Y-57474500D01*
X7686709Y-57454815D01*
X7661600Y-57433474D01*
X7655873Y-57427114D01*
X7655869Y-57427110D01*
X7502734Y-57315851D01*
X7502729Y-57315848D01*
X7329807Y-57238857D01*
X7329802Y-57238855D01*
X7184001Y-57207865D01*
X7144646Y-57199500D01*
X6955354Y-57199500D01*
X6922897Y-57206398D01*
X6770197Y-57238855D01*
X6770192Y-57238857D01*
X6597270Y-57315848D01*
X6597265Y-57315851D01*
X6444129Y-57427111D01*
X6317466Y-57567785D01*
X6222821Y-57731715D01*
X6222818Y-57731722D01*
X6164327Y-57911740D01*
X6164326Y-57911744D01*
X6144540Y-58100000D01*
X1000000Y-58100000D01*
X1000000Y-20163389D01*
X2574500Y-20163389D01*
X2574500Y-20336611D01*
X2574856Y-20338856D01*
X2594936Y-20465643D01*
X2601598Y-20507701D01*
X2655127Y-20672445D01*
X2733768Y-20826788D01*
X2835586Y-20966928D01*
X2958072Y-21089414D01*
X2958078Y-21089418D01*
X3041023Y-21149683D01*
X3083689Y-21205013D01*
X3089667Y-21274626D01*
X3057061Y-21336421D01*
X3041023Y-21350317D01*
X2958078Y-21410581D01*
X2958069Y-21410588D01*
X2835588Y-21533069D01*
X2835588Y-21533070D01*
X2835586Y-21533072D01*
X2823745Y-21549370D01*
X2733768Y-21673211D01*
X2655128Y-21827552D01*
X2601597Y-21992302D01*
X2574500Y-22163389D01*
X2574500Y-22336610D01*
X2597518Y-22481945D01*
X2601598Y-22507701D01*
X2655127Y-22672445D01*
X2733768Y-22826788D01*
X2835586Y-22966928D01*
X2835588Y-22966930D01*
X2943491Y-23074833D01*
X2976976Y-23136156D01*
X2971992Y-23205848D01*
X2930120Y-23261781D01*
X2920907Y-23268053D01*
X2856654Y-23307684D01*
X2732684Y-23431654D01*
X2640643Y-23580875D01*
X2640641Y-23580880D01*
X2585494Y-23747302D01*
X2585493Y-23747309D01*
X2575000Y-23850013D01*
X2575000Y-24000000D01*
X3669670Y-24000000D01*
X3649925Y-24019745D01*
X3600556Y-24105255D01*
X3575000Y-24200630D01*
X3575000Y-24299370D01*
X3600556Y-24394745D01*
X3649925Y-24480255D01*
X3669670Y-24500000D01*
X2575001Y-24500000D01*
X2575001Y-24649986D01*
X2585494Y-24752697D01*
X2640641Y-24919119D01*
X2640643Y-24919124D01*
X2732684Y-25068345D01*
X2856654Y-25192315D01*
X3005875Y-25284356D01*
X3005880Y-25284358D01*
X3172302Y-25339505D01*
X3172309Y-25339506D01*
X3275019Y-25349999D01*
X3699999Y-25349999D01*
X3700000Y-25349998D01*
X3700000Y-24530330D01*
X3719745Y-24550075D01*
X3805255Y-24599444D01*
X3900630Y-24625000D01*
X3999370Y-24625000D01*
X4094745Y-24599444D01*
X4180255Y-24550075D01*
X4200000Y-24530330D01*
X4200000Y-25349999D01*
X4624972Y-25349999D01*
X4624986Y-25349998D01*
X4727697Y-25339505D01*
X4894119Y-25284358D01*
X4894124Y-25284356D01*
X5043345Y-25192315D01*
X5167315Y-25068345D01*
X5259356Y-24919124D01*
X5259358Y-24919119D01*
X5314505Y-24752697D01*
X5314506Y-24752690D01*
X5324999Y-24649986D01*
X5325000Y-24649973D01*
X5325000Y-24500000D01*
X4230330Y-24500000D01*
X4250075Y-24480255D01*
X4299444Y-24394745D01*
X4325000Y-24299370D01*
X4325000Y-24200630D01*
X4299444Y-24105255D01*
X4250075Y-24019745D01*
X4230330Y-24000000D01*
X5324999Y-24000000D01*
X5324999Y-23850028D01*
X5324998Y-23850013D01*
X5314505Y-23747302D01*
X5259358Y-23580880D01*
X5259356Y-23580875D01*
X5167315Y-23431654D01*
X5043343Y-23307682D01*
X4979093Y-23268053D01*
X4932368Y-23216105D01*
X4921145Y-23147143D01*
X4948988Y-23083061D01*
X4956486Y-23074855D01*
X5064414Y-22966928D01*
X5166232Y-22826788D01*
X5244873Y-22672445D01*
X5298402Y-22507701D01*
X5325500Y-22336611D01*
X5325500Y-22163389D01*
X5298402Y-21992299D01*
X5244873Y-21827555D01*
X5166232Y-21673212D01*
X5064414Y-21533072D01*
X4941928Y-21410586D01*
X4858975Y-21350317D01*
X4816311Y-21294988D01*
X4810332Y-21225374D01*
X4842938Y-21163579D01*
X4858976Y-21149682D01*
X4941928Y-21089414D01*
X5064414Y-20966928D01*
X5166232Y-20826788D01*
X5244873Y-20672445D01*
X5298402Y-20507701D01*
X5325500Y-20336611D01*
X5325500Y-20163389D01*
X5298402Y-19992299D01*
X5244873Y-19827555D01*
X5166232Y-19673212D01*
X5064414Y-19533072D01*
X4941928Y-19410586D01*
X4801788Y-19308768D01*
X4647445Y-19230127D01*
X4482701Y-19176598D01*
X4482699Y-19176597D01*
X4482698Y-19176597D01*
X4351271Y-19155781D01*
X4311611Y-19149500D01*
X3588389Y-19149500D01*
X3548728Y-19155781D01*
X3417302Y-19176597D01*
X3252552Y-19230128D01*
X3098211Y-19308768D01*
X3018256Y-19366859D01*
X2958072Y-19410586D01*
X2958070Y-19410588D01*
X2958069Y-19410588D01*
X2835588Y-19533069D01*
X2835588Y-19533070D01*
X2835586Y-19533072D01*
X2791859Y-19593256D01*
X2733768Y-19673211D01*
X2655128Y-19827552D01*
X2601597Y-19992302D01*
X2599608Y-20004862D01*
X2574500Y-20163389D01*
X1000000Y-20163389D01*
X1000000Y-3878711D01*
X2149500Y-3878711D01*
X2149500Y-4121288D01*
X2181161Y-4361785D01*
X2243947Y-4596104D01*
X2335160Y-4816311D01*
X2336776Y-4820212D01*
X2458064Y-5030289D01*
X2458066Y-5030292D01*
X2458067Y-5030293D01*
X2605733Y-5222736D01*
X2605739Y-5222743D01*
X2777256Y-5394260D01*
X2777263Y-5394266D01*
X2779897Y-5396287D01*
X2969711Y-5541936D01*
X3179788Y-5663224D01*
X3403900Y-5756054D01*
X3638211Y-5818838D01*
X3818586Y-5842584D01*
X3878711Y-5850500D01*
X3878712Y-5850500D01*
X4121289Y-5850500D01*
X4169388Y-5844167D01*
X4361789Y-5818838D01*
X4596100Y-5756054D01*
X4820212Y-5663224D01*
X5030289Y-5541936D01*
X5222738Y-5394265D01*
X5394265Y-5222738D01*
X5541936Y-5030289D01*
X5663224Y-4820212D01*
X5756054Y-4596100D01*
X5818838Y-4361789D01*
X5850500Y-4121288D01*
X5850500Y-3878712D01*
X5818838Y-3638211D01*
X5756054Y-3403900D01*
X5663224Y-3179788D01*
X5541936Y-2969711D01*
X5455186Y-2856656D01*
X5394266Y-2777263D01*
X5394260Y-2777256D01*
X5222743Y-2605739D01*
X5222736Y-2605733D01*
X5030293Y-2458067D01*
X5030292Y-2458066D01*
X5030289Y-2458064D01*
X4820212Y-2336776D01*
X4820205Y-2336773D01*
X4596104Y-2243947D01*
X4361785Y-2181161D01*
X4121289Y-2149500D01*
X4121288Y-2149500D01*
X3878712Y-2149500D01*
X3878711Y-2149500D01*
X3638214Y-2181161D01*
X3403895Y-2243947D01*
X3179794Y-2336773D01*
X3179785Y-2336777D01*
X2969706Y-2458067D01*
X2777263Y-2605733D01*
X2777256Y-2605739D01*
X2605739Y-2777256D01*
X2605733Y-2777263D01*
X2458067Y-2969706D01*
X2336777Y-3179785D01*
X2336773Y-3179794D01*
X2243947Y-3403895D01*
X2181161Y-3638214D01*
X2149500Y-3878711D01*
X1000000Y-3878711D01*
X1000000Y-2051362D01*
X1019685Y-1984323D01*
X1036319Y-1963681D01*
X1963681Y-1036319D01*
X2025004Y-1002834D01*
X2051362Y-1000000D01*
X95948638Y-1000000D01*
X96015677Y-1019685D01*
G37*
%TD.AperFunction*%
%TA.AperFunction,Conductor*%
G36*
X80256587Y-27145185D02*
G01*
X80277229Y-27161819D01*
X81101263Y-27985855D01*
X81101267Y-27985858D01*
X81203712Y-28054310D01*
X81203711Y-28054310D01*
X81203713Y-28054311D01*
X81203715Y-28054312D01*
X81236238Y-28067783D01*
X81236239Y-28067784D01*
X81236240Y-28067784D01*
X81317548Y-28101463D01*
X81337597Y-28105451D01*
X81371196Y-28112134D01*
X81438392Y-28125501D01*
X81438394Y-28125501D01*
X81567721Y-28125501D01*
X81567741Y-28125500D01*
X85876000Y-28125500D01*
X85943039Y-28145185D01*
X85988794Y-28197989D01*
X86000000Y-28249500D01*
X86000000Y-33876000D01*
X85980315Y-33943039D01*
X85927511Y-33988794D01*
X85876000Y-34000000D01*
X78000000Y-34000000D01*
X78000000Y-50948638D01*
X77980315Y-51015677D01*
X77963681Y-51036319D01*
X74036319Y-54963681D01*
X73974996Y-54997166D01*
X73948638Y-55000000D01*
X34037272Y-55000000D01*
X33970233Y-54980315D01*
X33924478Y-54927511D01*
X33914534Y-54858353D01*
X33943559Y-54794797D01*
X33964387Y-54775682D01*
X34002931Y-54747677D01*
X34105871Y-54672888D01*
X34232533Y-54532216D01*
X34327179Y-54368284D01*
X34385674Y-54188256D01*
X34400349Y-54048623D01*
X34426933Y-53984010D01*
X34435980Y-53973914D01*
X37235861Y-51174035D01*
X37304315Y-51071587D01*
X37351466Y-50957753D01*
X37375504Y-50836908D01*
X37375504Y-50713695D01*
X37375504Y-50708585D01*
X37375503Y-50708559D01*
X37375503Y-50698687D01*
X37395188Y-50631648D01*
X37407353Y-50615715D01*
X37425894Y-50595122D01*
X37482536Y-50532216D01*
X37577182Y-50368284D01*
X37635677Y-50188256D01*
X37655463Y-50000000D01*
X37635677Y-49811744D01*
X37577182Y-49631716D01*
X37482536Y-49467784D01*
X37355874Y-49327112D01*
X37355873Y-49327111D01*
X37202737Y-49215851D01*
X37202732Y-49215848D01*
X37029810Y-49138857D01*
X37029805Y-49138855D01*
X36884004Y-49107865D01*
X36844649Y-49099500D01*
X36655357Y-49099500D01*
X36622900Y-49106398D01*
X36470200Y-49138855D01*
X36470195Y-49138857D01*
X36300437Y-49214440D01*
X36231187Y-49223725D01*
X36199565Y-49214440D01*
X36029806Y-49138857D01*
X36029802Y-49138855D01*
X35884001Y-49107865D01*
X35844646Y-49099500D01*
X35655354Y-49099500D01*
X35633124Y-49104224D01*
X35563459Y-49098907D01*
X35507726Y-49056769D01*
X35483622Y-48991189D01*
X35498800Y-48922988D01*
X35519662Y-48895257D01*
X39826774Y-44588146D01*
X62007000Y-44588146D01*
X62007000Y-44911853D01*
X62042778Y-45137746D01*
X62042778Y-45137749D01*
X62113450Y-45355255D01*
X62113452Y-45355258D01*
X62217283Y-45559038D01*
X62351714Y-45744066D01*
X62513434Y-45905786D01*
X62698462Y-46040217D01*
X62830599Y-46107544D01*
X62902244Y-46144049D01*
X63119751Y-46214721D01*
X63119752Y-46214721D01*
X63119755Y-46214722D01*
X63345646Y-46250500D01*
X63345647Y-46250500D01*
X63574353Y-46250500D01*
X63574354Y-46250500D01*
X63800245Y-46214722D01*
X63800248Y-46214721D01*
X63800249Y-46214721D01*
X64017755Y-46144049D01*
X64017755Y-46144048D01*
X64017758Y-46144048D01*
X64221538Y-46040217D01*
X64406566Y-45905786D01*
X64568286Y-45744066D01*
X64629992Y-45659134D01*
X64685319Y-45616470D01*
X64754932Y-45610491D01*
X64816727Y-45643096D01*
X64830626Y-45659135D01*
X64892097Y-45743741D01*
X64892097Y-45743742D01*
X65053757Y-45905402D01*
X65238723Y-46039788D01*
X65442429Y-46143582D01*
X65659871Y-46214234D01*
X65750000Y-46228509D01*
X65750000Y-45240747D01*
X65787708Y-45262518D01*
X65927591Y-45300000D01*
X66072409Y-45300000D01*
X66212292Y-45262518D01*
X66250000Y-45240747D01*
X66250000Y-46228508D01*
X66340128Y-46214234D01*
X66557570Y-46143582D01*
X66761276Y-46039788D01*
X66944059Y-45906988D01*
X67009865Y-45883508D01*
X67077919Y-45899333D01*
X67126614Y-45949439D01*
X67133127Y-45963974D01*
X67143701Y-45992326D01*
X67143706Y-45992335D01*
X67229952Y-46107544D01*
X67229955Y-46107547D01*
X67345164Y-46193793D01*
X67345171Y-46193797D01*
X67480017Y-46244091D01*
X67480016Y-46244091D01*
X67486944Y-46244835D01*
X67539627Y-46250500D01*
X69540372Y-46250499D01*
X69599983Y-46244091D01*
X69734831Y-46193796D01*
X69850046Y-46107546D01*
X69936296Y-45992331D01*
X69986591Y-45857483D01*
X69993000Y-45797873D01*
X69992999Y-43702128D01*
X69986591Y-43642517D01*
X69982562Y-43631716D01*
X69936297Y-43507671D01*
X69936293Y-43507664D01*
X69850047Y-43392455D01*
X69850044Y-43392452D01*
X69734835Y-43306206D01*
X69734828Y-43306202D01*
X69599982Y-43255908D01*
X69599983Y-43255908D01*
X69540383Y-43249501D01*
X69540381Y-43249500D01*
X69540373Y-43249500D01*
X69540364Y-43249500D01*
X67539629Y-43249500D01*
X67539623Y-43249501D01*
X67480016Y-43255908D01*
X67345171Y-43306202D01*
X67345164Y-43306206D01*
X67229955Y-43392452D01*
X67229952Y-43392455D01*
X67143706Y-43507664D01*
X67143702Y-43507671D01*
X67133127Y-43536026D01*
X67091256Y-43591960D01*
X67025791Y-43616377D01*
X66957518Y-43601525D01*
X66944060Y-43593011D01*
X66761279Y-43460213D01*
X66557568Y-43356417D01*
X66340124Y-43285765D01*
X66250000Y-43271490D01*
X66250000Y-44259252D01*
X66212292Y-44237482D01*
X66072409Y-44200000D01*
X65927591Y-44200000D01*
X65787708Y-44237482D01*
X65750000Y-44259252D01*
X65750000Y-43271490D01*
X65749999Y-43271490D01*
X65659875Y-43285765D01*
X65442431Y-43356417D01*
X65238723Y-43460211D01*
X65053757Y-43594597D01*
X64892097Y-43756257D01*
X64830627Y-43840864D01*
X64775297Y-43883529D01*
X64705684Y-43889508D01*
X64643889Y-43856902D01*
X64629991Y-43840864D01*
X64608834Y-43811744D01*
X64568286Y-43755934D01*
X64406566Y-43594214D01*
X64221538Y-43459783D01*
X64017755Y-43355950D01*
X63800248Y-43285278D01*
X63614812Y-43255908D01*
X63574354Y-43249500D01*
X63345646Y-43249500D01*
X63305188Y-43255908D01*
X63119753Y-43285278D01*
X63119750Y-43285278D01*
X62902244Y-43355950D01*
X62698461Y-43459783D01*
X62632550Y-43507671D01*
X62513434Y-43594214D01*
X62513432Y-43594216D01*
X62513431Y-43594216D01*
X62351716Y-43755931D01*
X62351716Y-43755932D01*
X62351714Y-43755934D01*
X62311166Y-43811744D01*
X62217283Y-43940961D01*
X62113450Y-44144744D01*
X62042778Y-44362250D01*
X62042778Y-44362253D01*
X62007000Y-44588146D01*
X39826774Y-44588146D01*
X42128102Y-42286819D01*
X42189425Y-42253334D01*
X42215783Y-42250500D01*
X54848542Y-42250500D01*
X54867870Y-42246655D01*
X54945188Y-42231275D01*
X55041836Y-42212051D01*
X55095165Y-42189961D01*
X55223914Y-42136632D01*
X55387782Y-42027139D01*
X55527139Y-41887782D01*
X55527140Y-41887779D01*
X55534206Y-41880714D01*
X55534209Y-41880710D01*
X58637778Y-38777141D01*
X58637782Y-38777139D01*
X58777139Y-38637782D01*
X58886632Y-38473914D01*
X58962051Y-38291835D01*
X58992481Y-38138855D01*
X59000500Y-38098543D01*
X59000500Y-34643146D01*
X62007000Y-34643146D01*
X62007000Y-34966853D01*
X62042778Y-35192746D01*
X62042778Y-35192749D01*
X62113450Y-35410255D01*
X62143253Y-35468746D01*
X62217283Y-35614038D01*
X62351714Y-35799066D01*
X62513434Y-35960786D01*
X62698462Y-36095217D01*
X62830599Y-36162544D01*
X62902244Y-36199049D01*
X63119751Y-36269721D01*
X63119752Y-36269721D01*
X63119755Y-36269722D01*
X63345646Y-36305500D01*
X63345647Y-36305500D01*
X63574353Y-36305500D01*
X63574354Y-36305500D01*
X63800245Y-36269722D01*
X63800248Y-36269721D01*
X63800249Y-36269721D01*
X64017755Y-36199049D01*
X64017755Y-36199048D01*
X64017758Y-36199048D01*
X64221538Y-36095217D01*
X64406566Y-35960786D01*
X64568286Y-35799066D01*
X64629992Y-35714134D01*
X64685319Y-35671470D01*
X64754932Y-35665491D01*
X64816727Y-35698096D01*
X64830626Y-35714135D01*
X64892097Y-35798741D01*
X64892097Y-35798742D01*
X65053757Y-35960402D01*
X65238723Y-36094788D01*
X65442429Y-36198582D01*
X65659871Y-36269234D01*
X65750000Y-36283509D01*
X65750000Y-35295747D01*
X65787708Y-35317518D01*
X65927591Y-35355000D01*
X66072409Y-35355000D01*
X66212292Y-35317518D01*
X66250000Y-35295747D01*
X66250000Y-36283508D01*
X66340128Y-36269234D01*
X66557570Y-36198582D01*
X66761276Y-36094788D01*
X66944059Y-35961988D01*
X67009865Y-35938508D01*
X67077919Y-35954333D01*
X67126614Y-36004439D01*
X67133127Y-36018974D01*
X67143701Y-36047326D01*
X67143706Y-36047335D01*
X67229952Y-36162544D01*
X67229955Y-36162547D01*
X67345164Y-36248793D01*
X67345171Y-36248797D01*
X67480017Y-36299091D01*
X67480016Y-36299091D01*
X67486944Y-36299835D01*
X67539627Y-36305500D01*
X69540372Y-36305499D01*
X69599983Y-36299091D01*
X69734831Y-36248796D01*
X69850046Y-36162546D01*
X69936296Y-36047331D01*
X69986591Y-35912483D01*
X69993000Y-35852873D01*
X69992999Y-33757128D01*
X69986591Y-33697517D01*
X69977186Y-33672302D01*
X69936297Y-33562671D01*
X69936293Y-33562664D01*
X69850047Y-33447455D01*
X69850044Y-33447452D01*
X69734835Y-33361206D01*
X69734828Y-33361202D01*
X69599982Y-33310908D01*
X69599983Y-33310908D01*
X69540383Y-33304501D01*
X69540381Y-33304500D01*
X69540373Y-33304500D01*
X69540364Y-33304500D01*
X67539629Y-33304500D01*
X67539623Y-33304501D01*
X67480016Y-33310908D01*
X67345171Y-33361202D01*
X67345164Y-33361206D01*
X67229955Y-33447452D01*
X67229952Y-33447455D01*
X67143706Y-33562664D01*
X67143702Y-33562671D01*
X67133127Y-33591026D01*
X67091256Y-33646960D01*
X67025791Y-33671377D01*
X66957518Y-33656525D01*
X66944060Y-33648011D01*
X66761279Y-33515213D01*
X66557568Y-33411417D01*
X66340124Y-33340765D01*
X66250000Y-33326490D01*
X66250000Y-34314252D01*
X66212292Y-34292482D01*
X66072409Y-34255000D01*
X65927591Y-34255000D01*
X65787708Y-34292482D01*
X65750000Y-34314252D01*
X65750000Y-33326490D01*
X65749999Y-33326490D01*
X65659875Y-33340765D01*
X65442431Y-33411417D01*
X65238723Y-33515211D01*
X65053757Y-33649597D01*
X64892097Y-33811257D01*
X64830627Y-33895864D01*
X64775297Y-33938529D01*
X64705684Y-33944508D01*
X64643889Y-33911902D01*
X64629991Y-33895864D01*
X64615559Y-33876000D01*
X64568286Y-33810934D01*
X64406566Y-33649214D01*
X64221538Y-33514783D01*
X64192525Y-33500000D01*
X64017755Y-33410950D01*
X63800248Y-33340278D01*
X63614812Y-33310908D01*
X63574354Y-33304500D01*
X63345646Y-33304500D01*
X63305188Y-33310908D01*
X63119753Y-33340278D01*
X63119750Y-33340278D01*
X62902244Y-33410950D01*
X62698461Y-33514783D01*
X62632550Y-33562671D01*
X62513434Y-33649214D01*
X62513432Y-33649216D01*
X62513431Y-33649216D01*
X62351716Y-33810931D01*
X62351716Y-33810932D01*
X62351714Y-33810934D01*
X62317262Y-33858353D01*
X62217283Y-33995961D01*
X62113450Y-34199744D01*
X62042778Y-34417250D01*
X62042778Y-34417253D01*
X62007000Y-34643146D01*
X59000500Y-34643146D01*
X59000500Y-33401456D01*
X58962052Y-33208170D01*
X58962051Y-33208169D01*
X58962051Y-33208165D01*
X58920460Y-33107754D01*
X58886635Y-33026092D01*
X58886628Y-33026079D01*
X58777139Y-32862218D01*
X58777136Y-32862214D01*
X58637785Y-32722863D01*
X58637781Y-32722860D01*
X58473920Y-32613371D01*
X58473907Y-32613364D01*
X58291839Y-32537950D01*
X58291829Y-32537947D01*
X58098543Y-32499500D01*
X58098541Y-32499500D01*
X57901459Y-32499500D01*
X57901457Y-32499500D01*
X57708170Y-32537947D01*
X57708160Y-32537950D01*
X57526092Y-32613364D01*
X57526079Y-32613371D01*
X57357153Y-32726245D01*
X57356132Y-32724717D01*
X57299745Y-32748666D01*
X57285390Y-32749500D01*
X53225730Y-32749500D01*
X53158691Y-32729815D01*
X53138049Y-32713181D01*
X50773423Y-30348555D01*
X50743174Y-30299195D01*
X50727179Y-30249966D01*
X50632533Y-30086034D01*
X50505871Y-29945362D01*
X50505870Y-29945361D01*
X50352734Y-29834101D01*
X50352729Y-29834098D01*
X50179807Y-29757107D01*
X50179802Y-29757105D01*
X50034001Y-29726115D01*
X49994646Y-29717750D01*
X49805354Y-29717750D01*
X49772897Y-29724648D01*
X49620197Y-29757105D01*
X49620192Y-29757107D01*
X49447270Y-29834098D01*
X49447265Y-29834101D01*
X49433548Y-29844068D01*
X49367742Y-29867548D01*
X49360663Y-29867750D01*
X47321087Y-29867750D01*
X47254048Y-29848065D01*
X47248202Y-29844068D01*
X47234484Y-29834101D01*
X47234479Y-29834098D01*
X47061557Y-29757107D01*
X47061552Y-29757105D01*
X46915751Y-29726115D01*
X46876396Y-29717750D01*
X46687104Y-29717750D01*
X46654647Y-29724648D01*
X46501947Y-29757105D01*
X46501942Y-29757107D01*
X46329020Y-29834098D01*
X46329015Y-29834101D01*
X46175879Y-29945361D01*
X46049216Y-30086035D01*
X45954571Y-30249965D01*
X45954568Y-30249972D01*
X45896077Y-30429990D01*
X45896076Y-30429994D01*
X45876290Y-30618250D01*
X45896076Y-30806506D01*
X45896077Y-30806509D01*
X45954568Y-30986527D01*
X45954571Y-30986534D01*
X46049217Y-31150466D01*
X46131904Y-31242299D01*
X46175879Y-31291138D01*
X46329015Y-31402398D01*
X46329020Y-31402401D01*
X46501942Y-31479392D01*
X46501947Y-31479394D01*
X46687104Y-31518750D01*
X46687105Y-31518750D01*
X46876394Y-31518750D01*
X46876396Y-31518750D01*
X47061553Y-31479394D01*
X47234480Y-31402401D01*
X47236526Y-31400914D01*
X47248202Y-31392432D01*
X47314008Y-31368952D01*
X47321087Y-31368750D01*
X49360663Y-31368750D01*
X49427702Y-31388435D01*
X49433548Y-31392432D01*
X49447265Y-31402398D01*
X49447270Y-31402401D01*
X49620192Y-31479392D01*
X49620193Y-31479392D01*
X49620197Y-31479394D01*
X49789145Y-31515304D01*
X49850626Y-31548496D01*
X49851045Y-31548913D01*
X52385086Y-34082954D01*
X52410831Y-34100155D01*
X52423705Y-34108757D01*
X52508005Y-34165084D01*
X52644587Y-34221658D01*
X52644591Y-34221658D01*
X52644592Y-34221659D01*
X52789579Y-34250500D01*
X52789582Y-34250500D01*
X52789583Y-34250500D01*
X52937417Y-34250500D01*
X56875500Y-34250500D01*
X56942539Y-34270185D01*
X56988294Y-34322989D01*
X56999500Y-34374500D01*
X56999500Y-37534218D01*
X56979815Y-37601257D01*
X56963181Y-37621899D01*
X54371899Y-40213181D01*
X54310576Y-40246666D01*
X54284218Y-40249500D01*
X41651454Y-40249500D01*
X41619391Y-40255876D01*
X41619392Y-40255877D01*
X41458170Y-40287946D01*
X41458164Y-40287948D01*
X41276088Y-40363366D01*
X41276079Y-40363371D01*
X41112219Y-40472859D01*
X41112215Y-40472862D01*
X30461681Y-51123397D01*
X30400358Y-51156882D01*
X30330666Y-51151898D01*
X30274733Y-51110026D01*
X30250316Y-51044562D01*
X30250000Y-51035716D01*
X30250000Y-49922601D01*
X30255339Y-49886608D01*
X30256091Y-49884127D01*
X30258523Y-49871899D01*
X30295500Y-49686003D01*
X30295500Y-49033997D01*
X30256091Y-48835873D01*
X30178786Y-48649244D01*
X30178784Y-48649241D01*
X30178782Y-48649237D01*
X30066558Y-48481281D01*
X29923718Y-48338441D01*
X29755762Y-48226217D01*
X29755752Y-48226212D01*
X29569127Y-48148909D01*
X29569119Y-48148907D01*
X29371007Y-48109500D01*
X29371003Y-48109500D01*
X29168997Y-48109500D01*
X29168992Y-48109500D01*
X28970880Y-48148907D01*
X28970872Y-48148909D01*
X28784244Y-48226213D01*
X28703891Y-48279904D01*
X28637213Y-48300782D01*
X28569833Y-48282297D01*
X28566109Y-48279904D01*
X28485755Y-48226213D01*
X28299127Y-48148909D01*
X28299119Y-48148907D01*
X28101007Y-48109500D01*
X28101003Y-48109500D01*
X27898997Y-48109500D01*
X27898996Y-48109500D01*
X27878688Y-48113539D01*
X27809097Y-48107310D01*
X27753921Y-48064446D01*
X27730678Y-47998555D01*
X27730500Y-47991921D01*
X27730500Y-39000000D01*
X31594540Y-39000000D01*
X31614326Y-39188256D01*
X31614327Y-39188259D01*
X31672818Y-39368277D01*
X31672821Y-39368284D01*
X31767467Y-39532216D01*
X31810772Y-39580310D01*
X31842650Y-39615715D01*
X31872880Y-39678706D01*
X31874500Y-39698687D01*
X31874500Y-43301312D01*
X31854815Y-43368351D01*
X31842650Y-43384284D01*
X31767466Y-43467784D01*
X31672821Y-43631715D01*
X31672818Y-43631722D01*
X31614327Y-43811740D01*
X31614326Y-43811744D01*
X31594540Y-44000000D01*
X31614326Y-44188256D01*
X31614327Y-44188259D01*
X31672818Y-44368277D01*
X31672821Y-44368284D01*
X31767467Y-44532216D01*
X31817827Y-44588146D01*
X31894129Y-44672888D01*
X32047265Y-44784148D01*
X32047270Y-44784151D01*
X32220192Y-44861142D01*
X32220197Y-44861144D01*
X32405354Y-44900500D01*
X32405355Y-44900500D01*
X32594644Y-44900500D01*
X32594646Y-44900500D01*
X32779803Y-44861144D01*
X32952730Y-44784151D01*
X33105871Y-44672888D01*
X33232533Y-44532216D01*
X33327179Y-44368284D01*
X33385674Y-44188256D01*
X33405460Y-44000000D01*
X33385674Y-43811744D01*
X33327179Y-43631716D01*
X33232533Y-43467784D01*
X33225329Y-43459783D01*
X33157350Y-43384284D01*
X33127120Y-43321292D01*
X33125500Y-43301312D01*
X33125500Y-39698687D01*
X33145185Y-39631648D01*
X33157350Y-39615715D01*
X33175891Y-39595122D01*
X33232533Y-39532216D01*
X33327179Y-39368284D01*
X33385674Y-39188256D01*
X33405460Y-39000000D01*
X33385674Y-38811744D01*
X33327179Y-38631716D01*
X33232533Y-38467784D01*
X33105871Y-38327112D01*
X33057322Y-38291839D01*
X32952734Y-38215851D01*
X32952729Y-38215848D01*
X32779807Y-38138857D01*
X32779802Y-38138855D01*
X32634001Y-38107865D01*
X32594646Y-38099500D01*
X32405354Y-38099500D01*
X32372897Y-38106398D01*
X32220197Y-38138855D01*
X32220192Y-38138857D01*
X32047270Y-38215848D01*
X32047265Y-38215851D01*
X31894129Y-38327111D01*
X31767466Y-38467785D01*
X31672821Y-38631715D01*
X31672818Y-38631722D01*
X31614327Y-38811740D01*
X31614326Y-38811744D01*
X31594540Y-39000000D01*
X27730500Y-39000000D01*
X27730500Y-33624000D01*
X27750185Y-33556961D01*
X27802989Y-33511206D01*
X27854500Y-33500000D01*
X28814047Y-33500000D01*
X28881086Y-33519685D01*
X28901728Y-33536319D01*
X31561038Y-36195629D01*
X31594523Y-36256952D01*
X31596678Y-36270348D01*
X31600373Y-36305498D01*
X31614326Y-36438256D01*
X31614327Y-36438259D01*
X31672818Y-36618277D01*
X31672821Y-36618284D01*
X31767467Y-36782216D01*
X31894129Y-36922888D01*
X32047265Y-37034148D01*
X32047270Y-37034151D01*
X32220192Y-37111142D01*
X32220197Y-37111144D01*
X32405354Y-37150500D01*
X32405355Y-37150500D01*
X32594644Y-37150500D01*
X32594646Y-37150500D01*
X32779803Y-37111144D01*
X32952730Y-37034151D01*
X33105871Y-36922888D01*
X33157851Y-36865158D01*
X33217336Y-36828510D01*
X33287193Y-36829840D01*
X33342148Y-36865158D01*
X33394129Y-36922888D01*
X33547265Y-37034148D01*
X33547270Y-37034151D01*
X33720192Y-37111142D01*
X33720197Y-37111144D01*
X33905354Y-37150500D01*
X33905355Y-37150500D01*
X34094644Y-37150500D01*
X34094646Y-37150500D01*
X34279803Y-37111144D01*
X34452730Y-37034151D01*
X34605871Y-36922888D01*
X34732533Y-36782216D01*
X34827179Y-36618284D01*
X34885674Y-36438256D01*
X34905460Y-36250000D01*
X34885674Y-36061744D01*
X34827179Y-35881716D01*
X34732533Y-35717784D01*
X34605871Y-35577112D01*
X34605870Y-35577111D01*
X34452734Y-35465851D01*
X34452729Y-35465848D01*
X34279807Y-35388857D01*
X34279802Y-35388855D01*
X34134001Y-35357865D01*
X34094646Y-35349500D01*
X34094645Y-35349500D01*
X34035453Y-35349500D01*
X33968414Y-35329815D01*
X33947772Y-35313181D01*
X26721772Y-28087181D01*
X26688287Y-28025858D01*
X26693271Y-27956166D01*
X26735143Y-27900233D01*
X26800607Y-27875816D01*
X26809453Y-27875500D01*
X67639548Y-27875500D01*
X67706587Y-27895185D01*
X67727229Y-27911819D01*
X68361038Y-28545628D01*
X68394523Y-28606951D01*
X68396678Y-28620347D01*
X68400908Y-28660588D01*
X68414326Y-28788256D01*
X68414327Y-28788259D01*
X68472818Y-28968277D01*
X68472821Y-28968284D01*
X68567467Y-29132216D01*
X68666589Y-29242302D01*
X68694129Y-29272888D01*
X68847265Y-29384148D01*
X68847270Y-29384151D01*
X69020192Y-29461142D01*
X69020197Y-29461144D01*
X69205354Y-29500500D01*
X69205355Y-29500500D01*
X69394644Y-29500500D01*
X69394646Y-29500500D01*
X69579803Y-29461144D01*
X69752730Y-29384151D01*
X69905871Y-29272888D01*
X70032533Y-29132216D01*
X70127179Y-28968284D01*
X70185674Y-28788256D01*
X70205460Y-28600000D01*
X70185674Y-28411744D01*
X70127179Y-28231716D01*
X70032533Y-28067784D01*
X69905871Y-27927112D01*
X69905870Y-27927111D01*
X69752734Y-27815851D01*
X69752729Y-27815848D01*
X69579807Y-27738857D01*
X69579802Y-27738855D01*
X69434001Y-27707865D01*
X69394646Y-27699500D01*
X69394645Y-27699500D01*
X69335452Y-27699500D01*
X69268413Y-27679815D01*
X69247771Y-27663181D01*
X68921771Y-27337181D01*
X68888286Y-27275858D01*
X68893270Y-27206166D01*
X68935142Y-27150233D01*
X69000606Y-27125816D01*
X69009452Y-27125500D01*
X80189548Y-27125500D01*
X80256587Y-27145185D01*
G37*
%TD.AperFunction*%
%TD*%
M02*
